<svg width="60" height="60" viewBox="0 0 60 60" fill="none" xmlns="http://www.w3.org/2000/svg">
<g clip-path="url(#clip0)">
<path d="M56.728 48H49C48.8392 48 48.6808 48.0388 48.5382 48.113C48.3956 48.1873 48.273 48.2948 48.1808 48.4265L45.6793 52H44V51C44 50.8354 43.9594 50.6733 43.8817 50.5281C43.804 50.383 43.6917 50.2593 43.5547 50.168L38 46.4648V37.3137C38.0032 36.1313 37.7719 34.9601 37.3194 33.8677C36.867 32.7753 36.2023 31.7835 35.364 30.9497L29.4142 25L37 17.4142L40.525 20.9393C41.8445 22.2588 43.634 23 45.5 23C47.366 23 49.1555 22.2588 50.475 20.9393L57.7072 13.7072C57.8947 13.5196 58 13.2652 58 13V9C58 8.73479 57.8946 8.48044 57.7071 8.29291C57.5196 8.10537 57.2652 8.00001 57 8H55C54.7348 8.00001 54.4804 8.10534 54.2928 8.29285L53.2739 9.31189L52.8944 8.55274C52.8114 8.38663 52.6837 8.24694 52.5257 8.14932C52.3677 8.05169 52.1857 7.99999 52 8H50C49.7348 8.00001 49.4804 8.10537 49.2929 8.29291C49.1054 8.48044 49 8.73479 49 9V11.5858L46 14.5858L39.9616 8.5473C39.9869 8.36596 39.9997 8.1831 40 8V3.30274C40 2.70494 39.8377 2.11836 39.5306 1.60553C39.2234 1.09271 38.7827 0.672874 38.2557 0.3908C37.7286 0.108726 37.1349 -0.02501 36.5378 0.0038525C35.9407 0.032715 35.3626 0.223094 34.8652 0.554688L32.4453 2.16797C32.3083 2.25928 32.196 2.383 32.1183 2.52815C32.0406 2.67329 32 2.83537 32 3V6H18.8995C17.8485 5.99713 16.8074 6.20275 15.8363 6.60495C14.8653 7.00715 13.9837 7.59794 13.2426 8.34314L5.29285 16.2928C5.10534 16.4804 5.00001 16.7348 5 17V19C5.00001 19.2652 5.10534 19.5196 5.29285 19.7072L7.29285 21.7072C7.48044 21.8946 7.73479 21.9999 8 21.9999C8.26521 21.9999 8.51956 21.8946 8.70715 21.7072L9.72607 20.6881L10.1056 21.4473C10.1886 21.6134 10.3163 21.7531 10.4743 21.8507C10.6323 21.9483 10.8143 22 11 22H13C13.2652 22 13.5196 21.8946 13.7071 21.7071C13.8946 21.5196 14 21.2652 14 21V18.4142L18.4142 14H21.5858L18.0116 17.5741C17.3718 18.2104 16.8646 18.9673 16.5193 19.8009C16.174 20.6345 15.9975 21.5284 16 22.4307V32.7192L5.24255 30.0299L5.24194 30.0323C5.16293 30.0117 5.08167 30.0008 5 30H1C0.734787 30 0.480441 30.1054 0.292907 30.2929C0.105374 30.4804 1.29282e-05 30.7348 0 31V42C1.29282e-05 42.2652 0.105374 42.5196 0.292907 42.7071C0.480441 42.8946 0.734787 43 1 43H4C4.1857 43 4.36774 42.9483 4.52571 42.8507C4.68368 42.753 4.81135 42.6134 4.89441 42.4473L7.42737 37.3813L14.4454 41.2804C15.7715 42.017 17.3358 42.1966 18.7944 41.7799C20.2529 41.3631 21.4861 40.384 22.2228 39.058L25.1151 33.8518L29.07 37.5024L31 49.0831V52H4C2.93913 52 1.92172 52.4214 1.17157 53.1716C0.421427 53.9217 0 54.9391 0 56C0 57.0609 0.421427 58.0783 1.17157 58.8284C1.92172 59.5786 2.93913 60 4 60H54C54.1592 60 54.3161 59.962 54.4576 59.8891C54.5991 59.8163 54.7212 59.7107 54.8137 59.5812L59.3904 53.1738C59.7399 52.6846 59.9478 52.1086 59.9914 51.509C60.035 50.9094 59.9125 50.3094 59.6374 49.7748C59.3623 49.2402 58.9453 48.7918 58.432 48.4787C57.9188 48.1656 57.3292 48 56.728 48ZM46.7072 16.7072L50.7072 12.7072C50.8947 12.5196 51 12.2652 51 12V10H51.382L52.1056 11.4473C52.1765 11.589 52.28 11.7118 52.4077 11.8057C52.5353 11.8995 52.6835 11.9617 52.8399 11.9871C52.9963 12.0124 53.1565 12.0003 53.3072 11.9516C53.458 11.903 53.5951 11.8192 53.7072 11.7072L55.4142 10H56V12.5858L49.0607 19.525C48.5931 19.9926 48.038 20.3636 47.427 20.6167C46.8161 20.8697 46.1613 21 45.5 21C44.8387 21 44.1839 20.8697 43.573 20.6167C42.962 20.3636 42.4069 19.9926 41.9393 19.525L41.34 18.9257L44.0829 15.4972L45.2928 16.7072C45.4804 16.8946 45.7348 16.9999 46 16.9999C46.2652 16.9999 46.5196 16.8946 46.7072 16.7072ZM35.9747 2.21863C36.1709 2.08789 36.399 2.01285 36.6345 2.00151C36.87 1.99016 37.1041 2.04294 37.312 2.15421C37.5199 2.26548 37.6937 2.43108 37.8148 2.63334C37.936 2.8356 38 3.06696 38 3.30274V4H34V3.53516L35.9747 2.21863ZM38 6V8C38 8.53043 37.7893 9.03914 37.4142 9.41421C37.0391 9.78929 36.5304 10 36 10C35.4696 10 34.9609 9.78929 34.5858 9.41421C34.2107 9.03914 34 8.53043 34 8V6H38ZM18 12C17.7348 12 17.4804 12.1053 17.2928 12.2928L12.2928 17.2928C12.1053 17.4804 12 17.7348 12 18V20H11.618L10.8944 18.5527C10.8235 18.411 10.72 18.2882 10.5923 18.1943C10.4647 18.1005 10.3165 18.0383 10.1601 18.0129C10.0037 17.9876 9.84354 17.9997 9.69276 18.0484C9.54197 18.097 9.4049 18.1808 9.29285 18.2928L8 19.5858L7 18.5858V17.4142L14.6569 9.75745C15.2127 9.19852 15.8739 8.7554 16.6022 8.45373C17.3304 8.15206 18.1113 7.99785 18.8995 8H19V12H18ZM24.9238 12.6173C24.8481 12.4346 24.72 12.2784 24.5555 12.1685C24.3911 12.0587 24.1978 12 24 12H21V8H32C31.9996 8.82651 32.2553 9.63284 32.7321 10.308C33.2088 10.9832 33.883 11.494 34.6621 11.7702C35.4411 12.0464 36.2865 12.0743 37.0821 11.8502C37.8776 11.6261 38.5841 11.1609 39.1044 10.5187L42.66 14.0743L39.9171 17.5028L37.7072 15.2928C37.5196 15.1054 37.2652 15.0001 37 15.0001C36.7348 15.0001 36.4804 15.1054 36.2928 15.2928L28 23.5857L21.4143 17L24.7072 13.7072C24.847 13.5673 24.9422 13.3891 24.9807 13.1951C25.0193 13.0011 24.9995 12.8 24.9238 12.6173ZM19.4259 18.9884L20 18.4143L27.2928 25.7072L31.5857 30L27.8922 33.6935L19.5662 26.0078C19.0844 25.5631 18.6974 25.0256 18.4284 24.4276C18.1595 23.8297 18.0141 23.1835 18.001 22.528C17.9879 21.8724 18.1073 21.221 18.3522 20.6128C18.5971 20.0045 18.9623 19.452 19.4259 18.9884ZM3.38196 41H2V32H4.323L5.90479 35.9545L3.38196 41ZM20.4745 38.0868C19.9954 38.9491 19.1933 39.5858 18.2448 39.8569C17.2962 40.1279 16.2789 40.011 15.4165 39.532L7.79642 35.2985L6.65479 32.4444L16.7574 34.9701C16.9049 35.007 17.0588 35.0097 17.2074 34.9782C17.3561 34.9467 17.4956 34.8817 17.6154 34.7882C17.7352 34.6947 17.8321 34.5751 17.8987 34.4385C17.9654 34.3019 18 34.152 18 34V32.8685L21.9213 35.4827L20.4745 38.0868ZM22.8957 33.7286L18 30.4648V27.2734C18.0687 27.3425 18.1379 27.4111 18.2097 27.4774L23.6028 32.4558L22.8957 33.7286ZM30.6782 36.2651L29.3631 35.0512L33 31.4143L33.9497 32.364C34.6018 33.0125 35.1187 33.7839 35.4707 34.6335C35.8226 35.4831 36.0025 36.3941 36 37.3137V46.323L32.7822 47.6101L30.9865 36.8356C30.9498 36.6165 30.8414 36.4158 30.6782 36.2651ZM33 49.677L36.8829 48.1238L42 51.5352V52H33V49.677ZM4 58C3.46957 58 2.96086 57.7893 2.58579 57.4142C2.21071 57.0391 2 56.5304 2 56C2 55.4696 2.21071 54.9609 2.58579 54.5858C2.96086 54.2107 3.46957 54 4 54H44.2793L41.4794 58H4ZM57.7631 52.0112L53.4854 58H43.9207L49.5206 50H56.728C56.9617 50 57.1909 50.0644 57.3904 50.1861C57.59 50.3078 57.7521 50.4821 57.859 50.6899C57.966 50.8977 58.0136 51.131 57.9967 51.364C57.9797 51.5971 57.8989 51.8211 57.7631 52.0112H57.7631Z" fill="#C3B399"/>
<path d="M54 52.375C54.5523 52.375 55 51.9273 55 51.375C55 50.8227 54.5523 50.375 54 50.375C53.4477 50.375 53 50.8227 53 51.375C53 51.9273 53.4477 52.375 54 52.375Z" fill="#C3B399"/>
</g>
<defs>
<clipPath id="clip0">
<rect width="60" height="60" fill="white"/>
</clipPath>
</defs>
</svg>
