<svg width="122" height="40" viewBox="0 0 122 40" fill="none" xmlns="http://www.w3.org/2000/svg">
<path d="M111.891 0.00013H9.68671C9.31417 0.00013 8.94609 0.00013 8.57453 0.00212999C8.2635 0.00412999 7.95494 0.00993997 7.64092 0.01483C6.95873 0.0227317 6.27814 0.081806 5.60507 0.191539C4.93295 0.303662 4.28188 0.515044 3.67388 0.818537C3.06663 1.1246 2.51177 1.52229 2.02942 1.99719C1.54454 2.47076 1.14036 3.01814 0.832415 3.61828C0.523618 4.21723 0.309498 4.85905 0.197449 5.52159C0.0843346 6.1833 0.0234667 6.85263 0.0153916 7.52359C0.0059636 7.83018 0.00496797 8.1378 0 8.44444V31.5586C0.00496797 31.8691 0.0059636 32.1699 0.0153916 32.4805C0.0234692 33.1514 0.0843371 33.8207 0.197449 34.4824C0.309189 35.1453 0.523322 35.7875 0.832415 36.3867C1.14022 36.9849 1.54446 37.5301 2.02942 38.001C2.50994 38.478 3.06516 38.876 3.67388 39.1797C4.28187 39.484 4.93287 39.6967 5.60507 39.8105C6.27826 39.9194 6.95878 39.9785 7.64092 39.9873C7.95494 39.9941 8.2635 39.998 8.57453 39.998C8.94608 40 9.31419 40 9.68671 40H111.891C112.256 40 112.627 40 112.992 39.998C113.302 39.998 113.619 39.9941 113.929 39.9873C114.61 39.9789 115.289 39.9198 115.961 39.8105C116.635 39.6959 117.288 39.4833 117.899 39.1797C118.507 38.8758 119.062 38.4779 119.542 38.001C120.026 37.5282 120.431 36.9835 120.743 36.3867C121.05 35.7871 121.262 35.145 121.372 34.4824C121.485 33.8207 121.548 33.1515 121.56 32.4805C121.564 32.1699 121.564 31.8691 121.564 31.5586C121.572 31.1953 121.572 30.834 121.572 30.4648V9.53623C121.572 9.17002 121.572 8.80674 121.564 8.44444C121.564 8.1378 121.564 7.83018 121.56 7.52355C121.548 6.85253 121.485 6.18335 121.372 5.52155C121.261 4.8594 121.049 4.21762 120.743 3.61824C120.116 2.41532 119.121 1.43615 117.899 0.818447C117.288 0.515696 116.635 0.304369 115.961 0.191449C115.289 0.0812325 114.61 0.0221377 113.929 0.01469C113.619 0.00980997 113.302 0.00394999 112.992 0.00199999C112.627 0 112.256 0 111.891 0V0.00013Z" fill="black"/>
<path d="M8.57964 39.125C8.2701 39.125 7.96804 39.1211 7.66093 39.1143C7.02473 39.1061 6.39001 39.0516 5.76199 38.9512C5.17639 38.8519 4.6091 38.6673 4.07883 38.4033C3.55343 38.1415 3.07421 37.7983 2.65955 37.3867C2.23889 36.98 1.88867 36.5083 1.62277 35.9902C1.35394 35.4688 1.1679 34.9099 1.07111 34.333C0.966597 33.7131 0.91005 33.0863 0.901958 32.458C0.895517 32.2471 0.887085 31.5449 0.887085 31.5449V8.44444C0.887085 8.44444 0.896066 7.75303 0.902009 7.5499C0.909757 6.92258 0.965975 6.29676 1.07018 5.67784C1.16714 5.09936 1.35333 4.53886 1.6223 4.01574C1.88723 3.49806 2.2355 3.02598 2.65363 2.6178C3.07129 2.20574 3.55203 1.86072 4.07833 1.59533C4.60738 1.33221 5.1736 1.14885 5.75801 1.05139C6.3881 0.949958 7.02502 0.895118 7.66343 0.887332L8.58014 0.875122H112.987L113.915 0.887822C114.548 0.895221 115.179 0.949572 115.803 1.05041C116.393 1.1491 116.966 1.33374 117.501 1.59826C118.555 2.1331 119.413 2.97928 119.954 4.01818C120.219 4.53769 120.402 5.09362 120.498 5.6671C120.603 6.2911 120.662 6.92184 120.674 7.5543C120.677 7.8375 120.677 8.1417 120.677 8.44444C120.685 8.81944 120.685 9.17636 120.685 9.53622V30.4648C120.685 30.8281 120.685 31.1826 120.677 31.54C120.677 31.8652 120.677 32.1631 120.673 32.4697C120.662 33.0909 120.604 33.7104 120.5 34.3232C120.405 34.9043 120.22 35.4675 119.951 35.9932C119.683 36.5056 119.335 36.9733 118.919 37.3789C118.504 37.7927 118.024 38.1379 117.498 38.4014C116.964 38.6674 116.393 38.8527 115.803 38.9512C115.175 39.0522 114.54 39.1067 113.904 39.1143C113.606 39.1211 113.295 39.125 112.992 39.125L111.891 39.127L8.57964 39.125Z" fill="black"/>
<path d="M25.1636 20.3007C25.1746 19.466 25.3998 18.6476 25.8184 17.9217C26.237 17.1957 26.8353 16.5858 27.5578 16.1486C27.0988 15.5035 26.4934 14.9725 25.7895 14.598C25.0856 14.2234 24.3027 14.0156 23.503 13.991C21.7969 13.8147 20.143 14.9958 19.2737 14.9958C18.3875 14.9958 17.049 14.0085 15.6076 14.0376C14.6753 14.0673 13.7667 14.3341 12.9704 14.8122C12.174 15.2903 11.517 15.9632 11.0634 16.7655C9.09857 20.1139 10.5642 25.035 12.4463 27.7416C13.388 29.0669 14.4885 30.5473 15.9286 30.4948C17.3378 30.4373 17.8641 29.6104 19.5651 29.6104C21.2503 29.6104 21.7441 30.4948 23.2133 30.4615C24.7254 30.4373 25.6781 29.1302 26.5868 27.7923C27.2634 26.848 27.784 25.8043 28.1294 24.6998C27.2509 24.3341 26.5012 23.7219 25.9738 22.9396C25.4464 22.1573 25.1647 21.2395 25.1636 20.3007Z" fill="white"/>
<path d="M22.3884 12.2109C23.2129 11.2367 23.6191 9.98456 23.5207 8.72034C22.2611 8.85056 21.0976 9.44311 20.262 10.3799C19.8534 10.8376 19.5405 11.37 19.3411 11.9468C19.1418 12.5236 19.0598 13.1334 19.1 13.7413C19.7301 13.7477 20.3533 13.6133 20.9229 13.3482C21.4926 13.0831 21.9936 12.6943 22.3884 12.2109Z" fill="white"/>
<path d="M42.9766 27.1396H38.1678L37.0129 30.4961H34.9761L39.531 18.0781H41.6472L46.2021 30.4961H44.1305L42.9766 27.1396ZM38.6658 25.5908H42.4776L40.5985 20.1436H40.546L38.6658 25.5908Z" fill="white"/>
<path d="M56.0391 25.9697C56.0391 28.7832 54.5092 30.5908 52.2005 30.5908C51.6157 30.6209 51.0341 30.4883 50.5222 30.2081C50.0104 29.928 49.5891 29.5116 49.3065 29.0068H49.2628V33.4911H47.3748V21.4423H49.2023V22.9482H49.237C49.5326 22.4457 49.9611 22.0315 50.4768 21.7497C50.9925 21.4679 51.5762 21.3289 52.1658 21.3476C54.5002 21.3476 56.0391 23.164 56.0391 25.9697ZM54.0985 25.9697C54.0985 24.1367 53.1361 22.9316 51.6677 22.9316C50.2252 22.9316 49.2549 24.1621 49.2549 25.9697C49.2549 27.7939 50.2252 29.0156 51.6677 29.0156C53.1361 29.0156 54.0985 27.8193 54.0985 25.9697Z" fill="white"/>
<path d="M66.1626 25.9697C66.1626 28.7831 64.6328 30.5907 62.3241 30.5907C61.7392 30.6209 61.1576 30.4883 60.6458 30.2081C60.134 29.928 59.7126 29.5116 59.43 29.0068H59.3863V33.4911H57.4983V21.4423H59.3258V22.9482H59.3605C59.6561 22.4457 60.0846 22.0315 60.6003 21.7497C61.116 21.4679 61.6997 21.3289 62.2893 21.3476C64.6238 21.3476 66.1626 23.164 66.1626 25.9697ZM64.222 25.9697C64.222 24.1367 63.2596 22.9316 61.7913 22.9316C60.3487 22.9316 59.3784 24.1621 59.3784 25.9697C59.3784 27.7939 60.3487 29.0156 61.7913 29.0156C63.2597 29.0156 64.222 27.8193 64.222 25.9697H64.222Z" fill="white"/>
<path d="M72.8536 27.0362C72.9935 28.2676 74.2089 29.0761 75.8697 29.0761C77.4611 29.0761 78.606 28.2676 78.606 27.1572C78.606 26.1933 77.9155 25.6162 76.2804 25.2207L74.6454 24.833C72.3288 24.2822 71.2533 23.2158 71.2533 21.4853C71.2533 19.3428 73.1503 17.8711 75.8439 17.8711C78.5097 17.8711 80.3373 19.3428 80.3988 21.4853H78.4929C78.3788 20.2461 77.338 19.498 75.8171 19.498C74.2961 19.498 73.2554 20.2549 73.2554 21.3564C73.2554 22.2344 73.9201 22.751 75.5462 23.1464L76.9362 23.4824C79.5247 24.0849 80.6002 25.1084 80.6002 26.9247C80.6002 29.248 78.7201 30.703 75.7298 30.703C72.932 30.703 71.0429 29.2822 70.9209 27.0361L72.8536 27.0362Z" fill="white"/>
<path d="M84.675 19.2998V21.4424H86.4242V22.9141H84.675V27.9052C84.675 28.6806 85.0253 29.042 85.7942 29.042C86.0018 29.0384 86.2091 29.024 86.4152 28.999V30.4618C86.0695 30.5254 85.7182 30.5542 85.3665 30.5478C83.5043 30.5478 82.7781 29.8593 82.7781 28.1035V22.9141H81.4407V21.4424H82.778V19.2998H84.675Z" fill="white"/>
<path d="M87.4373 25.9697C87.4373 23.1211 89.1417 21.3311 91.7997 21.3311C94.4665 21.3311 96.1631 23.121 96.1631 25.9697C96.1631 28.8261 94.4755 30.6084 91.7997 30.6084C89.1248 30.6084 87.4373 28.8261 87.4373 25.9697ZM94.2393 25.9697C94.2393 24.0156 93.3295 22.8623 91.7997 22.8623C90.2698 22.8623 89.361 24.0244 89.361 25.9697C89.361 27.9316 90.2698 29.0761 91.7997 29.0761C93.3295 29.0761 94.2393 27.9316 94.2393 25.9697H94.2393Z" fill="white"/>
<path d="M97.7196 21.4424H99.5203V22.9834H99.564C99.6858 22.5021 99.9723 22.0768 100.375 21.7789C100.778 21.481 101.273 21.3287 101.776 21.3476C101.994 21.3469 102.211 21.3702 102.423 21.417V23.1553C102.149 23.0726 101.862 23.0347 101.575 23.043C101.301 23.032 101.027 23.0796 100.773 23.1825C100.52 23.2854 100.291 23.4411 100.105 23.639C99.9176 23.8369 99.7764 24.0722 99.6907 24.3289C99.6049 24.5856 99.5766 24.8575 99.6076 25.1259V30.496H97.7196L97.7196 21.4424Z" fill="white"/>
<path d="M111.128 27.8369C110.874 29.4804 109.248 30.6084 107.168 30.6084C104.492 30.6084 102.831 28.8437 102.831 26.0127C102.831 23.1728 104.501 21.3311 107.088 21.3311C109.633 21.3311 111.233 23.0517 111.233 25.7969V26.4336H104.737V26.5459C104.707 26.8791 104.749 27.2147 104.861 27.5306C104.973 27.8464 105.152 28.1352 105.386 28.3777C105.62 28.6203 105.904 28.8111 106.219 28.9374C106.533 29.0637 106.872 29.1226 107.211 29.1103C107.658 29.1515 108.105 29.0498 108.488 28.8203C108.871 28.5909 109.168 28.246 109.336 27.8369L111.128 27.8369ZM104.746 25.1348H109.344C109.361 24.8352 109.315 24.5353 109.209 24.2541C109.103 23.9729 108.938 23.7164 108.726 23.5006C108.515 23.2849 108.26 23.1145 107.978 23.0003C107.696 22.8861 107.393 22.8305 107.088 22.8369C106.781 22.8351 106.476 22.8932 106.192 23.008C105.907 23.1227 105.648 23.2918 105.431 23.5054C105.213 23.7191 105.04 23.973 104.923 24.2527C104.805 24.5323 104.745 24.8321 104.746 25.1348V25.1348Z" fill="white"/>
<path d="M38.4291 8.73101C38.825 8.70305 39.2222 8.76191 39.5921 8.90335C39.962 9.04478 40.2954 9.26526 40.5683 9.54888C40.8412 9.83251 41.0467 10.1722 41.17 10.5435C41.2934 10.9147 41.3314 11.3083 41.2815 11.6958C41.2815 13.6021 40.2348 14.6978 38.4291 14.6978H36.2395V8.73101H38.4291ZM37.181 13.854H38.324C38.6068 13.8706 38.8899 13.825 39.1525 13.7204C39.4152 13.6158 39.6509 13.4548 39.8424 13.2493C40.0339 13.0437 40.1764 12.7987 40.2595 12.5321C40.3427 12.2654 40.3644 11.9839 40.3231 11.708C40.3614 11.4332 40.3375 11.1534 40.2531 10.8887C40.1686 10.6241 40.0257 10.3811 39.8347 10.1771C39.6436 9.97321 39.4091 9.81341 39.1479 9.70917C38.8867 9.60493 38.6054 9.55885 38.324 9.57422H37.181V13.854Z" fill="white"/>
<path d="M42.345 12.4443C42.3163 12.1484 42.3507 11.8498 42.446 11.5677C42.5413 11.2857 42.6955 11.0263 42.8987 10.8063C43.1018 10.5864 43.3494 10.4106 43.6256 10.2903C43.9018 10.17 44.2004 10.1079 44.5024 10.1079C44.8044 10.1079 45.1031 10.17 45.3793 10.2903C45.6555 10.4106 45.9031 10.5864 46.1062 10.8063C46.3094 11.0263 46.4635 11.2857 46.5589 11.5677C46.6542 11.8498 46.6886 12.1484 46.6598 12.4443C46.6891 12.7405 46.6552 13.0395 46.5601 13.322C46.465 13.6045 46.3109 13.8643 46.1077 14.0848C45.9045 14.3052 45.6568 14.4813 45.3803 14.6018C45.1038 14.7224 44.8048 14.7846 44.5024 14.7846C44.2001 14.7846 43.901 14.7224 43.6246 14.6018C43.3481 14.4813 43.1003 14.3052 42.8972 14.0848C42.694 13.8643 42.5399 13.6045 42.4448 13.322C42.3497 13.0395 42.3157 12.7405 42.345 12.4443ZM45.7312 12.4443C45.7312 11.4682 45.2857 10.8974 44.5039 10.8974C43.7192 10.8974 43.2777 11.4682 43.2777 12.4443C43.2777 13.4282 43.7192 13.9946 44.5039 13.9946C45.2857 13.9946 45.7312 13.4243 45.7312 12.4443H45.7312Z" fill="white"/>
<path d="M52.3952 14.6977H51.4586L50.5131 11.3813H50.4417L49.5002 14.6977H48.5725L47.3115 10.1948H48.2273L49.0468 13.6308H49.1142L50.0548 10.1948H50.9209L51.8615 13.6308H51.9329L52.7484 10.1948H53.6513L52.3952 14.6977Z" fill="white"/>
<path d="M54.7119 10.1947H55.581V10.9101H55.6485C55.7629 10.6532 55.956 10.4378 56.2007 10.294C56.4454 10.1502 56.7296 10.0851 57.0137 10.1078C57.2363 10.0914 57.4598 10.1244 57.6676 10.2045C57.8755 10.2846 58.0624 10.4097 58.2144 10.5705C58.3665 10.7314 58.4799 10.9238 58.5461 11.1337C58.6124 11.3435 58.6298 11.5653 58.5971 11.7826V14.6976H57.6943V12.0058C57.6943 11.2822 57.3748 10.9223 56.7071 10.9223C56.556 10.9154 56.4051 10.9407 56.2648 10.9965C56.1246 11.0523 55.9983 11.1374 55.8945 11.2457C55.7907 11.3541 55.712 11.4833 55.6637 11.6244C55.6155 11.7656 55.5987 11.9153 55.6148 12.0634V14.6977H54.7119L54.7119 10.1947Z" fill="white"/>
<path d="M60.036 8.43701H60.9389V14.6977H60.036V8.43701Z" fill="white"/>
<path d="M62.1937 12.4444C62.1649 12.1484 62.1993 11.8498 62.2947 11.5678C62.39 11.2857 62.5442 11.0263 62.7474 10.8063C62.9506 10.5864 63.1982 10.4106 63.4744 10.2903C63.7506 10.17 64.0493 10.1079 64.3513 10.1079C64.6533 10.1079 64.952 10.17 65.2282 10.2903C65.5044 10.4106 65.7521 10.5864 65.9552 10.8063C66.1584 11.0263 66.3126 11.2857 66.4079 11.5678C66.5033 11.8498 66.5377 12.1484 66.5089 12.4444C66.5382 12.7406 66.5042 13.0396 66.4091 13.3221C66.314 13.6046 66.1599 13.8644 65.9567 14.0848C65.7535 14.3053 65.5057 14.4814 65.2292 14.6019C64.9527 14.7224 64.6537 14.7847 64.3513 14.7847C64.0489 14.7847 63.7499 14.7224 63.4734 14.6019C63.1969 14.4814 62.9491 14.3053 62.7459 14.0848C62.5427 13.8644 62.3886 13.6046 62.2935 13.3221C62.1984 13.0396 62.1644 12.7406 62.1937 12.4444ZM65.5798 12.4444C65.5798 11.4683 65.1343 10.8975 64.3525 10.8975C63.5678 10.8975 63.1263 11.4683 63.1263 12.4444C63.1263 13.4283 63.5678 13.9947 64.3525 13.9947C65.1343 13.9947 65.5798 13.4243 65.5798 12.4444H65.5798Z" fill="white"/>
<path d="M67.4595 13.4243C67.4595 12.6138 68.0726 12.1465 69.161 12.0801L70.4002 12.0098V11.6211C70.4002 11.1455 70.0807 10.8769 69.4636 10.8769C68.9596 10.8769 68.6104 11.0591 68.5101 11.3774H67.6361C67.7283 10.604 68.4675 10.1079 69.5053 10.1079C70.6522 10.1079 71.299 10.6699 71.299 11.6211V14.6977H70.4299V14.0649H70.3585C70.2135 14.2919 70.0099 14.477 69.7685 14.6012C69.5271 14.7254 69.2565 14.7843 68.9844 14.7719C68.7923 14.7916 68.5982 14.7714 68.4146 14.7127C68.2309 14.654 68.0618 14.5581 67.9182 14.4311C67.7745 14.3042 67.6594 14.149 67.5804 13.9756C67.5014 13.8021 67.4602 13.6144 67.4595 13.4243ZM70.4002 13.0395V12.6631L69.283 12.7334C68.653 12.7749 68.3673 12.9858 68.3673 13.3828C68.3673 13.7881 68.7244 14.0239 69.2156 14.0239C69.3595 14.0382 69.5049 14.0239 69.643 13.9818C69.7812 13.9398 69.9094 13.8707 70.0199 13.7789C70.1304 13.6871 70.221 13.5743 70.2864 13.4472C70.3517 13.3202 70.3904 13.1816 70.4002 13.0395Z" fill="white"/>
<path d="M72.4855 12.4443C72.4855 11.0215 73.2286 10.1201 74.3844 10.1201C74.6703 10.1072 74.9541 10.1746 75.2025 10.3145C75.4509 10.4544 75.6538 10.661 75.7873 10.9101H75.8548V8.43701H76.7576V14.6977H75.8925V13.9863H75.821C75.6772 14.2338 75.4673 14.4378 75.214 14.5763C74.9608 14.7148 74.6739 14.7824 74.3844 14.7719C73.2207 14.772 72.4855 13.8706 72.4855 12.4443ZM73.4181 12.4443C73.4181 13.3994 73.8755 13.9741 74.6404 13.9741C75.4014 13.9741 75.8717 13.3911 75.8717 12.4482C75.8717 11.5098 75.3964 10.9185 74.6404 10.9185C73.8804 10.9185 73.4181 11.4971 73.4181 12.4443H73.4181Z" fill="white"/>
<path d="M80.493 12.4443C80.4642 12.1484 80.4986 11.8498 80.594 11.5677C80.6893 11.2857 80.8435 11.0263 81.0466 10.8063C81.2497 10.5864 81.4973 10.4106 81.7735 10.2903C82.0497 10.17 82.3484 10.1079 82.6504 10.1079C82.9524 10.1079 83.2511 10.17 83.5273 10.2903C83.8034 10.4106 84.051 10.5864 84.2542 10.8063C84.4573 11.0263 84.6115 11.2857 84.7068 11.5677C84.8021 11.8498 84.8365 12.1484 84.8078 12.4443C84.8371 12.7405 84.8031 13.0395 84.708 13.322C84.6129 13.6045 84.4588 13.8643 84.2557 14.0848C84.0525 14.3052 83.8047 14.4813 83.5282 14.6018C83.2518 14.7224 82.9528 14.7846 82.6504 14.7846C82.348 14.7846 82.049 14.7224 81.7725 14.6018C81.4961 14.4813 81.2483 14.3052 81.0451 14.0848C80.8419 13.8643 80.6878 13.6045 80.5927 13.322C80.4977 13.0395 80.4637 12.7405 80.493 12.4443ZM83.8791 12.4443C83.8791 11.4682 83.4337 10.8974 82.6519 10.8974C81.8671 10.8974 81.4256 11.4682 81.4256 12.4443C81.4256 13.4282 81.8671 13.9946 82.6519 13.9946C83.4337 13.9946 83.8791 13.4243 83.8791 12.4443Z" fill="white"/>
<path d="M86.0195 10.1947H86.8886V10.9101H86.9561C87.0706 10.6532 87.2636 10.4378 87.5083 10.294C87.753 10.1502 88.0372 10.0851 88.3213 10.1078C88.5439 10.0914 88.7674 10.1244 88.9752 10.2045C89.1831 10.2846 89.37 10.4097 89.5221 10.5705C89.6741 10.7314 89.7875 10.9238 89.8537 11.1337C89.92 11.3435 89.9374 11.5653 89.9047 11.7826V14.6976H89.0019V12.0058C89.0019 11.2822 88.6824 10.9223 88.0147 10.9223C87.8636 10.9154 87.7127 10.9407 87.5725 10.9965C87.4322 11.0523 87.3059 11.1374 87.2021 11.2457C87.0984 11.3541 87.0196 11.4833 86.9714 11.6244C86.9231 11.7656 86.9064 11.9153 86.9224 12.0634V14.6977H86.0195V10.1947Z" fill="white"/>
<path d="M95.0062 9.07373V10.2153H95.9973V10.9639H95.0062V13.2793C95.0062 13.751 95.2036 13.9575 95.6531 13.9575C95.7681 13.9571 95.8831 13.9503 95.9973 13.937V14.6772C95.8352 14.7058 95.6709 14.721 95.5062 14.7226C94.5022 14.7226 94.1023 14.375 94.1023 13.5068V10.9638H93.3761V10.2153H94.1023V9.07373H95.0062Z" fill="white"/>
<path d="M97.2303 8.43701H98.1253V10.9185H98.1967C98.3167 10.6591 98.515 10.4425 98.7646 10.2982C99.0143 10.1538 99.303 10.0888 99.5916 10.1118C99.813 10.1 100.034 10.1363 100.24 10.2184C100.445 10.3004 100.63 10.4261 100.78 10.5864C100.931 10.7468 101.044 10.9378 101.11 11.146C101.177 11.3541 101.197 11.5742 101.167 11.7905V14.6977H100.263V12.0097C100.263 11.2905 99.923 10.9263 99.2851 10.9263C99.1299 10.9137 98.9738 10.9347 98.8278 10.9878C98.6817 11.0408 98.5492 11.1247 98.4395 11.2334C98.3297 11.3421 98.2455 11.4732 98.1926 11.6173C98.1397 11.7614 98.1194 11.9152 98.1332 12.0678V14.6977H97.2304L97.2303 8.43701Z" fill="white"/>
<path d="M106.431 13.4819C106.309 13.8934 106.043 14.2494 105.681 14.4875C105.318 14.7257 104.882 14.8308 104.449 14.7846C104.148 14.7924 103.848 14.7356 103.571 14.6181C103.295 14.5006 103.047 14.3251 102.846 14.104C102.645 13.8829 102.495 13.6213 102.407 13.3375C102.319 13.0537 102.295 12.7544 102.336 12.4604C102.296 12.1655 102.32 11.8656 102.408 11.5809C102.496 11.2962 102.645 11.0335 102.845 10.8104C103.045 10.5873 103.292 10.4092 103.568 10.2879C103.844 10.1667 104.143 10.1053 104.445 10.1079C105.718 10.1079 106.486 10.9639 106.486 12.3779V12.6879H103.256V12.7377C103.241 12.903 103.263 13.0693 103.318 13.2261C103.373 13.3828 103.46 13.5265 103.575 13.648C103.69 13.7694 103.829 13.866 103.984 13.9314C104.139 13.9968 104.305 14.0296 104.474 14.0277C104.69 14.0533 104.909 14.015 105.103 13.9178C105.296 13.8206 105.456 13.6688 105.562 13.4818L106.431 13.4819ZM103.256 12.0307H105.566C105.578 11.8796 105.557 11.7278 105.505 11.5851C105.453 11.4423 105.372 11.3119 105.266 11.202C105.16 11.0922 105.031 11.0053 104.889 10.9472C104.747 10.889 104.594 10.8607 104.44 10.8642C104.284 10.8623 104.129 10.8911 103.984 10.9491C103.84 11.007 103.708 11.0929 103.598 11.2016C103.488 11.3103 103.4 11.4397 103.342 11.5821C103.283 11.7245 103.254 11.877 103.256 12.0307H103.256Z" fill="white"/>
</svg>
