<svg width="60" height="60" viewBox="0 0 60 60" fill="none" xmlns="http://www.w3.org/2000/svg">
<path fill-rule="evenodd" clip-rule="evenodd" d="M58 30C58 45.464 45.464 58 30 58C14.536 58 2 45.464 2 30C2 14.536 14.536 2 30 2C45.464 2 58 14.536 58 30ZM60 30C60 46.5685 46.5685 60 30 60C13.4315 60 0 46.5685 0 30C0 13.4315 13.4315 0 30 0C46.5685 0 60 13.4315 60 30ZM29 15C29 14.4477 29.4477 14 30 14C30.5523 14 31 14.4477 31 15V29H45C45.5523 29 46 29.4477 46 30C46 30.5523 45.5523 31 45 31H31V45C31 45.5523 30.5523 46 30 46C29.4477 46 29 45.5523 29 45V31H15C14.4477 31 14 30.5523 14 30C14 29.4477 14.4477 29 15 29H29V15Z" fill="#C3B399"/>
</svg>
