<svg width="60" height="60" viewBox="0 0 60 60" fill="none" xmlns="http://www.w3.org/2000/svg">
<path d="M0 36.5241C0.000361766 37.5133 0.246876 38.486 0.716151 39.3499C1.18543 40.2137 1.86189 40.9402 2.68136 41.4602C2.04633 42.028 1.63316 42.8129 1.51836 43.6695C1.28576 45.4608 2.43584 47.7431 4.99444 48.5591C5.70506 51.2647 7.26301 53.655 9.42789 55.3612C11.5928 57.0674 14.2443 57.9947 16.9733 58H43.0504C45.9321 57.9885 48.7204 56.9494 50.9385 55.0603C53.1565 53.1712 54.6665 50.5495 55.2102 47.6435C57.6008 46.7678 58.402 45.3745 58.6087 44.8969C58.849 44.5636 59.0014 44.1723 59.0512 43.7609C59.101 43.3494 59.0465 42.9317 58.893 42.5483C58.6293 41.9826 58.1971 41.5178 57.659 41.2214C58.5516 40.5578 59.2362 39.6411 59.6288 38.5837C60.0213 37.5263 60.1047 36.3743 59.8687 35.2689C59.6327 34.1636 59.0875 33.153 58.3002 32.3613C57.5128 31.5695 56.5175 31.031 55.4363 30.8118V28.5229C56.4397 28.374 57.3739 27.9106 58.1112 27.196C58.4256 26.8554 58.6328 26.4253 58.7057 25.962C58.9185 25.5931 59.043 25.1776 59.0688 24.7497C59.0946 24.3218 59.0211 23.8936 58.8543 23.5006C58.1565 21.9349 56.0243 21.3709 55.417 21.2449C55.169 16.328 53.0947 11.6958 49.6212 8.30182C46.1476 4.90786 41.5391 3.01039 36.7443 3H23.2471C18.4364 3.01346 13.815 4.92639 10.3402 8.34258C6.86531 11.7588 4.8032 16.4165 4.58093 21.351C2.17093 21.8088 1.72512 23.4011 1.64758 23.9451C1.44083 25.3715 2.33892 26.8245 3.88959 27.7732V30.9976C2.75854 31.3832 1.7743 32.1245 1.07623 33.1163C0.37816 34.1082 0.00164554 35.3004 0 36.5241ZM23.26 5.01689H36.7702C41.0429 5.02744 45.1512 6.70944 48.2589 9.72054C51.3665 12.7316 53.24 16.8455 53.498 21.225H6.52572C6.78365 16.8467 8.65622 12.7337 11.7625 9.7228C14.8688 6.71187 18.9754 5.02913 23.2471 5.01689H23.26ZM5.99591 23.2153H55.0357C55.7659 23.3679 56.8772 23.8191 57.1162 24.3565C57.1162 24.4294 57.2519 24.6683 56.9418 25.199C56.8517 25.3606 56.8049 25.5437 56.8061 25.7298C56.7479 25.8492 56.0501 27.0567 50.9911 26.8378C48.6651 26.7382 46.9335 26.5525 45.5444 26.3999C42.6304 26.0881 40.873 25.9023 37.7329 26.8776C31.9179 28.6888 28.3061 27.7732 24.4618 26.8046C22.7227 26.3229 20.952 25.9704 19.1637 25.7497C18.6403 25.6966 18.1299 25.6701 17.6259 25.6701C15.8178 25.7191 14.0182 25.9412 12.2503 26.3335C9.90488 26.7847 7.88256 27.1695 5.99591 26.579C4.10927 25.9885 3.45023 24.8474 3.54069 24.2437C3.63114 23.6399 4.60677 23.2153 5.99591 23.2153ZM54.3509 40.3522H5.66639C4.70366 40.3111 3.79367 39.8894 3.12664 39.1754C2.45961 38.4614 2.08717 37.5102 2.08717 36.5208C2.08717 35.5314 2.45961 34.5802 3.12664 33.8662C3.79367 33.1522 4.70366 32.7305 5.66639 32.6894H8.14746L30.658 39.3239C30.7458 39.3372 30.8351 39.3372 30.9229 39.3239C31.0789 39.3246 31.2328 39.2863 31.3713 39.2123C31.5097 39.1383 31.6286 39.0309 31.7176 38.8993L33.9467 35.582L45.9773 38.3752C46.0367 38.414 46.0994 38.4473 46.1646 38.4747C46.3229 38.475 46.4789 38.4351 46.6186 38.3588C46.7584 38.2824 46.8776 38.1718 46.9658 38.0368L50.429 32.7292H54.3056C54.8087 32.7077 55.3108 32.7909 55.7818 32.9737C56.2527 33.1566 56.6828 33.4353 57.0462 33.7932C57.4095 34.1511 57.6986 34.5808 57.8961 35.0564C58.0936 35.5319 58.1955 36.0436 58.1955 36.5606C58.1955 37.0776 58.0936 37.5893 57.8961 38.0649C57.6986 38.5404 57.4095 38.9701 57.0462 39.328C56.6828 39.6859 56.2527 39.9647 55.7818 40.1475C55.3108 40.3304 54.8087 40.4135 54.3056 40.392L54.3509 40.3522ZM55.0487 42.3426C55.8305 42.4819 56.987 42.9131 57.1421 43.3444C57.2067 43.4837 57.0645 43.7358 56.9741 43.8685C56.9347 43.9297 56.9001 43.9941 56.8707 44.0609C56.8707 44.0609 55.7335 46.6152 49.5761 46.3764C47.1532 46.2835 45.5314 46.111 44.2263 45.9783C41.924 45.5966 39.5675 45.7531 37.3323 46.4361C31.6401 48.0018 28.8553 47.3118 25.6312 46.5157C23.9541 46.0626 22.2455 45.7432 20.5205 45.5603C20.0747 45.5205 19.6224 45.5006 19.1701 45.5006C17.0478 45.5684 14.9355 45.8281 12.8576 46.2768C10.1569 46.7744 7.61119 47.2388 5.75039 46.7214C4.09634 46.2636 3.34039 44.9499 3.46962 43.9415C3.59884 42.9331 4.55508 42.3559 6.05406 42.3559H55.0487V42.3426ZM16.9733 56.0097C14.8214 56.0052 12.7227 55.3218 10.9615 54.0521C9.2003 52.7824 7.86158 50.9876 7.12661 48.9107C9.16838 48.9134 11.2045 48.691 13.2001 48.2473L14.6538 47.9885L16.9475 53.9596C16.9935 54.0858 17.0641 54.2011 17.1551 54.2983C17.246 54.3955 17.3554 54.4725 17.4764 54.5247C17.5974 54.5769 17.7276 54.6032 17.8589 54.6018C17.9901 54.6005 18.1197 54.5716 18.2397 54.5169L30.1798 49.3552C30.5223 49.3552 30.8712 49.3884 31.2395 49.3884C33.4763 49.3515 35.6986 49.0124 37.8492 48.38C40.5629 47.6303 41.5837 47.7165 44.0389 47.9885C45.3764 48.1279 47.0304 48.3004 49.518 48.3932C50.7292 48.4515 51.9431 48.3893 53.1426 48.2075C52.5194 50.4605 51.1987 52.4438 49.3801 53.8575C47.5616 55.2711 45.3442 56.0383 43.0633 56.0428L16.9733 56.0097ZM20.3202 47.5308C21.9605 47.6956 23.5853 47.9951 25.179 48.4264L26.4712 48.7382L18.3819 52.2545L16.618 47.6634C17.8439 47.4832 19.0851 47.4387 20.3202 47.5308ZM30.0119 32.6894H33.559L30.5223 37.2141L15.1513 32.6894H30.0119ZM48.103 32.6894L45.7317 36.3317L35.1226 33.877L35.9238 32.6894H48.103ZM53.5045 30.699H5.82792V28.5694C8.04408 29.1466 10.2732 28.7352 12.625 28.2841C14.7095 27.7868 16.8531 27.6013 18.9892 27.7334C20.6886 27.9399 22.3709 28.2748 24.0224 28.7352C26.4435 29.4446 28.9422 29.8369 31.4592 29.9029C33.7883 29.8852 36.1015 29.5072 38.3209 28.7817C41.0862 27.9192 42.5141 28.0718 45.3699 28.3836C46.7849 28.5362 48.5488 28.722 50.9329 28.8281C51.7938 28.8751 52.6565 28.8751 53.5174 28.8281L53.5045 30.699Z" fill="#C3B399"/>
<path d="M18.9122 9.6916C19.0679 9.7817 19.2439 9.82908 19.4229 9.82911C19.6133 9.82884 19.8003 9.77714 19.9647 9.67925C20.1292 9.58137 20.2653 9.44079 20.3593 9.27181C20.8878 8.46935 21.6805 7.88653 22.5938 7.62887C22.858 7.55096 23.0824 7.37167 23.2199 7.1286C23.3574 6.88553 23.3973 6.59758 23.3313 6.32514C23.2652 6.05271 23.0983 5.81696 22.8656 5.66735C22.6329 5.51775 22.3524 5.46591 22.083 5.52272C20.5962 5.92953 19.3144 6.89357 18.4937 8.22236C18.4261 8.34676 18.3834 8.48356 18.3679 8.62488C18.3524 8.76621 18.3644 8.90926 18.4033 9.04582C18.4422 9.18238 18.5072 9.30974 18.5945 9.42056C18.6819 9.53139 18.7898 9.6235 18.9122 9.6916Z" fill="#C3B399"/>
<path d="M44.7543 11.5877C44.7071 11.7231 44.6865 11.8668 44.6938 12.0103C44.7011 12.1539 44.736 12.2945 44.7966 12.4243C44.8572 12.5541 44.9423 12.6703 45.0471 12.7665C45.1518 12.8626 45.2741 12.9367 45.4069 12.9846C46.1581 13.2333 46.8329 13.6773 47.3648 14.2729C47.4124 14.5194 47.5424 14.7415 47.7325 14.9012C47.9227 15.0609 48.1612 15.1484 48.4075 15.1486H48.6132C48.7508 15.121 48.8817 15.0658 48.9983 14.9864C49.115 14.9069 49.215 14.8047 49.2928 14.6857C49.3706 14.5666 49.4246 14.4331 49.4516 14.2927C49.4786 14.1523 49.4782 14.0078 49.4503 13.8676C49.1311 12.2463 46.854 11.2403 46.166 10.9725C46.0339 10.9163 45.8922 10.8877 45.7491 10.8883C45.606 10.8889 45.4645 10.9188 45.3329 10.9761C45.2013 11.0335 45.0823 11.1172 44.983 11.2222C44.8836 11.3272 44.8059 11.4515 44.7543 11.5877Z" fill="#C3B399"/>
<path d="M27.9637 15.7277C28.0797 15.7298 28.1951 15.7102 28.3042 15.6698C28.5255 15.5908 28.715 15.4394 28.8433 15.2391C28.9716 15.0389 29.0314 14.801 29.0136 14.5625C29.4297 13.895 29.9333 13.2887 30.5103 12.7603C30.6702 12.5584 30.7539 12.3046 30.7462 12.0451C30.7385 11.7856 30.64 11.5376 30.4684 11.3459C30.2968 11.1542 30.0636 11.0315 29.811 11.0002C29.5584 10.9689 29.3032 11.031 29.0916 11.1752C26.5308 13.6288 26.8571 14.6131 26.9635 14.9895C27.0334 15.2039 27.1675 15.3906 27.347 15.5231C27.5265 15.6555 27.7422 15.7271 27.9637 15.7277Z" fill="#C3B399"/>
<path d="M34.8379 6.95577C35.1977 7.06465 35.5449 7.21266 35.8736 7.39727C35.9255 7.56753 36.0172 7.72237 36.1408 7.84845C36.2643 7.97453 36.4161 8.06808 36.583 8.12103C36.6735 8.14372 36.7663 8.15586 36.8596 8.15722C37.0944 8.15583 37.3223 8.07574 37.5082 7.92927C37.694 7.7828 37.8275 7.57808 37.8882 7.34661C38.0797 6.62284 37.8031 5.5951 35.4196 4.8641C35.1522 4.78914 34.8666 4.8237 34.6237 4.96041C34.3809 5.09713 34.2 5.32519 34.1195 5.59602C34.039 5.86685 34.0654 6.15902 34.193 6.41031C34.3205 6.66159 34.5392 6.85212 34.8025 6.9413L34.8379 6.95577Z" fill="#C3B399"/>
<path d="M17.5786 17.5806H17.7417C17.9915 17.5731 18.2308 17.4762 18.4175 17.3068C18.6043 17.1374 18.7267 16.9064 18.7632 16.6542C18.7933 16.3677 18.7121 16.0807 18.537 15.8547C18.3619 15.6286 18.107 15.4817 17.8269 15.4455C16.8692 15.3297 16.699 14.7217 16.6706 14.5408C16.6562 14.3982 16.6143 14.2599 16.5475 14.1338C16.4807 14.0078 16.3902 13.8964 16.2812 13.806C16.1722 13.7156 16.0468 13.648 15.9122 13.607C15.7776 13.5661 15.6363 13.5526 15.4966 13.5673C15.3569 13.582 15.2214 13.6247 15.0978 13.6929C14.9742 13.761 14.865 13.8534 14.7764 13.9646C14.6878 14.0758 14.6216 14.2038 14.5814 14.3411C14.5413 14.4785 14.5281 14.6226 14.5425 14.7651C14.6515 15.5202 15.0136 16.2135 15.5671 16.7268C16.1207 17.2401 16.8315 17.5418 17.5786 17.5806Z" fill="#C3B399"/>
<path d="M41.2427 18.1596H41.42C41.6733 18.1603 41.9187 18.07 42.1132 17.9046C42.3078 17.7392 42.4391 17.5091 42.484 17.2549C42.5095 17.1154 42.5073 16.9723 42.4777 16.8337C42.4481 16.6951 42.3917 16.564 42.3117 16.448C42.2318 16.3321 42.1299 16.2336 42.0121 16.1583C41.8943 16.0831 41.7629 16.0327 41.6257 16.01C41.0472 15.6624 40.5195 15.2336 40.058 14.7362C39.9588 14.6354 39.8411 14.5556 39.7117 14.5012C39.5823 14.4469 39.4436 14.4191 39.3036 14.4194C39.1636 14.4198 39.0251 14.4482 38.8959 14.5032C38.7667 14.5582 38.6494 14.6386 38.5507 14.7398C38.4519 14.841 38.3737 14.9611 38.3204 15.0932C38.2672 15.2252 38.2399 15.3667 38.2402 15.5095C38.2406 15.6523 38.2685 15.7937 38.3223 15.9255C38.3762 16.0573 38.455 16.177 38.5542 16.2778C39.1784 16.9219 40.356 18.0076 41.2427 18.1596Z" fill="#C3B399"/>
<path d="M43.9885 8.6927C44.359 8.51188 44.7841 8.48591 45.1731 8.62033C45.3442 8.7269 45.5402 8.78441 45.7406 8.78679C45.9215 8.78755 46.0994 8.74064 46.2572 8.65061C46.4151 8.56058 46.5474 8.43048 46.6415 8.27292C46.7903 8.02867 46.8388 7.73442 46.7764 7.45397C46.714 7.17351 46.5457 6.92946 46.3081 6.77473C45.8175 6.51606 45.2752 6.37568 44.723 6.36439C44.1709 6.35309 43.6235 6.47119 43.1231 6.70959C42.9937 6.76742 42.877 6.85111 42.7799 6.95574C42.6827 7.06036 42.6071 7.18379 42.5575 7.31874C42.5079 7.45368 42.4854 7.5974 42.4911 7.74139C42.4969 7.88539 42.5309 8.02675 42.5911 8.15712C42.7099 8.41435 42.9224 8.61419 43.1833 8.71419C43.4442 8.8142 43.7331 8.80649 43.9885 8.6927Z" fill="#C3B399"/>
</svg>
