<svg width="692" height="632" viewBox="0 0 692 632" fill="none" xmlns="http://www.w3.org/2000/svg">
<path d="M13.696 25C17.792 25 19.904 22.44 19.904 19.208C19.904 16.552 18.112 14.344 15.808 13.992C17.824 13.576 19.488 11.752 19.488 9.096C19.488 6.248 17.408 3.656 13.344 3.656H2.112V25H13.696ZM12.352 12.136H6.656V7.656H12.352C13.888 7.656 14.848 8.584 14.848 9.896C14.848 11.272 13.888 12.136 12.352 12.136ZM12.544 21H6.656V16.136H12.544C14.304 16.136 15.264 17.224 15.264 18.568C15.264 20.104 14.24 21 12.544 21ZM29.8988 25.384C32.2987 25.384 34.7308 24.648 36.2668 23.24L34.4427 20.552C33.4508 21.512 31.6588 22.056 30.3468 22.056C27.7228 22.056 26.1867 20.488 25.8987 18.6H37.3868V17.64C37.3868 12.616 34.2828 9.16 29.6427 9.16C24.9707 9.16 21.6427 12.776 21.6427 17.256C21.6427 22.216 25.1947 25.384 29.8988 25.384ZM33.4827 15.784H25.8667C26.0268 14.248 27.1147 12.488 29.6427 12.488C32.3308 12.488 33.3548 14.312 33.4827 15.784ZM56.173 25.384C60.141 25.384 63.021 22.408 63.021 17.256C63.021 12.104 60.141 9.16 56.173 9.16C54.285 9.16 52.589 9.992 51.405 11.496V9.544H47.341V30.888H51.405V23.016C52.685 24.616 54.349 25.384 56.173 25.384ZM54.893 21.768C53.581 21.768 52.077 20.968 51.405 19.976V14.536C52.109 13.512 53.581 12.776 54.893 12.776C57.229 12.776 58.829 14.6 58.829 17.256C58.829 19.944 57.229 21.768 54.893 21.768ZM78.7732 25V15.016C78.7732 10.568 75.5412 9.16 71.9892 9.16C69.5572 9.16 67.1252 9.896 65.2372 11.592L66.8372 14.44C68.1172 13.256 69.6532 12.616 71.2852 12.616C73.3332 12.616 74.6772 13.64 74.6772 15.208V17.16C73.6532 15.944 71.8612 15.272 69.7812 15.272C67.3172 15.272 64.4372 16.616 64.4372 20.264C64.4372 23.72 67.3172 25.384 69.7812 25.384C71.7972 25.384 73.6212 24.648 74.6772 23.368V25H78.7732ZM71.4132 22.632C69.8132 22.632 68.5012 21.8 68.5012 20.328C68.5012 18.856 69.8132 17.992 71.4132 17.992C72.7252 17.992 74.0052 18.472 74.6772 19.368V21.288C74.0052 22.184 72.7252 22.632 71.4132 22.632ZM86.2363 25V14.792C86.9083 13.8 88.7003 13.032 90.0443 13.032C90.5243 13.032 90.8763 13.064 91.1643 13.128V9.16C89.2443 9.16 87.3563 10.28 86.2363 11.624V9.544H82.1723V25H86.2363ZM98.2875 25.384C99.9835 25.384 101.072 24.936 101.68 24.392L100.816 21.288C100.592 21.544 100.016 21.768 99.4075 21.768C98.5115 21.768 97.9995 21.032 97.9995 20.04V13.096H101.136V9.544H97.9995V5.32H93.9355V9.544H91.3755V13.096H93.9355V21.128C93.9355 23.912 95.4395 25.384 98.2875 25.384ZM118.103 25.384C123.223 25.384 126.295 21.64 126.295 17.256C126.295 12.872 123.223 9.16 118.103 9.16C113.015 9.16 109.943 12.872 109.943 17.256C109.943 21.64 113.015 25.384 118.103 25.384ZM118.103 21.768C115.575 21.768 114.167 19.688 114.167 17.256C114.167 14.856 115.575 12.776 118.103 12.776C120.663 12.776 122.071 14.856 122.071 17.256C122.071 19.688 120.663 21.768 118.103 21.768ZM133.733 25V13.096H136.869V9.544H133.733V8.904C133.733 7.4 134.501 6.664 135.653 6.664C136.389 6.664 136.933 6.888 137.349 7.272L138.885 4.808C137.957 3.752 136.357 3.336 134.853 3.336C131.749 3.336 129.669 5.416 129.669 8.904V9.544H127.109V13.096H129.669V25H133.733ZM151.412 25.384C153.108 25.384 154.196 24.936 154.804 24.392L153.94 21.288C153.716 21.544 153.14 21.768 152.532 21.768C151.636 21.768 151.124 21.032 151.124 20.04V13.096H154.26V9.544H151.124V5.32H147.06V9.544H144.5V13.096H147.06V21.128C147.06 23.912 148.564 25.384 151.412 25.384ZM170.969 25V14.024C170.969 11.016 169.337 9.16 165.945 9.16C163.417 9.16 161.529 10.376 160.537 11.528V3.656H156.441V25H160.537V14.568C161.209 13.672 162.457 12.776 164.057 12.776C165.785 12.776 166.905 13.448 166.905 15.592V25H170.969ZM181.667 25.384C184.067 25.384 186.499 24.648 188.035 23.24L186.211 20.552C185.219 21.512 183.427 22.056 182.115 22.056C179.491 22.056 177.955 20.488 177.667 18.6H189.155V17.64C189.155 12.616 186.051 9.16 181.411 9.16C176.739 9.16 173.411 12.776 173.411 17.256C173.411 22.216 176.963 25.384 181.667 25.384ZM185.251 15.784H177.635C177.795 14.248 178.883 12.488 181.411 12.488C184.099 12.488 185.123 14.312 185.251 15.784ZM206.31 25.384C209.478 25.384 211.398 23.976 212.422 22.568L209.766 20.072C209.03 21.128 207.91 21.768 206.502 21.768C204.038 21.768 202.31 19.944 202.31 17.256C202.31 14.568 204.038 12.776 206.502 12.776C207.91 12.776 209.03 13.352 209.766 14.44L212.422 11.944C211.398 10.536 209.478 9.16 206.31 9.16C201.574 9.16 198.118 12.52 198.118 17.256C198.118 22.024 201.574 25.384 206.31 25.384ZM221.646 25.384C226.766 25.384 229.838 21.64 229.838 17.256C229.838 12.872 226.766 9.16 221.646 9.16C216.558 9.16 213.486 12.872 213.486 17.256C213.486 21.64 216.558 25.384 221.646 25.384ZM221.646 21.768C219.118 21.768 217.71 19.688 217.71 17.256C217.71 14.856 219.118 12.776 221.646 12.776C224.206 12.776 225.614 14.856 225.614 17.256C225.614 19.688 224.206 21.768 221.646 21.768ZM255.549 25V13.832C255.549 10.664 253.853 9.16 251.005 9.16C248.637 9.16 246.589 10.568 245.693 11.944C245.149 10.216 243.677 9.16 241.405 9.16C239.037 9.16 237.021 10.632 236.349 11.528V9.544H232.285V25H236.349V14.568C236.957 13.736 238.141 12.776 239.549 12.776C241.213 12.776 241.853 13.8 241.853 15.24V25H245.949V14.568C246.525 13.736 247.709 12.776 249.149 12.776C250.813 12.776 251.453 13.8 251.453 15.24V25H255.549ZM282.23 25V13.832C282.23 10.664 280.534 9.16 277.686 9.16C275.318 9.16 273.27 10.568 272.374 11.944C271.83 10.216 270.358 9.16 268.086 9.16C265.718 9.16 263.702 10.632 263.03 11.528V9.544H258.966V25H263.03V14.568C263.638 13.736 264.822 12.776 266.23 12.776C267.894 12.776 268.534 13.8 268.534 15.24V25H272.63V14.568C273.206 13.736 274.39 12.776 275.83 12.776C277.494 12.776 278.134 13.8 278.134 15.24V25H282.23ZM300.143 25V9.544H296.079V20.008C295.375 20.904 294.127 21.768 292.559 21.768C290.831 21.768 289.711 21.064 289.711 18.92V9.544H285.647V20.52C285.647 23.528 287.247 25.384 290.639 25.384C293.167 25.384 295.023 24.2 296.079 23.048V25H300.143ZM318.107 25V14.088C318.107 11.08 316.475 9.16 313.051 9.16C310.555 9.16 308.635 10.376 307.643 11.528V9.544H303.579V25H307.643V14.568C308.347 13.672 309.562 12.776 311.163 12.776C312.891 12.776 314.011 13.512 314.011 15.656V25H318.107ZM323.526 7.88C324.87 7.88 325.958 6.792 325.958 5.448C325.958 4.104 324.87 3.048 323.526 3.048C322.214 3.048 321.126 4.104 321.126 5.448C321.126 6.792 322.214 7.88 323.526 7.88ZM325.574 25V9.544H321.51V25H325.574ZM334.187 25.384C335.883 25.384 336.971 24.936 337.579 24.392L336.715 21.288C336.491 21.544 335.915 21.768 335.307 21.768C334.411 21.768 333.899 21.032 333.899 20.04V13.096H337.035V9.544H333.899V5.32H329.835V9.544H327.275V13.096H329.835V21.128C329.835 23.912 331.339 25.384 334.187 25.384ZM338.704 31.016C339.184 31.176 340.24 31.272 340.688 31.272C343.344 31.208 345.392 30.44 346.544 27.528L353.808 9.544H349.456L345.392 20.296L341.36 9.544H337.008L343.28 25.192L342.704 26.536C342.32 27.368 341.616 27.656 340.56 27.656C340.176 27.656 339.632 27.56 339.28 27.4L338.704 31.016Z" fill="#333333"/>
<path d="M5.88 72.24C9.48 72.24 10.8 70.24 10.8 68.32C10.8 63.34 2.9 65.06 2.9 62.06C2.9 60.8 4.06 59.94 5.64 59.94C7.1 59.94 8.5 60.42 9.5 61.54L10.5 60.32C9.38 59.14 7.8 58.44 5.78 58.44C3.14 58.44 1.18 59.96 1.18 62.16C1.18 66.92 9.08 65 9.08 68.44C9.08 69.48 8.32 70.76 5.94 70.76C4.06 70.76 2.62 69.84 1.76 68.84L0.76 70.12C1.86 71.36 3.58 72.24 5.88 72.24ZM20.6588 72V65.18C20.6588 63.08 19.5988 62.1 17.5787 62.1C16.1187 62.1 14.7987 62.92 14.1387 63.74V58.66H12.6387V72H14.1387V64.94C14.6987 64.16 15.8187 63.44 16.9787 63.44C18.2988 63.44 19.1587 63.92 19.1587 65.64V72H20.6588ZM30.5939 72V65.36C30.5939 63.02 28.9139 62.1 26.8539 62.1C25.2739 62.1 24.0339 62.62 22.9939 63.7L23.6939 64.74C24.5539 63.8 25.4939 63.4 26.6539 63.4C28.0539 63.4 29.0939 64.14 29.0939 65.42V67.16C28.3139 66.28 27.2139 65.86 25.8939 65.86C24.2539 65.86 22.5339 66.86 22.5339 69.04C22.5339 71.14 24.2739 72.24 25.8939 72.24C27.1939 72.24 28.3139 71.78 29.0939 70.9V72H30.5939ZM26.4539 71.16C25.0339 71.16 24.0539 70.28 24.0539 69.04C24.0539 67.82 25.0339 66.94 26.4539 66.94C27.4939 66.94 28.5139 67.34 29.0939 68.12V69.96C28.5139 70.76 27.4939 71.16 26.4539 71.16ZM34.5203 72V65.16C34.9603 64.38 36.2203 63.62 37.1603 63.62C37.3803 63.62 37.5603 63.64 37.7403 63.66V62.12C36.4203 62.12 35.3003 62.88 34.5203 63.88V62.34H33.0203V72H34.5203ZM43.4019 72.24C44.9619 72.24 46.2619 71.7 47.2419 70.74L46.5219 69.76C45.7419 70.56 44.6419 71 43.5219 71C41.4419 71 40.1819 69.48 40.0619 67.66H47.8619V67.28C47.8619 64.38 46.1419 62.1 43.2219 62.1C40.4619 62.1 38.4619 64.36 38.4619 67.16C38.4619 70.18 40.5219 72.24 43.4019 72.24ZM46.3819 66.54H40.0419C40.1219 65.08 41.1419 63.34 43.2019 63.34C45.4019 63.34 46.3619 65.12 46.3819 66.54ZM61.8072 72V65.36C61.8072 63.02 60.1272 62.1 58.0672 62.1C56.4872 62.1 55.2472 62.62 54.2072 63.7L54.9072 64.74C55.7672 63.8 56.7072 63.4 57.8672 63.4C59.2672 63.4 60.3072 64.14 60.3072 65.42V67.16C59.5272 66.28 58.4272 65.86 57.1072 65.86C55.4672 65.86 53.7472 66.86 53.7472 69.04C53.7472 71.14 55.4872 72.24 57.1072 72.24C58.4072 72.24 59.5272 71.78 60.3072 70.9V72H61.8072ZM57.6672 71.16C56.2472 71.16 55.2672 70.28 55.2672 69.04C55.2672 67.82 56.2472 66.94 57.6672 66.94C58.7072 66.94 59.7272 67.34 60.3072 68.12V69.96C59.7272 70.76 58.7072 71.16 57.6672 71.16ZM72.7336 72V58.66H71.2336V63.8C70.4536 62.74 69.2736 62.1 67.9736 62.1C65.4536 62.1 63.6736 64.08 63.6736 67.18C63.6736 70.32 65.4536 72.24 67.9736 72.24C69.3336 72.24 70.5136 71.54 71.2336 70.56V72H72.7336ZM68.3536 70.9C66.3936 70.9 65.2336 69.32 65.2336 67.18C65.2336 65.04 66.3936 63.44 68.3536 63.44C69.5336 63.44 70.7136 64.16 71.2336 65V69.36C70.7136 70.2 69.5336 70.9 68.3536 70.9ZM79.3575 72L83.3775 62.34H81.7575L78.5375 70.26L75.3375 62.34H73.6975L77.7175 72H79.3575ZM85.1022 60.96C85.6622 60.96 86.1022 60.52 86.1022 59.96C86.1022 59.4 85.6622 58.94 85.1022 58.94C84.5422 58.94 84.0822 59.4 84.0822 59.96C84.0822 60.52 84.5422 60.96 85.1022 60.96ZM85.8422 72V62.34H84.3422V72H85.8422ZM92.4944 72.24C94.2544 72.24 95.2944 71.52 96.0344 70.56L95.0344 69.64C94.3944 70.5 93.5744 70.9 92.5744 70.9C90.5344 70.9 89.2344 69.3 89.2344 67.16C89.2344 65.02 90.5344 63.44 92.5744 63.44C93.5744 63.44 94.3944 63.8 95.0344 64.68L96.0344 63.78C95.2944 62.82 94.2544 62.1 92.4944 62.1C89.6144 62.1 87.6744 64.3 87.6744 67.16C87.6744 70.02 89.6144 72.24 92.4944 72.24ZM101.936 72.24C103.496 72.24 104.796 71.7 105.776 70.74L105.056 69.76C104.276 70.56 103.176 71 102.056 71C99.9763 71 98.7163 69.48 98.5963 67.66H106.396V67.28C106.396 64.38 104.676 62.1 101.756 62.1C98.9963 62.1 96.9963 64.36 96.9963 67.16C96.9963 70.18 99.0563 72.24 101.936 72.24ZM104.916 66.54H98.5763C98.6563 65.08 99.6763 63.34 101.736 63.34C103.936 63.34 104.896 65.12 104.916 66.54ZM122.682 72L125.762 62.34H124.182L121.822 70.04L119.302 62.34H118.002L115.462 70.04L113.102 62.34H111.542L114.622 72H116.122L118.642 64.24L121.162 72H122.682ZM127.649 60.96C128.209 60.96 128.649 60.52 128.649 59.96C128.649 59.4 128.209 58.94 127.649 58.94C127.089 58.94 126.629 59.4 126.629 59.96C126.629 60.52 127.089 60.96 127.649 60.96ZM128.389 72V62.34H126.889V72H128.389ZM133.241 72.24C134.101 72.24 134.641 71.98 135.021 71.62L134.581 70.48C134.381 70.7 134.001 70.9 133.561 70.9C132.921 70.9 132.601 70.38 132.601 69.66V63.66H134.561V62.34H132.601V59.7H131.081V62.34H129.481V63.66H131.081V69.98C131.081 71.42 131.801 72.24 133.241 72.24ZM144.1 72V65.18C144.1 63.08 143.04 62.1 141.02 62.1C139.56 62.1 138.24 62.92 137.58 63.74V58.66H136.08V72H137.58V64.94C138.14 64.16 139.26 63.44 140.42 63.44C141.74 63.44 142.6 63.92 142.6 65.64V72H144.1ZM155.831 72.24C158.371 72.24 160.131 70.28 160.131 67.16C160.131 64.02 158.371 62.1 155.831 62.1C154.471 62.1 153.271 62.8 152.571 63.78V62.34H151.071V75.68H152.571V70.54C153.371 71.6 154.511 72.24 155.831 72.24ZM155.451 70.9C154.271 70.9 153.091 70.18 152.571 69.34V64.98C153.091 64.14 154.271 63.44 155.451 63.44C157.391 63.44 158.551 65.02 158.551 67.16C158.551 69.3 157.391 70.9 155.451 70.9ZM166.296 72.24C167.856 72.24 169.156 71.7 170.136 70.74L169.416 69.76C168.636 70.56 167.536 71 166.416 71C164.336 71 163.076 69.48 162.956 67.66H170.756V67.28C170.756 64.38 169.036 62.1 166.116 62.1C163.356 62.1 161.356 64.36 161.356 67.16C161.356 70.18 163.416 72.24 166.296 72.24ZM169.276 66.54H162.936C163.016 65.08 164.036 63.34 166.096 63.34C168.296 63.34 169.256 65.12 169.276 66.54ZM176.806 72.24C179.746 72.24 181.586 69.96 181.586 67.16C181.586 64.36 179.746 62.1 176.806 62.1C173.866 62.1 172.026 64.36 172.026 67.16C172.026 69.96 173.866 72.24 176.806 72.24ZM176.806 70.9C174.746 70.9 173.606 69.14 173.606 67.16C173.606 65.2 174.746 63.44 176.806 63.44C178.866 63.44 180.006 65.2 180.006 67.16C180.006 69.14 178.866 70.9 176.806 70.9ZM188.191 72.24C190.731 72.24 192.491 70.28 192.491 67.16C192.491 64.02 190.731 62.1 188.191 62.1C186.831 62.1 185.631 62.8 184.931 63.78V62.34H183.431V75.68H184.931V70.54C185.731 71.6 186.871 72.24 188.191 72.24ZM187.811 70.9C186.631 70.9 185.451 70.18 184.931 69.34V64.98C185.451 64.14 186.631 63.44 187.811 63.44C189.751 63.44 190.911 65.02 190.911 67.16C190.911 69.3 189.751 70.9 187.811 70.9ZM195.777 72V58.66H194.277V72H195.777ZM202.549 72.24C204.109 72.24 205.409 71.7 206.389 70.74L205.669 69.76C204.889 70.56 203.789 71 202.669 71C200.589 71 199.329 69.48 199.209 67.66H207.009V67.28C207.009 64.38 205.289 62.1 202.369 62.1C199.609 62.1 197.609 64.36 197.609 67.16C197.609 70.18 199.669 72.24 202.549 72.24ZM205.529 66.54H199.189C199.269 65.08 200.289 63.34 202.349 63.34C204.549 63.34 205.509 65.12 205.529 66.54ZM214.914 72V58.66H213.414V72H214.914ZM218.066 60.96C218.626 60.96 219.066 60.52 219.066 59.96C219.066 59.4 218.626 58.94 218.066 58.94C217.506 58.94 217.046 59.4 217.046 59.96C217.046 60.52 217.506 60.96 218.066 60.96ZM218.806 72V62.34H217.306V72H218.806ZM229.698 72L225.398 66.72L229.678 62.34H227.778L222.698 67.48V58.66H221.198V72H222.698V69.24L224.318 67.66L227.778 72H229.698ZM235.193 72.24C236.753 72.24 238.053 71.7 239.033 70.74L238.313 69.76C237.533 70.56 236.433 71 235.313 71C233.233 71 231.973 69.48 231.853 67.66H239.653V67.28C239.653 64.38 237.933 62.1 235.013 62.1C232.253 62.1 230.253 64.36 230.253 67.16C230.253 70.18 232.313 72.24 235.193 72.24ZM238.173 66.54H231.833C231.913 65.08 232.933 63.34 234.993 63.34C237.193 63.34 238.153 65.12 238.173 66.54ZM245.539 75.78C245.799 75.86 246.299 75.92 246.619 75.92C247.899 75.9 248.879 75.36 249.459 73.96L254.299 62.34H252.679L249.459 70.26L246.259 62.34H244.619L248.659 72.1L248.019 73.56C247.679 74.36 247.239 74.58 246.579 74.58C246.339 74.58 245.979 74.52 245.759 74.42L245.539 75.78ZM259.483 72.24C262.423 72.24 264.263 69.96 264.263 67.16C264.263 64.36 262.423 62.1 259.483 62.1C256.543 62.1 254.703 64.36 254.703 67.16C254.703 69.96 256.543 72.24 259.483 72.24ZM259.483 70.9C257.423 70.9 256.283 69.14 256.283 67.16C256.283 65.2 257.423 63.44 259.483 63.44C261.543 63.44 262.683 65.2 262.683 67.16C262.683 69.14 261.543 70.9 259.483 70.9ZM274.129 72V62.34H272.629V69.44C272.069 70.22 270.949 70.9 269.789 70.9C268.469 70.9 267.609 70.4 267.609 68.7V62.34H266.109V69.16C266.109 71.24 267.169 72.24 269.189 72.24C270.629 72.24 271.889 71.48 272.629 70.64V72H274.129Z" fill="#333333"/>
<path d="M606.068 469.12H429.686V573.24H606.068V469.12Z" fill="#F2EEE8"/>
<path d="M601.867 568.333H433.723V474.602H601.867V568.333ZM434.801 566.929H600.743V476.006H434.801V566.929Z" fill="#C3B399"/>
<path d="M649.156 469.12H606.07V573.24H649.156V469.12Z" fill="#F2EEE8"/>
<g opacity="0.2">
<path opacity="0.2" d="M649.156 469.12H606.07V573.24H649.156V469.12Z" fill="#C0B49C"/>
</g>
<path d="M434.269 505.399H601.318C601.605 505.399 601.605 503.818 601.318 503.818H434.269C433.982 503.818 433.982 505.399 434.269 505.399Z" fill="#C3B399"/>
<path d="M523.953 475.183V505C523.953 505.366 522.587 505.36 522.587 505V475.268L523.953 475.183Z" fill="#C3B399"/>
<path d="M434.269 537.275H601.318C601.605 537.275 601.605 535.7 601.318 535.7H434.269C433.982 535.7 433.982 537.275 434.269 537.275Z" fill="#C3B399"/>
<path d="M565.622 489.184C565.622 490.791 564.492 492.097 563.1 492.097C561.709 492.097 560.578 490.791 560.578 489.184C560.578 487.576 561.709 486.27 563.1 486.27C564.492 486.27 565.622 487.576 565.622 489.184Z" fill="#C3B399"/>
<path d="M480.598 489.184C480.598 490.791 479.47 492.097 478.078 492.097C476.686 492.097 475.556 490.791 475.556 489.184C475.556 487.576 476.686 486.27 478.078 486.27C479.47 486.27 480.598 487.576 480.598 489.184Z" fill="#C3B399"/>
<path d="M526.468 521.464C526.468 523.078 525.338 524.378 523.946 524.378C522.554 524.378 521.424 523.071 521.424 521.464C521.372 521.102 521.398 520.734 521.496 520.383C521.6 520.033 521.777 519.708 522.019 519.432C522.254 519.156 522.554 518.935 522.888 518.782C523.214 518.631 523.58 518.552 523.946 518.552C524.312 518.552 524.671 518.631 525.004 518.782C525.338 518.935 525.632 519.156 525.867 519.432C526.108 519.708 526.285 520.033 526.389 520.383C526.494 520.734 526.52 521.102 526.468 521.464Z" fill="#C3B399"/>
<path d="M446.317 573.24L436.255 629.824H441.913L460.468 573.24H446.317Z" fill="#F2EEE8"/>
<path d="M487.373 573.24L477.312 629.824H482.976L501.524 573.24H487.373Z" fill="#F2EEE8"/>
<path d="M591.095 573.24L599.51 629.922H593.852L576.951 573.24H591.095Z" fill="#F2EEE8"/>
<path d="M636.952 573.24L646.483 629.922H640.826L622.801 573.24H636.952Z" fill="#F2EEE8"/>
<path d="M526.298 550.936C526.298 552.543 525.167 553.849 523.776 553.849C522.384 553.849 521.254 552.543 521.254 550.936C521.254 549.328 522.384 548.022 523.776 548.022C525.167 548.022 526.298 549.328 526.298 550.936Z" fill="#C3B399"/>
<path opacity="0.2" d="M444.485 583.17L449.941 584.745L439.389 629.824L441.865 629.837L460.707 573.299H446.576L444.485 583.17Z" fill="#C0B49C"/>
<path opacity="0.2" d="M483.538 596.668L488.301 600.222L480.637 629.824L482.917 629.837L501.759 573.299H487.628L483.538 596.668Z" fill="#C0B49C"/>
<path opacity="0.2" d="M629.601 594.63L636.369 596.185L644.098 629.922L646.463 629.837L637.042 573.299H622.911L629.601 594.63Z" fill="#C0B49C"/>
<path opacity="0.2" d="M579.714 582.511L587.913 584.065L597.255 629.922L599.353 629.837L591.278 573.299H577.14L579.714 582.511Z" fill="#C0B49C"/>
<path d="M311.787 122.703C314.26 125.979 317.623 128.474 321.476 129.889C334.627 134.737 346.158 126.368 349.379 116.235C351.136 115.745 352.792 114.944 354.266 113.87C352.763 113.969 351.254 113.839 349.791 113.485C351.602 113.15 353.229 112.165 354.364 110.714C352.668 111.029 350.932 111.048 349.229 110.773C348.58 109.243 347.443 107.97 345.998 107.151C344.551 106.331 342.875 106.011 341.229 106.241C339.583 106.469 338.058 107.235 336.89 108.418C335.723 109.601 334.978 111.137 334.771 112.786C332.007 111.606 329.522 109.857 327.477 107.655C325.431 105.452 323.872 102.844 322.9 100C321.416 101.224 320.455 102.968 320.212 104.876C319.97 106.785 320.463 108.713 321.593 110.27C320.479 109.821 319.489 109.111 318.706 108.199C318.073 109.845 318.036 111.66 318.601 113.33C319.164 115 320.295 116.421 321.796 117.346C320.64 117.248 319.522 116.886 318.529 116.287C318.461 117.862 318.887 119.418 319.748 120.737C320.61 122.057 321.863 123.073 323.331 123.644C319.511 124.871 315.359 124.532 311.787 122.703Z" fill="#C3B399"/>
<path d="M183.271 380.523C185.743 383.799 189.107 386.294 192.959 387.71C206.111 392.557 217.642 384.188 220.863 374.055C222.619 373.565 224.275 372.764 225.749 371.69C224.247 371.789 222.738 371.659 221.274 371.305C223.085 370.97 224.712 369.985 225.847 368.535C224.151 368.849 222.415 368.869 220.712 368.594C220.063 367.064 218.927 365.79 217.481 364.971C216.035 364.152 214.359 363.832 212.712 364.061C211.066 364.29 209.541 365.055 208.374 366.238C207.206 367.422 206.461 368.957 206.254 370.606C203.49 369.426 201.005 367.678 198.96 365.475C196.914 363.272 195.356 360.664 194.384 357.82C192.9 359.045 191.939 360.788 191.696 362.697C191.453 364.605 191.947 366.534 193.077 368.091C191.962 367.641 190.973 366.931 190.189 366.02C189.557 367.665 189.52 369.48 190.084 371.151C190.648 372.821 191.779 374.241 193.279 375.166C192.124 375.069 191.006 374.707 190.013 374.108C189.944 375.682 190.37 377.238 191.231 378.557C192.093 379.877 193.346 380.894 194.815 381.464C190.994 382.691 186.842 382.353 183.271 380.523Z" fill="#C3B399"/>
<path d="M568.678 381.568L565.052 377.394V367.398C565.046 365.062 564.203 362.805 562.681 361.033C561.158 359.262 559.055 358.092 556.748 357.735V353.541H554.135V357.683C551.75 357.966 549.562 359.111 547.968 360.903C546.374 362.695 545.492 365.007 545.492 367.404V376.917L541.833 381.575H551.803C552.038 382.205 552.43 382.769 552.933 383.214C553.436 383.66 554.044 383.975 554.703 384.133C555.357 384.29 556.043 384.284 556.696 384.116C557.343 383.949 557.95 383.623 558.447 383.169C558.917 382.727 559.283 382.182 559.512 381.575L568.678 381.568Z" fill="#C3B399"/>
<path d="M118.173 195.078L114.017 190.289V178.81C114.021 176.126 113.061 173.529 111.313 171.492C109.566 169.454 107.146 168.11 104.492 167.704V162.889H101.467V167.704C98.7395 168.02 96.2223 169.325 94.391 171.371C92.5604 173.418 91.5425 176.064 91.5301 178.81V189.727L87.3358 195.078H98.7755C99.0479 195.802 99.4935 196.449 100.074 196.961C100.654 197.473 101.351 197.834 102.103 198.015C102.856 198.194 103.641 198.187 104.391 197.993C105.139 197.798 105.829 197.423 106.4 196.901C106.944 196.398 107.361 195.773 107.615 195.078H118.173Z" fill="#C3B399"/>
<path d="M471.075 378.341L431.36 378.55C430.88 378.553 430.406 378.65 429.963 378.835C429.521 379.022 429.12 379.293 428.783 379.634C428.446 379.975 428.179 380.379 427.998 380.823C427.817 381.266 427.724 381.742 427.727 382.222L427.877 411.085C427.88 411.565 427.977 412.039 428.163 412.482C428.349 412.924 428.62 413.325 428.961 413.662C429.302 413.999 429.706 414.266 430.15 414.447C430.594 414.629 431.069 414.72 431.549 414.718L446.007 414.646C447.477 416.671 449.849 419.873 451.142 421.676C451.241 421.812 451.372 421.92 451.524 421.992C451.675 422.064 451.843 422.097 452.01 422.088C452.177 422.079 452.34 422.028 452.483 421.94C452.626 421.852 452.744 421.73 452.828 421.584L456.846 414.587L471.264 414.509C471.744 414.507 472.219 414.411 472.661 414.225C473.104 414.04 473.505 413.769 473.843 413.428C474.18 413.086 474.447 412.682 474.628 412.237C474.809 411.793 474.9 411.317 474.897 410.837L474.747 381.993C474.747 381.512 474.651 381.035 474.467 380.591C474.282 380.147 474.011 379.743 473.67 379.404C473.329 379.064 472.924 378.796 472.478 378.613C472.033 378.431 471.556 378.338 471.075 378.341Z" fill="#73C1BA"/>
<path d="M447.774 402.834C447.851 403.572 447.775 404.318 447.551 405.025C447.325 405.732 446.957 406.386 446.467 406.944C447.507 406.847 448.488 406.421 449.269 405.73C450.05 405.038 450.591 404.115 450.812 403.095C450.812 403.095 460.2 404.219 461.324 397.902C462.507 391.212 455.634 389.284 452.707 389.291C447.585 389.291 443.384 392.08 443.149 396.882C442.913 401.684 447.774 402.834 447.774 402.834Z" fill="#F2EEE8"/>
<path d="M451.266 148.405H407.291C406.218 148.405 405.19 148.831 404.431 149.589C403.673 150.348 403.247 151.376 403.247 152.449V184.409C403.247 185.482 403.673 186.51 404.431 187.269C405.19 188.027 406.218 188.453 407.291 188.453H423.304C424.917 190.707 427.517 194.3 428.942 196.293C429.051 196.443 429.196 196.564 429.363 196.645C429.53 196.725 429.715 196.762 429.901 196.753C430.086 196.744 430.267 196.689 430.425 196.592C430.584 196.496 430.717 196.362 430.81 196.202L435.299 188.479H451.266C452.338 188.479 453.367 188.053 454.125 187.295C454.884 186.536 455.31 185.508 455.31 184.435V152.449C455.31 151.376 454.884 150.348 454.125 149.589C453.367 148.831 452.338 148.405 451.266 148.405Z" fill="#73C1BA"/>
<path d="M427.192 177.105H430.53V168.749H432.843L433.091 165.953H430.517V164.359C430.517 163.705 430.648 163.438 431.288 163.438H433.091V160.517H430.778C428.296 160.517 427.178 161.615 427.178 163.705V165.94H425.441V168.769H427.178L427.192 177.105Z" fill="#F2EEE8"/>
<path d="M239.808 135.142H181.741C180.323 135.142 178.964 135.705 177.962 136.708C176.959 137.71 176.397 139.069 176.397 140.486V182.691C176.397 184.109 176.959 185.467 177.962 186.47C178.964 187.472 180.323 188.035 181.741 188.035H202.87C204.999 191.014 208.436 195.757 210.317 198.358C210.462 198.556 210.653 198.716 210.875 198.821C211.096 198.927 211.341 198.976 211.586 198.964C211.831 198.951 212.069 198.878 212.279 198.751C212.488 198.623 212.663 198.446 212.787 198.233L218.706 188.035H239.795C240.496 188.035 241.191 187.897 241.839 187.628C242.487 187.36 243.076 186.966 243.571 186.47C244.067 185.973 244.461 185.384 244.729 184.736C244.996 184.087 245.134 183.393 245.133 182.691V140.486C245.134 139.072 244.574 137.714 243.576 136.713C242.578 135.711 241.223 135.145 239.808 135.142Z" fill="#73C1BA"/>
<path fill-rule="evenodd" clip-rule="evenodd" d="M224.025 160.785C223.909 157.432 222.504 154.254 220.102 151.912C217.701 149.57 214.488 148.246 211.133 148.215C207.779 148.183 204.541 149.448 202.097 151.744C199.652 154.042 198.188 157.193 198.01 160.543C198.01 160.733 198.01 160.922 198.01 161.112C198.006 163.464 198.65 165.772 199.872 167.782L197.526 174.714L204.713 172.421C206.689 173.507 208.913 174.063 211.167 174.032C213.422 174.002 215.63 173.387 217.577 172.247C219.522 171.107 221.138 169.482 222.268 167.53C223.397 165.578 224 163.366 224.018 161.112C224.031 161.001 224.031 160.89 224.025 160.785ZM211.017 171.97C208.876 171.977 206.781 171.352 204.994 170.173L200.786 171.513L202.152 167.482C200.799 165.633 200.068 163.402 200.068 161.112C200.068 160.76 200.087 160.409 200.126 160.06C200.416 157.355 201.701 154.856 203.733 153.047C205.765 151.238 208.396 150.25 211.116 150.276C213.836 150.301 216.448 151.337 218.446 153.184C220.443 155.029 221.682 157.553 221.921 160.262C221.921 160.543 221.96 160.824 221.96 161.112C221.947 164.002 220.786 166.768 218.735 168.804C216.683 170.84 213.907 171.978 211.017 171.97Z" fill="#F2EEE8"/>
<path fill-rule="evenodd" clip-rule="evenodd" d="M216.981 163.718C216.655 163.562 215.093 162.791 214.799 162.693C214.505 162.595 214.29 162.529 214.081 162.849C213.872 163.17 213.251 163.875 213.068 164.084C212.885 164.293 212.696 164.326 212.376 164.163C211.433 163.798 210.563 163.267 209.808 162.595C209.111 161.957 208.512 161.219 208.031 160.406C207.848 160.086 208.031 159.916 208.175 159.753C208.318 159.589 208.488 159.38 208.658 159.197L208.769 159.047C208.846 158.926 208.914 158.8 208.972 158.668C209.019 158.583 209.044 158.488 209.044 158.391C209.044 158.293 209.019 158.198 208.972 158.113C208.893 157.956 208.253 156.395 207.985 155.761C207.717 155.127 207.456 155.238 207.267 155.238C207.077 155.238 206.875 155.206 206.659 155.206C206.497 155.209 206.337 155.247 206.189 155.315C206.042 155.384 205.911 155.482 205.803 155.604C205.448 155.94 205.167 156.346 204.976 156.795C204.785 157.245 204.689 157.729 204.692 158.217C204.698 158.585 204.753 158.95 204.856 159.302C205.107 160.091 205.491 160.832 205.993 161.491C206.149 161.7 208.201 165.005 211.441 166.279C214.682 167.553 214.708 167.116 215.276 167.063C215.845 167.011 217.164 166.299 217.426 165.561C217.637 165.088 217.703 164.562 217.615 164.052C217.511 163.96 217.295 163.875 216.981 163.718Z" fill="#F2EEE8"/>
<path d="M114.726 271H70.2484C69.1639 271 68.1237 271.432 67.3568 272.199C66.5898 272.966 66.1586 274.006 66.1586 275.09V307.416C66.1586 308.502 66.5898 309.542 67.3568 310.309C68.1237 311.076 69.1639 311.506 70.2484 311.506H86.4442C88.0775 313.786 90.7104 317.425 92.1477 319.411C92.2581 319.565 92.4044 319.688 92.5743 319.77C92.7442 319.852 92.9317 319.89 93.1198 319.881C93.308 319.872 93.4916 319.816 93.6523 319.718C93.8137 319.62 93.9476 319.483 94.0423 319.32L98.5764 311.48H114.726C115.811 311.48 116.852 311.05 117.619 310.283C118.386 309.516 118.816 308.476 118.816 307.39V275.09C118.816 274.006 118.386 272.966 117.619 272.199C116.852 271.432 115.811 271 114.726 271Z" fill="#73C1BA"/>
<path d="M92.4613 283.479C95.153 283.479 95.4731 283.479 96.5315 283.538C97.1711 283.546 97.8054 283.664 98.4065 283.884C98.8396 284.054 99.2329 284.311 99.5609 284.641C99.8895 284.97 100.146 285.364 100.314 285.798C100.539 286.398 100.656 287.033 100.66 287.673C100.713 288.732 100.719 289.052 100.719 291.743C100.719 294.435 100.719 294.749 100.66 295.814C100.655 296.452 100.538 297.084 100.314 297.682C100.155 298.12 99.898 298.515 99.5629 298.838C99.2388 299.174 98.8436 299.434 98.4065 299.596C97.8054 299.817 97.1711 299.934 96.5315 299.943C95.4731 299.988 95.153 300.001 92.4613 300.001C89.7696 300.001 89.456 300.001 88.3911 299.943C87.7528 299.935 87.121 299.817 86.5226 299.596C86.0829 299.434 85.6857 299.174 85.3597 298.838C85.033 298.523 84.7809 298.139 84.6215 297.715C84.4 297.116 84.283 296.484 84.2752 295.846C84.2229 294.781 84.2164 294.461 84.2164 291.776C84.2164 289.091 84.2164 288.764 84.2752 287.706C84.2824 287.066 84.4 286.432 84.6215 285.831C84.7822 285.394 85.0389 284.999 85.3728 284.674C85.6988 284.339 86.096 284.08 86.5357 283.917C87.1341 283.696 87.7659 283.579 88.4042 283.57C89.4691 283.525 89.7827 283.511 92.4744 283.511L92.4613 283.479ZM92.4744 281.702C89.7369 281.702 89.3972 281.702 88.3192 281.761C87.4843 281.775 86.6578 281.932 85.8758 282.224C85.2055 282.482 84.5979 282.878 84.0922 283.387C83.5774 283.891 83.1802 284.503 82.9293 285.177C82.6366 285.96 82.4779 286.786 82.4589 287.621C82.4132 288.692 82.4001 289.039 82.4001 291.776C82.4001 294.513 82.4001 294.853 82.4589 295.925C82.4772 296.762 82.6366 297.59 82.9293 298.375C83.1815 299.047 83.5787 299.656 84.0922 300.158C84.596 300.67 85.2042 301.066 85.8758 301.321C86.6578 301.613 87.4836 301.772 88.3192 301.791C89.3972 301.837 89.7369 301.85 92.4744 301.85C95.2118 301.85 95.5515 301.85 96.6295 301.791C97.4644 301.772 98.2902 301.613 99.0729 301.321C99.7412 301.062 100.349 300.665 100.856 300.158C101.363 299.651 101.759 299.044 102.019 298.375C102.311 297.59 102.471 296.762 102.49 295.925C102.535 294.853 102.549 294.507 102.549 291.776C102.549 289.045 102.549 288.692 102.49 287.621C102.47 286.786 102.311 285.96 102.019 285.177C101.768 284.503 101.371 283.891 100.856 283.387C100.353 282.876 99.7439 282.479 99.0729 282.224C98.2902 281.932 97.4644 281.775 96.6295 281.761C95.5515 281.708 95.2118 281.702 92.4744 281.702Z" fill="#F2EEE8"/>
<path d="M92.4588 286.569C91.4357 286.569 90.4348 286.873 89.5842 287.441C88.7336 288.01 88.0698 288.818 87.6784 289.764C87.2871 290.709 87.1845 291.749 87.3838 292.753C87.5837 293.757 88.0763 294.679 88.8002 295.402C89.5234 296.126 90.4459 296.619 91.4494 296.818C92.4529 297.018 93.4936 296.916 94.439 296.524C95.3843 296.132 96.1925 295.469 96.7609 294.619C97.3299 293.767 97.6331 292.767 97.6331 291.743C97.6331 290.371 97.0882 289.055 96.1174 288.085C95.1472 287.114 93.8314 286.569 92.4588 286.569ZM92.4588 295.101C91.795 295.101 91.1456 294.905 90.5936 294.536C90.0409 294.166 89.6103 293.642 89.3562 293.028C89.102 292.415 89.036 291.74 89.1654 291.089C89.2948 290.437 89.6149 289.839 90.0846 289.369C90.5537 288.899 91.1521 288.58 91.8035 288.45C92.4549 288.32 93.1304 288.387 93.7439 288.641C94.3573 288.895 94.882 289.326 95.2511 289.878C95.6202 290.43 95.8169 291.079 95.8169 291.743C95.8169 292.634 95.4634 293.488 94.8336 294.118C94.2038 294.748 93.3493 295.101 92.4588 295.101Z" fill="#F2EEE8"/>
<path d="M99.0732 286.36C99.0732 286.598 99.0019 286.832 98.8693 287.031C98.7367 287.23 98.5479 287.385 98.3271 287.476C98.1063 287.568 97.8632 287.591 97.6287 287.545C97.3941 287.499 97.1785 287.383 97.01 287.214C96.8408 287.045 96.7258 286.83 96.6788 286.595C96.6324 286.361 96.6565 286.118 96.748 285.897C96.8395 285.676 96.9943 285.488 97.1929 285.354C97.3915 285.222 97.6254 285.151 97.8645 285.151C98.0233 285.151 98.1801 285.182 98.3271 285.243C98.4734 285.303 98.6067 285.393 98.719 285.505C98.8314 285.617 98.9203 285.75 98.981 285.897C99.0418 286.044 99.0732 286.201 99.0732 286.36Z" fill="#F2EEE8"/>
<path d="M549.785 245.148H497.663C495.958 245.148 494.331 245.824 493.129 247.025C491.927 248.228 491.254 249.858 491.254 251.558V288.692C491.254 290.392 491.927 292.022 493.129 293.224C494.331 294.426 495.958 295.101 497.663 295.101H516.27C518.282 297.917 521.496 302.399 523.306 304.849C523.436 305.037 523.619 305.188 523.829 305.289C524.038 305.389 524.273 305.436 524.501 305.424C524.737 305.412 524.959 305.343 525.155 305.222C525.357 305.101 525.521 304.932 525.638 304.731L531.231 295.101H549.785C551.484 295.101 553.11 294.426 554.312 293.224C555.515 292.022 556.194 290.392 556.194 288.692V251.558C556.194 249.858 555.515 248.228 554.312 247.025C553.11 245.824 551.484 245.148 549.785 245.148Z" fill="#73C1BA"/>
<path d="M508.665 259.891L508.632 280.079L538.581 280.126L538.613 259.938L508.665 259.891Z" fill="#F2EEE8"/>
<path d="M523.867 272.634L508.899 260.665C508.841 260.614 508.801 260.543 508.795 260.465C508.788 260.387 508.808 260.309 508.854 260.247C508.906 260.186 508.978 260.147 509.056 260.138C509.135 260.13 509.213 260.152 509.272 260.201L523.86 271.876L537.861 260.207C537.92 260.157 537.998 260.132 538.077 260.139C538.155 260.145 538.227 260.181 538.279 260.24C538.305 260.27 538.325 260.304 538.338 260.342C538.351 260.379 538.351 260.418 538.351 260.457C538.345 260.496 538.332 260.534 538.318 260.569C538.299 260.603 538.273 260.633 538.24 260.658L523.867 272.634Z" fill="#F2EEE8"/>
<path d="M509.555 279.729C509.483 279.731 509.418 279.708 509.365 279.663C509.333 279.639 509.306 279.608 509.287 279.574C509.274 279.539 509.261 279.501 509.254 279.463C509.254 279.424 509.254 279.384 509.267 279.347C509.28 279.31 509.3 279.275 509.326 279.245L518.616 268.224C518.642 268.194 518.669 268.17 518.701 268.152C518.74 268.134 518.773 268.123 518.812 268.12C518.852 268.117 518.891 268.121 518.93 268.132C518.963 268.144 519.002 268.163 519.028 268.188C519.061 268.213 519.08 268.243 519.1 268.277C519.119 268.312 519.132 268.349 519.132 268.388C519.139 268.426 519.132 268.465 519.119 268.502C519.106 268.539 519.093 268.573 519.067 268.603L509.777 279.624C509.751 279.658 509.711 279.684 509.679 279.702C509.64 279.72 509.594 279.729 509.555 279.729Z" fill="#F2EEE8"/>
<path d="M537.757 279.729C537.711 279.729 537.672 279.72 537.633 279.702C537.593 279.684 537.561 279.658 537.534 279.624L528.225 268.603C528.199 268.573 528.179 268.539 528.166 268.502C528.153 268.465 528.153 268.426 528.153 268.388C528.159 268.349 528.166 268.312 528.185 268.277C528.205 268.243 528.231 268.213 528.257 268.188C528.29 268.163 528.323 268.144 528.362 268.132C528.395 268.121 528.434 268.117 528.473 268.12C528.512 268.123 528.551 268.134 528.584 268.152C528.617 268.17 528.649 268.194 528.675 268.224L537.966 279.245C538.011 279.306 538.038 279.384 538.031 279.462C538.024 279.541 537.985 279.612 537.926 279.663C537.874 279.703 537.815 279.726 537.757 279.729Z" fill="#F2EEE8"/>
<path d="M242.356 149.371C248.415 149.371 253.326 144.46 253.326 138.402C253.326 132.344 248.415 127.433 242.356 127.433C236.299 127.433 231.387 132.344 231.387 138.402C231.387 144.46 236.299 149.371 242.356 149.371Z" fill="#73C1BA"/>
<path d="M463.683 148.287C463.696 150.226 463.133 152.126 462.066 153.745C460.999 155.364 459.475 156.631 457.688 157.383C455.901 158.136 453.931 158.342 452.026 157.974C450.122 157.607 448.369 156.683 446.991 155.319C445.612 153.954 444.67 152.212 444.282 150.312C443.894 148.412 444.078 146.439 444.812 144.645C445.546 142.849 446.796 141.312 448.403 140.228C450.011 139.143 451.905 138.56 453.844 138.552C456.439 138.542 458.932 139.561 460.776 141.386C462.62 143.211 463.666 145.693 463.683 148.287Z" fill="#73C1BA"/>
<path d="M483.662 380.621C483.675 382.56 483.113 384.46 482.042 386.079C480.977 387.699 479.454 388.965 477.666 389.717C475.879 390.471 473.909 390.676 472.004 390.309C470.101 389.942 468.348 389.017 466.969 387.653C465.591 386.289 464.648 384.546 464.26 382.646C463.872 380.747 464.057 378.774 464.79 376.979C465.524 375.184 466.774 373.646 468.382 372.562C469.989 371.477 471.883 370.895 473.823 370.887C476.417 370.876 478.91 371.895 480.755 373.72C482.597 375.545 483.643 378.027 483.662 380.621Z" fill="#73C1BA"/>
<path d="M558.448 260.012C564.504 260.012 569.417 255.101 569.417 249.042C569.417 242.984 564.504 238.073 558.448 238.073C552.392 238.073 547.479 242.984 547.479 249.042C547.479 255.101 552.392 260.012 558.448 260.012Z" fill="#73C1BA"/>
<g opacity="0.2">
<path opacity="0.2" d="M242.356 149.371C248.415 149.371 253.326 144.46 253.326 138.402C253.326 132.344 248.415 127.433 242.356 127.433C236.299 127.433 231.387 132.344 231.387 138.402C231.387 144.46 236.299 149.371 242.356 149.371Z" fill="#C0B49C"/>
</g>
<path d="M126.31 273.058C126.323 274.997 125.761 276.897 124.693 278.516C123.627 280.135 122.102 281.402 120.315 282.155C118.528 282.907 116.558 283.113 114.654 282.746C112.749 282.378 110.997 281.454 109.619 280.089C108.24 278.726 107.297 276.984 106.909 275.083C106.521 273.183 106.705 271.211 107.44 269.415C108.173 267.62 109.423 266.083 111.031 264.999C112.639 263.914 114.532 263.331 116.471 263.323C119.066 263.313 121.559 264.332 123.403 266.157C125.247 267.981 126.293 270.463 126.31 273.058Z" fill="#73C1BA"/>
<g opacity="0.2">
<path opacity="0.2" d="M558.448 260.012C564.504 260.012 569.417 255.101 569.417 249.042C569.417 242.984 564.504 238.073 558.448 238.073C552.392 238.073 547.479 242.984 547.479 249.042C547.479 255.101 552.392 260.012 558.448 260.012Z" fill="#C0B49C"/>
</g>
<g opacity="0.2">
<path opacity="0.2" d="M483.662 380.621C483.675 382.56 483.113 384.46 482.042 386.079C480.977 387.699 479.454 388.965 477.666 389.717C475.879 390.471 473.909 390.676 472.004 390.309C470.101 389.942 468.348 389.017 466.969 387.653C465.591 386.289 464.648 384.546 464.26 382.646C463.872 380.747 464.057 378.774 464.79 376.979C465.524 375.184 466.774 373.646 468.382 372.562C469.989 371.477 471.883 370.895 473.823 370.887C476.417 370.876 478.91 371.895 480.755 373.72C482.597 375.545 483.643 378.027 483.662 380.621Z" fill="#C0B49C"/>
</g>
<path d="M690.844 631.804H1.15312C1.01135 631.83 0.865655 631.817 0.727151 631.777C0.587994 631.745 0.459287 631.673 0.349529 631.581C0.240425 631.49 0.152233 631.372 0.0914746 631.242C0.0307157 631.111 0 630.967 0 630.824C0 630.68 0.0307157 630.536 0.0914746 630.406C0.152233 630.275 0.240425 630.157 0.349529 630.066C0.459287 629.974 0.587994 629.902 0.727151 629.87C0.865655 629.831 1.01135 629.818 1.15312 629.844H690.844C690.987 629.818 691.131 629.831 691.268 629.87C691.412 629.902 691.536 629.974 691.647 630.066C691.758 630.157 691.85 630.275 691.908 630.406C691.967 630.536 692 630.68 692 630.824C692 630.967 691.967 631.111 691.908 631.242C691.85 631.372 691.758 631.49 691.647 631.581C691.536 631.673 691.412 631.745 691.268 631.777C691.131 631.817 690.987 631.83 690.844 631.804Z" fill="#C3B399"/>
<g opacity="0.2">
<path opacity="0.2" d="M463.683 148.287C463.696 150.226 463.133 152.126 462.066 153.745C460.999 155.364 459.475 156.631 457.688 157.383C455.901 158.136 453.931 158.342 452.026 157.974C450.122 157.607 448.369 156.683 446.991 155.319C445.612 153.954 444.67 152.212 444.282 150.312C443.894 148.412 444.078 146.439 444.812 144.645C445.546 142.849 446.796 141.312 448.403 140.228C450.011 139.143 451.905 138.56 453.844 138.552C456.439 138.542 458.932 139.561 460.776 141.386C462.62 143.211 463.666 145.693 463.683 148.287Z" fill="#C0B49C"/>
</g>
<g opacity="0.2">
<path opacity="0.2" d="M126.31 273.058C126.323 274.997 125.761 276.897 124.693 278.516C123.627 280.135 122.102 281.402 120.315 282.155C118.528 282.907 116.558 283.113 114.654 282.746C112.749 282.378 110.997 281.454 109.619 280.089C108.24 278.726 107.297 276.984 106.909 275.083C106.521 273.183 106.705 271.211 107.44 269.415C108.173 267.62 109.423 266.083 111.031 264.999C112.639 263.914 114.532 263.331 116.471 263.323C119.066 263.313 121.559 264.332 123.403 266.157C125.247 267.981 126.293 270.463 126.31 273.058Z" fill="#C0B49C"/>
</g>
<path d="M68.7914 534.276C64.3782 531.511 59.3895 529.795 54.2093 529.258C51.8247 529.01 49.2245 529.082 47.3102 530.526C47.0907 530.652 46.9097 530.835 46.7856 531.056C46.6615 531.277 46.5987 531.527 46.6046 531.78C46.7065 532.139 46.9398 532.447 47.2579 532.642C53.1901 537.17 62.1668 537.745 68.7718 534.276" fill="#73C1BA"/>
<path d="M68.4174 533.864C65.1116 531.251 61.7928 528.69 58.9966 525.574C56.2003 522.457 53.9268 518.759 53.1167 514.657C52.8684 513.409 52.79 511.991 53.587 511.005C61.0937 516.884 66.9932 524.45 68.4436 533.871" fill="#73C1BA"/>
<path d="M68.715 534.217C68.1531 530.114 67.9441 525.887 68.8914 521.85C69.8387 517.812 72.0273 513.964 75.4768 511.651C76.7835 514.683 76.2151 518.185 75.3004 521.347C73.8795 526.243 71.6726 530.877 68.7672 535.066" fill="#73C1BA"/>
<path d="M76.0754 547.407C71.6066 547.95 67.7129 550.302 64.3809 553.327C61.0255 556.376 58.6892 560.383 57.6909 564.805C62.0747 564.538 65.7921 561.447 68.4838 557.978C71.1755 554.509 73.057 550.713 76.01 547.473" fill="#73C1BA"/>
<path d="M77.6685 549.511C75.9098 545.047 75.2931 540.214 75.8752 535.45C76.4566 530.688 78.2186 526.145 81.0005 522.235C83.5484 531.284 82.6142 541.515 77.6685 549.511Z" fill="#73C1BA"/>
<path d="M87.3948 561.095C83.3103 560.838 79.2407 561.79 75.6938 563.831C72.147 565.872 69.2795 568.913 67.4489 572.573C67.2882 572.798 67.1915 573.061 67.168 573.336C67.1451 573.611 67.1968 573.887 67.3183 574.135C67.4888 574.3 67.6965 574.421 67.9239 574.489C68.1513 574.558 68.3917 574.57 68.6249 574.527C72.5448 574.272 76.0401 571.914 78.9147 569.215C81.7893 566.517 84.2916 563.407 87.4667 561.082" fill="#73C1BA"/>
<path d="M87.0808 560.461C84.9888 553.722 84.8595 546.527 86.7084 539.718C87.4401 537.046 88.6683 534.237 91.1379 532.982C91.2333 532.919 91.3398 532.877 91.4522 532.857C91.5645 532.836 91.6795 532.839 91.7912 532.865C91.9898 532.97 92.1414 533.148 92.2159 533.361C93.0489 535.228 93.4082 537.273 93.2612 539.313C93.1155 541.343 92.8032 543.358 92.327 545.336C91.5495 549.021 91.1379 552.974 89.1191 556.149C88.635 556.914 88.1986 557.708 87.8125 558.527C87.4336 559.337 87.427 559.618 87.0808 560.258" fill="#73C1BA"/>
<path d="M112.827 564.27C110.92 557.018 112.945 548.224 117.518 542.279C117.851 541.841 118.296 541.371 118.825 541.423C119.661 541.495 119.883 542.619 119.844 543.462C119.505 550.919 117.073 558.13 112.827 564.27Z" fill="#73C1BA"/>
<path d="M115.142 565.883C123.955 568.177 134.088 565.949 141.399 560.546C137.004 558.338 131.981 557.722 127.183 558.801C122.44 559.886 118.095 562.009 115.142 565.883Z" fill="#73C1BA"/>
<path d="M117.102 561.055C122.035 553.007 131.475 547.754 140.929 547.277C139.838 551.112 136.689 554.091 133.135 555.894C129.581 557.697 125.609 558.507 121.695 559.239C120.173 559.533 118.089 559.893 117.122 561.055" fill="#73C1BA"/>
<path d="M113.313 537.614C114.653 533.041 115.992 528.415 116.358 523.666C116.724 518.916 116.051 513.944 113.581 509.861C108.969 518.779 108.505 529.206 113.176 538.098" fill="#73C1BA"/>
<g opacity="0.4">
<path opacity="0.4" d="M113.313 537.614C114.653 533.041 115.992 528.415 116.358 523.666C116.724 518.916 116.051 513.944 113.581 509.861C108.969 518.779 108.505 529.206 113.176 538.098" fill="#F2EEE8"/>
</g>
<path d="M128.838 529.774C134.228 519.974 145.23 512.135 156.363 511.05C152.064 521.738 140.356 529.996 128.838 529.774Z" fill="#73C1BA"/>
<g opacity="0.2">
<path opacity="0.2" d="M128.838 529.774C134.228 519.974 145.23 512.135 156.363 511.05C152.064 521.738 140.356 529.996 128.838 529.774Z" fill="#C0B49C"/>
</g>
<path d="M125.447 531.689C133.483 532.917 140.336 538.052 147.849 541.168C149.427 541.924 151.174 542.258 152.919 542.135C154.644 541.906 156.342 540.75 156.728 539.058C156.845 538.347 156.787 537.62 156.559 536.936C156.331 536.253 155.941 535.636 155.421 535.138C154.349 534.154 153.089 533.396 151.717 532.91C143.537 529.499 134.73 529.414 126.139 531.479" fill="#73C1BA"/>
<path d="M120.789 537.333C122.612 537.85 123.233 538.797 124.677 540.025C129.594 544.2 135.406 547.186 141.663 548.753C142.316 548.91 143.159 548.976 143.486 548.388C143.813 547.8 143.407 547.257 143.042 546.8C140.428 543.533 136.704 541.299 132.784 539.836C128.865 538.372 125.467 536.615 120.783 536.994" fill="#73C1BA"/>
<path d="M115.54 503.269C118.837 506.308 122.733 508.625 126.978 510.07C131.223 511.514 135.724 512.055 140.19 511.658C140.602 511.664 141.001 511.519 141.314 511.253C141.967 510.599 141.19 509.534 140.464 508.973C133.219 503.321 124.438 500.983 115.54 503.269Z" fill="#73C1BA"/>
<path d="M121.766 500.989C126.13 497.778 131.191 495.644 136.536 494.762C141.883 493.88 147.361 494.274 152.524 495.913C148.65 499.735 143.28 501.793 137.864 502.348C132.46 502.845 127.011 502.385 121.766 500.989Z" fill="#73C1BA"/>
<path d="M119.293 485.342C118.581 478.103 119.045 472.393 118.542 465.128C118.503 464.547 118.379 463.822 117.83 463.639C117.079 463.345 116.445 464.292 116.197 465.05C115.144 468.418 114.875 471.982 115.409 475.471C115.944 478.96 117.268 482.28 119.28 485.179" fill="#73C1BA"/>
<path d="M118.771 486.139C123.678 483.108 127.356 479.149 130.76 474.49C133.125 471.224 135.118 467.376 134.582 463.384C131.256 463.319 128.101 465.154 125.938 467.676C123.776 470.198 122.489 473.36 121.528 476.542C120.568 479.723 119.902 482.997 118.771 486.126" fill="#73C1BA"/>
<g opacity="0.2">
<path opacity="0.2" d="M118.771 486.139C123.678 483.108 127.356 479.149 130.76 474.49C133.125 471.224 135.118 467.376 134.582 463.384C131.256 463.319 128.101 465.154 125.938 467.676C123.776 470.198 122.489 473.36 121.528 476.542C120.568 479.723 119.902 482.997 118.771 486.126" fill="#C0B49C"/>
</g>
<path d="M130.543 482.866C141.333 478.872 151.323 472.982 160.041 465.475C156.513 464.057 152.482 464.906 148.934 466.33C140.885 469.597 134.313 475.059 130.367 482.788" fill="#73C1BA"/>
<path d="M122.084 490.098C127.527 490.693 133.06 491.078 138.463 490.177C143.768 489.288 148.786 487.184 153.751 485.094C154.182 484.97 154.552 484.69 154.79 484.31C154.865 484.08 154.869 483.832 154.803 483.6C154.737 483.366 154.602 483.159 154.417 483.003C154.033 482.706 153.586 482.498 153.111 482.395C147.714 480.886 141.893 481.592 136.588 483.382C131.532 485.109 126.671 487.363 122.084 490.105" fill="#73C1BA"/>
<path d="M90.9957 503.511C87.2783 496.011 87.52 487.263 90.7278 479.534C92.9883 482.977 93.2627 487.374 92.8511 491.457C92.4395 495.54 91.1917 499.767 91.1133 503.87" fill="#73C1BA"/>
<path d="M76.1568 496.03C71.5097 495.973 66.9018 496.886 62.6278 498.709C58.3531 500.532 54.5057 503.227 51.3306 506.621C55.9626 507.346 60.7253 506.15 64.9393 504.092C69.1532 502.034 72.8575 499.153 76.5749 496.324" fill="#73C1BA"/>
<g opacity="0.2">
<path opacity="0.2" d="M76.1568 496.03C71.5097 495.973 66.9018 496.886 62.6278 498.709C58.3531 500.532 54.5057 503.227 51.3306 506.621C55.9626 507.346 60.7253 506.15 64.9393 504.092C69.1532 502.034 72.8575 499.153 76.5749 496.324" fill="#C0B49C"/>
</g>
<path d="M66.1827 492.698C61.6421 492.326 57.278 491.764 52.9138 493.104C48.5496 494.443 44.5839 497.474 42.8069 501.675C47.0469 502.152 51.3523 501.087 55.22 499.33C59.0877 497.572 62.6483 495.122 66.1631 492.698" fill="#73C1BA"/>
<path d="M80.9507 492.849C76.874 490.176 72.6797 487.452 67.93 486.315C63.1804 485.179 57.6729 486.028 54.354 489.582C58.2021 491.842 62.8472 492.11 67.329 492.104C71.8108 492.097 77.2594 492.052 81.4603 493.541" fill="#73C1BA"/>
<path d="M80.9737 493.058C73.9962 486.204 71.3503 473.902 74.1596 464.534C79.6684 472.964 82.0772 483.047 80.9737 493.058Z" fill="#73C1BA"/>
<path d="M100.162 473.654C101.469 470.596 102.403 467.382 103.586 464.266C104.768 461.149 106.231 458.092 108.459 455.616C110.687 453.14 113.777 451.304 117.103 451.141C116.03 455.86 113.984 460.304 111.096 464.189C108.208 468.073 104.543 471.313 100.332 473.7" fill="#73C1BA"/>
<g opacity="0.2">
<path opacity="0.2" d="M100.162 473.654C101.469 470.596 102.403 467.382 103.586 464.266C104.768 461.149 106.231 458.092 108.459 455.616C110.687 453.14 113.777 451.304 117.103 451.141C116.03 455.86 113.984 460.304 111.096 464.189C108.208 468.073 104.543 471.313 100.332 473.7" fill="#C0B49C"/>
</g>
<path d="M96.6874 477.698C94.5119 474.699 91.9966 470.629 89.0436 468.395C86.0906 466.161 82.2425 464.802 78.6427 465.664C80.5079 468.935 83.1101 471.725 86.2421 473.814C89.3748 475.903 92.9511 477.233 96.6874 477.698Z" fill="#73C1BA"/>
<path d="M97.3852 473.902C95.9544 470.277 94.5171 466.611 93.9422 462.757C93.3673 458.902 93.7135 454.786 95.6866 451.422C99.515 458.66 100.75 466.447 97.5812 473.98" fill="#73C1BA"/>
<path d="M100.197 451.422C102.366 444.235 108.939 438.956 116.034 436.532C116.912 436.17 117.865 436.029 118.81 436.121C119.281 436.171 119.727 436.36 120.091 436.664C120.455 436.967 120.721 437.371 120.855 437.826C121.117 439.048 120.111 440.139 119.157 440.949C113.614 445.68 107.168 449.236 100.21 451.402" fill="#73C1BA"/>
<path d="M100.299 445.548C100.573 440.923 100.867 436.232 102.37 431.828C103.872 427.425 106.773 423.335 110.994 421.415C111.712 426.086 109.654 430.737 107.165 434.762C104.676 438.786 101.684 442.602 100.188 447.064" fill="#73C1BA"/>
<path d="M100.162 448.736C98.3655 443.51 98.2022 436.859 95.0532 432.305C92.858 429.117 89.3562 426.948 87.4681 423.577C86.2137 426.726 86.5992 430.358 87.9124 433.488C89.2255 436.617 91.388 439.302 93.7008 441.779C96.0135 444.255 98.0062 446.117 100.162 448.736Z" fill="#73C1BA"/>
<path d="M100.195 602.77C100.058 602.77 99.9338 567.883 99.9273 524.848C99.9208 481.814 100.025 446.914 100.162 446.914C100.3 446.914 100.424 481.801 100.43 524.848C100.437 567.896 100.339 602.77 100.195 602.77Z" fill="#C3B399"/>
<path d="M130.686 498.284C130.268 498.49 129.83 498.654 129.379 498.774L125.78 499.963C122.735 501.002 118.554 502.498 114.02 504.36C109.486 506.222 105.291 507.856 102.874 509.946C101.914 510.752 101.148 511.763 100.633 512.906C100.287 513.729 100.228 514.212 100.182 514.212C100.137 514.212 100.182 514.088 100.182 513.847C100.237 513.502 100.322 513.163 100.437 512.834C100.893 511.615 101.645 510.528 102.626 509.672C104.084 508.442 105.713 507.43 107.46 506.667C109.42 505.765 111.537 504.824 113.817 503.89C118.391 502.021 122.585 500.571 125.662 499.617C127.204 499.134 128.458 498.781 129.327 498.552C129.771 498.423 130.226 498.333 130.686 498.284Z" fill="#C3B399"/>
<path d="M140.682 473.7C140.682 473.7 140.571 473.85 140.316 474.092L139.199 475.144L135.018 478.939L121.102 491.352C115.673 496.187 110.982 500.806 107.729 504.282C106.102 506.02 104.815 507.457 103.939 508.463L102.914 509.593C102.804 509.737 102.677 509.866 102.535 509.979C102.616 509.819 102.717 509.67 102.835 509.534C103.044 509.253 103.351 508.835 103.77 508.313C104.599 507.267 105.847 505.791 107.448 504.02C111.647 499.433 116.088 495.071 120.749 490.954C126.198 486.132 131.157 481.807 134.763 478.678C136.527 477.156 137.984 475.914 139.049 475L140.231 474.02C140.369 473.897 140.52 473.789 140.682 473.7Z" fill="#C3B399"/>
<path d="M115.242 496.246C115.099 496.181 116.235 493.561 117.366 490.248C118.496 486.936 119.045 484.14 119.188 484.166C119.332 484.192 118.999 487.054 117.843 490.412C117.358 491.841 116.793 493.241 116.15 494.606C115.928 495.193 115.623 495.745 115.242 496.246Z" fill="#C3B399"/>
<path d="M100.226 517.368C99.9146 517.073 99.6344 516.747 99.39 516.394L97.2471 513.644C95.444 511.318 92.9548 508.104 90.1651 504.589C87.3754 501.074 84.8079 497.918 82.9786 495.632L80.7834 492.921C80.4979 492.603 80.2457 492.257 80.0321 491.888C80.364 492.157 80.6665 492.462 80.9337 492.796C81.4955 493.397 82.2861 494.293 83.2465 495.41C85.2064 497.638 87.8197 500.76 90.5833 504.282C93.3468 507.803 95.8098 511.05 97.5542 513.428C98.4231 514.624 99.1091 515.597 99.5729 516.277C99.8284 516.617 100.047 516.982 100.226 517.368Z" fill="#C3B399"/>
<path d="M93.547 508.783C93.4621 508.868 91.6785 506.751 90.7442 503.557C90.2105 501.849 89.989 500.058 90.0909 498.271H90.3131C90.2151 498.676 90.1366 498.885 90.0974 498.879C90.0582 498.872 90.0582 498.65 90.0974 498.226H90.3196C90.4313 499.967 90.7312 501.691 91.2146 503.367C92.1293 506.51 93.6777 508.698 93.547 508.783Z" fill="#73C1BA"/>
<path d="M84.912 497.925C84.3084 497.466 83.6498 497.085 82.9521 496.788C81.1927 496.267 79.3431 496.121 77.523 496.357C75.6793 496.499 73.85 496.794 72.0547 497.239C71.3177 497.466 70.5671 497.647 69.8073 497.781C70.4756 497.374 71.2027 497.075 71.9632 496.893C73.7592 496.341 75.6107 495.993 77.4838 495.854C79.6659 495.665 81.7369 495.854 83.0893 496.455C83.8471 496.723 84.49 497.242 84.912 497.925Z" fill="#C3B399"/>
<path d="M82.8616 495.292C82.8224 495.37 81.7248 494.835 79.8694 494.201C75.0152 492.545 69.8194 492.152 64.7711 493.058C62.8112 493.404 61.6679 493.763 61.6417 493.711C61.89 493.561 62.1585 493.449 62.4388 493.378C63.1777 493.112 63.9329 492.894 64.6993 492.724C69.7997 491.611 75.1152 492.018 79.987 493.894C80.72 494.172 81.4361 494.495 82.1299 494.861C82.6199 495.103 82.8812 495.259 82.8616 495.292Z" fill="#C3B399"/>
<path d="M100.164 484.166C100.027 484.199 99.0468 480.801 97.9754 476.574C96.9039 472.347 96.1461 468.885 96.2833 468.885C96.4205 468.885 97.3939 472.249 98.4653 476.476C99.5368 480.703 100.301 484.133 100.164 484.166Z" fill="#C3B399"/>
<path d="M100.3 484.166C100.15 484.212 99.5225 481.945 97.8762 479.593C96.2298 477.241 94.2372 476.032 94.3156 475.915C94.8226 476.042 95.2923 476.286 95.6876 476.627C96.7041 477.365 97.5881 478.271 98.3008 479.305C99.9995 481.749 100.424 484.159 100.3 484.166Z" fill="#C3B399"/>
<path d="M100.198 584.17C100.145 584.17 100.041 583.334 99.6489 581.851C99.0674 579.766 98.2867 577.742 97.3165 575.807C94.9058 570.881 90.522 564.636 84.9426 558.383C82.1856 555.228 79.507 552.249 77.2269 549.4C75.1892 546.892 73.3462 544.231 71.7129 541.443C70.6172 539.566 69.6862 537.599 68.9297 535.563C68.6684 534.831 68.4854 534.256 68.3809 533.871C68.309 533.677 68.2614 533.475 68.2372 533.27C68.2829 533.27 68.5377 534.067 69.1126 535.491C69.9371 537.492 70.9093 539.429 72.0199 541.286C73.6872 544.029 75.5492 546.65 77.5928 549.126C79.8728 551.948 82.558 554.908 85.3281 558.07C90.914 564.342 95.2912 570.666 97.6367 575.677C98.5925 577.639 99.3307 579.701 99.8383 581.825C99.9749 582.401 100.077 582.986 100.145 583.575C100.186 583.771 100.204 583.97 100.198 584.17Z" fill="#C3B399"/>
<path d="M127.74 553.052C127.274 553.349 126.793 553.619 126.296 553.862C124.988 554.595 123.734 555.423 122.546 556.339C120.794 557.705 119.149 559.203 117.627 560.82C115.902 562.65 114.125 564.74 112.309 567.033C108.683 571.607 105.285 575.618 103.253 578.832C102.221 580.426 101.47 581.772 100.98 582.752C100.75 583.254 100.483 583.739 100.183 584.203C100.21 584.062 100.256 583.926 100.32 583.798C100.425 583.536 100.568 583.144 100.804 582.661C101.438 581.29 102.156 579.959 102.953 578.676C104.913 575.409 108.291 571.3 111.917 566.752C113.733 564.479 115.536 562.356 117.293 560.533C118.847 558.911 120.534 557.422 122.337 556.084C123.556 555.185 124.85 554.394 126.205 553.719C126.682 553.477 127.074 553.333 127.328 553.222C127.583 553.111 127.74 553.033 127.74 553.052Z" fill="#C3B399"/>
<path d="M128.288 563.146C127.283 563.368 126.264 563.516 125.237 563.59C122.785 563.842 120.362 564.318 117.998 565.015C115.661 565.774 113.47 566.925 111.517 568.418C110.021 569.568 109.316 570.529 109.25 570.47C109.185 570.411 109.368 570.195 109.701 569.771C110.176 569.176 110.708 568.629 111.289 568.137C113.215 566.53 115.433 565.307 117.822 564.538C120.218 563.82 122.689 563.382 125.185 563.231C126.214 563.104 127.253 563.076 128.288 563.146Z" fill="#C3B399"/>
<path d="M110.137 569.359C109.98 569.268 111.352 567.171 112.424 564.342C113.495 561.513 113.658 558.991 113.835 559.017C113.913 559.563 113.898 560.117 113.789 560.657C113.499 563.299 112.586 565.833 111.124 568.053C110.581 568.902 110.196 569.398 110.137 569.359Z" fill="#C3B399"/>
<path d="M136.677 525.946C136.524 526.049 136.359 526.135 136.187 526.201L134.75 526.854C134.096 527.122 133.358 527.468 132.502 527.919C131.646 528.37 130.634 528.821 129.582 529.454L127.922 530.402C127.341 530.728 126.773 531.127 126.165 531.506C124.937 532.251 123.708 533.165 122.395 534.119C119.604 536.227 116.972 538.539 114.523 541.038C112.111 543.571 109.887 546.279 107.872 549.139C106.983 550.485 106.108 551.752 105.409 553C105.05 553.621 104.671 554.202 104.364 554.79C104.057 555.378 103.756 555.947 103.469 556.489C102.881 557.554 102.456 558.579 102.038 559.455C101.62 560.33 101.3 561.101 101.051 561.741L100.45 563.192C100.386 563.366 100.305 563.535 100.208 563.695C100.232 563.511 100.28 563.33 100.352 563.159L100.868 561.67C101.134 560.879 101.439 560.103 101.783 559.344C102.175 558.449 102.58 557.384 103.155 556.325L104.017 554.607C104.324 554.006 104.671 553.418 105.05 552.784C105.736 551.517 106.605 550.236 107.493 548.865C109.499 545.963 111.729 543.224 114.163 540.672C116.631 538.155 119.289 535.833 122.114 533.727C123.421 532.799 124.695 531.885 125.943 531.153C126.557 530.774 127.138 530.389 127.72 530.062L129.412 529.141C130.477 528.527 131.503 528.089 132.378 527.664C133.253 527.24 134.031 526.919 134.671 526.678L136.148 526.109C136.316 526.03 136.494 525.975 136.677 525.946Z" fill="#C3B399"/>
<path d="M114.867 540.554C115.067 539.848 115.486 539.224 116.063 538.771C117.406 537.603 119.118 536.947 120.897 536.915C122.64 536.908 124.368 537.246 125.98 537.908C126.663 538.123 127.31 538.437 127.901 538.842C127.205 538.705 126.523 538.505 125.862 538.248C124.268 537.702 122.595 537.422 120.91 537.418C119.239 537.453 117.623 538.021 116.298 539.038C115.784 539.508 115.305 540.014 114.867 540.554Z" fill="#73C1BA"/>
<g opacity="0.2">
<path opacity="0.2" d="M68.7914 534.276C64.3782 531.511 59.3895 529.795 54.2093 529.258C51.8247 529.01 49.2245 529.082 47.3102 530.526C47.0907 530.652 46.9097 530.835 46.7856 531.056C46.6615 531.277 46.5987 531.527 46.6046 531.78C46.7065 532.139 46.9398 532.447 47.2579 532.642C53.1901 537.17 62.1668 537.745 68.7718 534.276" fill="#C0B49C"/>
</g>
<g opacity="0.4">
<path opacity="0.4" d="M68.715 534.217C68.1531 530.114 67.9441 525.887 68.8914 521.85C69.8387 517.812 72.0273 513.964 75.4768 511.651C76.7835 514.683 76.2151 518.185 75.3004 521.347C73.8795 526.243 71.6726 530.877 68.7672 535.066" fill="#F2EEE8"/>
</g>
<g opacity="0.2">
<path opacity="0.2" d="M77.6685 549.511C75.9098 545.047 75.2931 540.214 75.8752 535.45C76.4566 530.688 78.2186 526.145 81.0005 522.235C83.5484 531.284 82.6142 541.515 77.6685 549.511Z" fill="#C0B49C"/>
</g>
<g opacity="0.2">
<path opacity="0.2" d="M87.3948 561.095C83.3103 560.838 79.2407 561.79 75.6938 563.831C72.147 565.872 69.2795 568.913 67.4489 572.573C67.2882 572.798 67.1915 573.061 67.168 573.336C67.1451 573.611 67.1968 573.887 67.3183 574.135C67.4888 574.3 67.6965 574.421 67.9239 574.489C68.1513 574.558 68.3917 574.57 68.6249 574.527C72.5448 574.272 76.0401 571.914 78.9147 569.215C81.7893 566.517 84.2916 563.407 87.4667 561.082" fill="#C0B49C"/>
</g>
<g opacity="0.4">
<path opacity="0.4" d="M115.142 565.883C123.955 568.177 134.088 565.949 141.399 560.546C137.004 558.338 131.981 557.722 127.183 558.801C122.44 559.886 118.095 562.009 115.142 565.883Z" fill="#F2EEE8"/>
</g>
<g opacity="0.2">
<path opacity="0.2" d="M117.102 561.055C122.035 553.007 131.475 547.754 140.929 547.277C139.838 551.112 136.689 554.091 133.135 555.894C129.581 557.697 125.609 558.507 121.695 559.239C120.173 559.533 118.089 559.893 117.122 561.055" fill="#C0B49C"/>
</g>
<g opacity="0.4">
<path opacity="0.4" d="M125.447 531.689C133.483 532.917 140.336 538.052 147.849 541.168C149.427 541.924 151.174 542.258 152.919 542.135C154.644 541.906 156.342 540.75 156.728 539.058C156.845 538.347 156.787 537.62 156.559 536.936C156.331 536.253 155.941 535.636 155.421 535.138C154.349 534.154 153.089 533.396 151.717 532.91C143.537 529.499 134.73 529.414 126.139 531.479" fill="#F2EEE8"/>
</g>
<g opacity="0.2">
<path opacity="0.2" d="M121.766 500.989C126.13 497.778 131.191 495.644 136.536 494.762C141.883 493.88 147.361 494.274 152.524 495.913C148.65 499.735 143.28 501.793 137.864 502.348C132.46 502.845 127.011 502.385 121.766 500.989Z" fill="#C0B49C"/>
</g>
<g opacity="0.4">
<path opacity="0.4" d="M119.293 485.342C118.581 478.103 119.045 472.393 118.542 465.128C118.503 464.547 118.379 463.822 117.83 463.639C117.079 463.345 116.445 464.292 116.197 465.05C115.144 468.418 114.875 471.982 115.409 475.471C115.944 478.96 117.268 482.28 119.28 485.179" fill="#F2EEE8"/>
</g>
<g opacity="0.4">
<path opacity="0.4" d="M130.543 482.866C141.333 478.872 151.323 472.982 160.041 465.475C156.513 464.057 152.482 464.906 148.934 466.33C140.885 469.597 134.313 475.059 130.367 482.788" fill="#F2EEE8"/>
</g>
<g opacity="0.4">
<path opacity="0.4" d="M90.9957 503.511C87.2783 496.011 87.52 487.263 90.7278 479.534C92.9883 482.977 93.2627 487.374 92.8511 491.457C92.4395 495.54 91.1917 499.767 91.1133 503.87" fill="#F2EEE8"/>
</g>
<g opacity="0.4">
<path opacity="0.4" d="M66.1827 492.698C61.6421 492.326 57.278 491.764 52.9138 493.104C48.5496 494.443 44.5839 497.474 42.8069 501.675C47.0469 502.152 51.3523 501.087 55.22 499.33C59.0877 497.572 62.6483 495.122 66.1631 492.698" fill="#F2EEE8"/>
</g>
<g opacity="0.2">
<path opacity="0.2" d="M80.9737 493.058C73.9962 486.204 71.3503 473.902 74.1596 464.534C79.6684 472.964 82.0772 483.047 80.9737 493.058Z" fill="#C0B49C"/>
</g>
<g opacity="0.2">
<path opacity="0.2" d="M96.6874 477.698C94.5119 474.699 91.9966 470.629 89.0436 468.395C86.0906 466.161 82.2425 464.802 78.6427 465.664C80.5079 468.935 83.1101 471.725 86.2421 473.814C89.3748 475.903 92.9511 477.233 96.6874 477.698Z" fill="#C0B49C"/>
</g>
<g opacity="0.4">
<path opacity="0.4" d="M100.197 451.422C102.366 444.235 108.939 438.956 116.034 436.532C116.912 436.17 117.865 436.029 118.81 436.121C119.281 436.171 119.727 436.36 120.091 436.664C120.455 436.967 120.721 437.371 120.855 437.826C121.117 439.048 120.111 440.139 119.157 440.949C113.614 445.68 107.168 449.236 100.21 451.402" fill="#F2EEE8"/>
</g>
<g opacity="0.2">
<path opacity="0.2" d="M100.162 448.736C98.3655 443.51 98.2022 436.859 95.0532 432.305C92.858 429.117 89.3562 426.948 87.4681 423.577C86.2137 426.726 86.5992 430.358 87.9124 433.488C89.2255 436.617 91.388 439.302 93.7008 441.779C96.0135 444.255 98.0062 446.117 100.162 448.736Z" fill="#C0B49C"/>
</g>
<g opacity="0.4">
<path opacity="0.4" d="M93.547 508.783C93.4621 508.868 91.6785 506.751 90.7442 503.557C90.2105 501.849 89.989 500.058 90.0909 498.271H90.3131C90.2151 498.676 90.1366 498.885 90.0974 498.879C90.0582 498.872 90.0582 498.65 90.0974 498.226H90.3196C90.4313 499.967 90.7312 501.691 91.2146 503.367C92.1293 506.51 93.6777 508.698 93.547 508.783Z" fill="#F2EEE8"/>
</g>
<g opacity="0.4">
<path opacity="0.4" d="M114.867 540.554C115.067 539.848 115.486 539.224 116.063 538.771C117.406 537.603 119.118 536.947 120.897 536.915C122.64 536.908 124.368 537.246 125.98 537.908C126.663 538.123 127.31 538.437 127.901 538.842C127.205 538.705 126.523 538.505 125.862 538.248C124.268 537.702 122.595 537.422 120.91 537.418C119.239 537.453 117.623 538.021 116.298 539.038C115.784 539.508 115.305 540.014 114.867 540.554Z" fill="#F2EEE8"/>
</g>
<path d="M111.61 543.919C111.472 543.84 112.701 542.037 112.982 539.457C113.262 536.876 112.518 534.838 112.674 534.792C112.961 535.177 113.153 535.625 113.236 536.099C113.828 538.347 113.55 540.736 112.459 542.789C112.06 543.553 111.655 543.951 111.61 543.919Z" fill="#C3B399"/>
<path d="M76.1261 589.174C76.884 602.509 80.9019 616.065 87.0823 629.778H113.96C119.84 616.202 123.59 602.665 124.256 589.174H76.1261Z" fill="#C3B399"/>
<path d="M126.458 584.921H74.1722V589.338H126.458V584.921Z" fill="#C3B399"/>
<path opacity="0.2" d="M76.1261 589.174C76.1653 589.828 76.2176 590.52 76.2764 591.2H113.973C113.973 591.2 114.202 614.249 106.355 629.746H113.96C119.84 616.228 123.557 602.737 124.25 589.305L76.1261 589.174Z" fill="#C0B49C"/>
<path opacity="0.2" d="M113.973 584.921V589.298L126.458 589.338V584.921H113.973Z" fill="#C0B49C"/>
<path d="M489.183 457.262H536.026V469.538H489.183C487.556 469.538 486.001 468.893 484.851 467.745C483.702 466.597 483.061 465.04 483.061 463.417C483.061 461.793 483.702 460.236 484.851 459.088C486.001 457.94 487.556 457.295 489.183 457.295" fill="#C3B399"/>
<path d="M532.147 469.538H555.836V467.794H548.48V459.085H555.816V457.269H532.147C530.526 457.269 528.965 457.914 527.822 459.062C526.672 460.209 526.025 461.767 526.025 463.39C526.025 465.014 526.672 466.571 527.822 467.719C528.965 468.867 530.526 469.512 532.147 469.512" fill="#C0B49C"/>
<path d="M554.065 467.689H532.191C531.048 467.689 529.951 467.236 529.147 466.428C528.337 465.621 527.886 464.526 527.886 463.384C527.886 462.242 528.337 461.147 529.147 460.34C529.951 459.533 531.048 459.079 532.191 459.079H554.065V467.689Z" fill="#F2EEE8"/>
<path d="M482.186 447.835H521.287V457.262H482.186C481.761 457.261 481.349 457.089 481.049 456.785C480.742 456.482 480.572 456.071 480.572 455.642V449.449C480.572 449.023 480.742 448.614 481.042 448.312C481.192 448.16 481.369 448.04 481.565 447.958C481.761 447.876 481.976 447.834 482.186 447.835Z" fill="#F2EEE8"/>
<path d="M504.399 451.003H490.934C490.764 451.003 490.594 451.072 490.47 451.195C490.352 451.317 490.28 451.484 490.28 451.657V453.734C490.28 453.907 490.352 454.073 490.47 454.196C490.594 454.319 490.764 454.388 490.934 454.388H504.399C504.575 454.388 504.738 454.319 504.862 454.196C504.987 454.073 505.052 453.907 505.052 453.734V451.657C505.052 451.484 504.987 451.317 504.862 451.195C504.738 451.072 504.575 451.003 504.399 451.003Z" fill="#C3B399"/>
<path d="M536.431 457.262H515.159C514.728 457.261 514.316 457.09 514.016 456.785C513.866 456.636 513.748 456.458 513.663 456.261C513.585 456.065 513.545 455.854 513.545 455.642V449.449C513.545 449.021 513.722 448.612 514.022 448.31C514.323 448.007 514.734 447.837 515.159 447.835H536.425L536.431 457.262Z" fill="#C3B399"/>
<path d="M536.43 455.818H515.772C515.557 455.817 515.354 455.733 515.197 455.583C515.047 455.432 514.962 455.228 514.962 455.015V449.965C514.969 449.75 515.054 449.545 515.204 449.394C515.354 449.242 515.563 449.156 515.772 449.155H536.43V455.818Z" fill="#F2EEE8"/>
<path d="M548.477 447.835H502.241V438.414H548.477C549.065 438.414 549.627 438.648 550.045 439.065C550.463 439.481 550.698 440.046 550.698 440.635V445.685C550.685 446.26 550.45 446.806 550.045 447.208C549.633 447.62 549.078 447.855 548.497 447.861" fill="#C0B49C"/>
<path d="M486.414 439.825H507.68C507.784 439.824 507.895 439.845 507.993 439.887C508.091 439.928 508.183 439.99 508.255 440.067C508.333 440.14 508.392 440.229 508.431 440.326C508.47 440.424 508.49 440.529 508.49 440.635V445.685C508.49 445.791 508.47 445.896 508.431 445.993C508.392 446.091 508.333 446.179 508.255 446.254C508.104 446.405 507.895 446.489 507.68 446.488H486.414V439.825Z" fill="#F2EEE8"/>
<path d="M508.299 438.414H484.877V439.825H507.691C507.796 439.818 507.9 439.832 507.998 439.864C508.096 439.895 508.188 439.949 508.26 440.021C508.338 440.088 508.404 440.173 508.443 440.269C508.482 440.364 508.502 440.467 508.502 440.57V445.685C508.502 445.788 508.482 445.89 508.443 445.986C508.397 446.08 508.338 446.165 508.26 446.234C508.181 446.301 508.09 446.354 507.998 446.391C507.894 446.411 507.789 446.411 507.691 446.391H484.877V447.802H508.299C508.508 447.802 508.717 447.761 508.92 447.681C509.116 447.6 509.292 447.481 509.442 447.332C509.593 447.182 509.71 447.004 509.795 446.808C509.874 446.611 509.913 446.401 509.913 446.188V439.995C509.913 439.783 509.874 439.572 509.789 439.376C509.71 439.18 509.593 439.002 509.442 438.852C509.292 438.701 509.116 438.583 508.92 438.502C508.717 438.421 508.508 438.38 508.299 438.381" fill="#C3B399"/>
<path d="M374.557 329.407L377.556 347.798L366.319 347.602L368.272 330.714L374.557 329.407Z" fill="#F2EEE8"/>
<path opacity="0.15" d="M372.199 329.963L377.556 347.798L366.319 347.602L368.272 330.714L372.199 329.963Z" fill="#C0B49C"/>
<path d="M354.927 618.123L389.972 618.985L376.004 608.996C374.846 608.173 373.892 607.101 373.213 605.854C372.534 604.612 372.148 603.227 372.084 601.81L371.6 590.847L352.543 590.906L354.927 618.123Z" fill="#F2EEE8"/>
<path opacity="0.15" d="M358.812 605.324V605.109C358.755 604.521 358.928 603.939 359.293 603.476C359.658 603.012 360.188 602.705 360.772 602.626L371.95 601.006L371.839 598.791H353.134L354.807 617.365L370.088 615.693L365.064 613.694C363.351 613.014 361.86 611.871 360.757 610.394C359.653 608.911 358.98 607.16 358.812 605.324Z" fill="#C0B49C"/>
<path d="M291.809 617.476H307.58L310.494 590.801L291.868 590.853L291.809 617.476Z" fill="#F2EEE8"/>
<path opacity="0.15" d="M295.753 612.995L296.132 604.789C296.16 604.266 296.371 603.763 296.73 603.378C297.088 602.992 297.57 602.744 298.092 602.679L309.434 600.954L309.702 598.687L291.938 598.739L291.886 617.633L295.753 612.995Z" fill="#C0B49C"/>
<path d="M290.783 400.149V598.791H311.252L329.067 435.565C329.111 435.001 329.366 434.473 329.781 434.088C330.197 433.704 330.742 433.489 331.309 433.489C331.875 433.489 332.42 433.704 332.836 434.088C333.251 434.473 333.506 435.001 333.55 435.565L352.496 598.791H372.958L365.549 400.149H290.783Z" fill="#C0B49C"/>
<path d="M293.032 608.081L293.522 607.591C295.345 605.828 297.792 604.848 300.33 604.88C302.869 604.913 305.292 605.945 307.071 607.755L307.339 608.081C308.234 609.009 308.737 610.25 308.744 611.538V613.589C308.735 614.778 308.919 615.967 309.286 617.097L310.959 622.657C311.389 624.003 311.609 625.401 311.612 626.812V627.518C311.59 628.053 311.357 628.563 310.963 628.929C310.569 629.295 310.047 629.491 309.508 629.478H290.085C289.818 629.491 289.55 629.452 289.299 629.36C289.046 629.269 288.816 629.125 288.62 628.942C288.424 628.759 288.266 628.537 288.157 628.295C288.047 628.047 287.987 627.786 287.981 627.518V627.25C287.982 625.61 288.256 623.99 288.792 622.441L290.752 616.986C291.208 615.732 291.446 614.406 291.457 613.066L291.509 611.505C291.596 610.218 292.135 609.003 293.032 608.081Z" fill="#73C1BA"/>
<path d="M290.247 598.791H312.062L312.493 594.31H290.28L290.247 598.791Z" fill="#C0B49C"/>
<path opacity="0.3" d="M290.247 598.791H299.394L299.563 594.323H290.299L290.247 598.791Z" fill="#C0B49C"/>
<path opacity="0.3" d="M287.981 627.25V627.518C288.002 628.054 288.235 628.563 288.629 628.929C289.023 629.301 289.547 629.497 290.085 629.478H309.469C309.737 629.491 310.005 629.452 310.256 629.36C310.508 629.269 310.739 629.125 310.935 628.942C311.131 628.759 311.289 628.537 311.398 628.295C311.508 628.047 311.568 627.786 311.573 627.518V626.812C311.581 626.544 311.564 626.27 311.521 626.002H288.001L287.981 627.25Z" fill="#C0B49C"/>
<path d="M332.392 286.745L355.33 290.228C357.413 290.567 359.382 291.408 361.068 292.679C362.754 293.949 364.105 295.61 365.006 297.519C369.168 306.09 375.727 329.166 375.727 329.166L364.072 331.589L367.469 406.878H288.783V332.883L267.667 329.963L275.181 300.811C275.767 298.526 276.973 296.447 278.665 294.804C280.357 293.16 282.47 292.015 284.771 291.495L304.325 286.922L332.392 286.745Z" fill="#73C1BA"/>
<path d="M352.482 611.91V625.571C352.48 626.093 352.583 626.616 352.783 627.1C352.982 627.59 353.276 628.027 353.647 628.4C354.018 628.772 354.458 629.066 354.944 629.269C355.429 629.465 355.948 629.569 356.474 629.569H402.905C403.349 629.569 403.774 629.393 404.088 629.079C404.403 628.765 404.581 628.341 404.584 627.897C404.578 626.309 404.075 624.761 403.144 623.474C402.214 622.18 400.904 621.22 399.397 620.71L388.944 617.254L375.662 606.938C374.994 606.415 374.166 606.141 373.32 606.161C372.472 606.187 371.659 606.494 371.017 607.049L365.137 612.067C364.715 612.433 364.206 612.687 363.658 612.805C363.11 612.916 362.541 612.89 362.007 612.72L354.56 610.401C354.322 610.329 354.07 610.309 353.823 610.348C353.577 610.388 353.344 610.486 353.142 610.636C352.94 610.78 352.775 610.969 352.66 611.191C352.546 611.413 352.485 611.662 352.482 611.91Z" fill="#73C1BA"/>
<path opacity="0.3" d="M356.492 629.602H402.923C403.367 629.602 403.792 629.425 404.106 629.112C404.421 628.798 404.599 628.374 404.602 627.929C404.613 627.361 404.538 626.799 404.38 626.257H352.552C352.707 627.191 353.188 628.04 353.909 628.655C354.63 629.262 355.546 629.602 356.492 629.602Z" fill="#C0B49C"/>
<path d="M375.392 612.4C375.289 612.4 375.191 612.361 375.117 612.289C375.04 612.211 374.996 612.106 374.996 611.995C374.996 611.877 375.04 611.773 375.117 611.694L377.959 608.696C378.038 608.617 378.145 608.572 378.257 608.572C378.368 608.572 378.475 608.617 378.554 608.696C378.632 608.774 378.677 608.879 378.677 608.996C378.677 609.107 378.632 609.212 378.554 609.29L375.745 612.309C375.637 612.367 375.515 612.4 375.392 612.4Z" fill="#F2EEE8"/>
<path d="M377.599 614.125C377.5 614.125 377.406 614.085 377.331 614.02C377.253 613.942 377.21 613.837 377.21 613.726C377.21 613.615 377.253 613.504 377.331 613.426L380.14 610.401C380.219 610.322 380.327 610.277 380.438 610.277C380.549 610.277 380.657 610.322 380.735 610.401C380.814 610.479 380.858 610.584 380.858 610.701C380.858 610.812 380.814 610.917 380.735 610.995L377.926 614.02C377.826 614.079 377.715 614.112 377.599 614.125Z" fill="#F2EEE8"/>
<path d="M379.816 615.882C379.716 615.882 379.62 615.843 379.548 615.771C379.47 615.693 379.426 615.588 379.426 615.477C379.426 615.36 379.47 615.255 379.548 615.177L382.357 612.158C382.436 612.08 382.543 612.034 382.654 612.034C382.765 612.034 382.872 612.08 382.952 612.158C383.027 612.237 383.07 612.341 383.07 612.452C383.07 612.563 383.027 612.668 382.952 612.746L380.142 615.771C380.099 615.81 380.046 615.843 379.99 615.863C379.935 615.882 379.875 615.889 379.816 615.882Z" fill="#F2EEE8"/>
<path d="M303.793 612.668C303.718 612.674 303.642 612.655 303.578 612.616C302.464 612.086 301.247 611.812 300.014 611.812C298.781 611.812 297.563 612.086 296.45 612.616C296.393 612.648 296.329 612.674 296.263 612.681C296.197 612.687 296.13 612.681 296.066 612.661C296.002 612.648 295.943 612.616 295.892 612.57C295.841 612.531 295.799 612.478 295.769 612.419C295.74 612.354 295.723 612.289 295.719 612.224C295.716 612.158 295.726 612.093 295.749 612.028C295.772 611.969 295.808 611.91 295.855 611.864C295.901 611.818 295.957 611.779 296.019 611.753C297.271 611.139 298.646 610.819 300.04 610.819C301.433 610.819 302.809 611.139 304.061 611.753C304.172 611.812 304.257 611.916 304.298 612.034C304.338 612.158 304.334 612.289 304.283 612.406C304.23 612.485 304.158 612.557 304.072 612.602C303.986 612.648 303.891 612.668 303.793 612.668Z" fill="#F2EEE8"/>
<path d="M303.793 615.15C303.718 615.157 303.642 615.137 303.578 615.098C302.465 614.569 301.247 614.288 300.014 614.288C298.78 614.288 297.563 614.569 296.45 615.098C296.393 615.131 296.329 615.157 296.263 615.164C296.197 615.17 296.13 615.164 296.066 615.15C296.002 615.131 295.943 615.098 295.892 615.052C295.841 615.013 295.799 614.961 295.769 614.902C295.74 614.837 295.723 614.778 295.719 614.706C295.716 614.641 295.726 614.576 295.749 614.51C295.772 614.451 295.808 614.393 295.855 614.347C295.901 614.301 295.957 614.262 296.019 614.236C297.271 613.622 298.646 613.302 300.04 613.302C301.433 613.302 302.809 613.622 304.061 614.236C304.172 614.301 304.257 614.399 304.298 614.523C304.338 614.641 304.334 614.771 304.283 614.889C304.23 614.967 304.158 615.039 304.072 615.085C303.986 615.131 303.891 615.15 303.793 615.15Z" fill="#F2EEE8"/>
<path d="M303.793 617.581C303.718 617.587 303.642 617.568 303.578 617.528C302.464 616.999 301.247 616.725 300.014 616.725C298.781 616.725 297.563 616.999 296.45 617.528C296.393 617.561 296.329 617.587 296.263 617.594C296.197 617.6 296.13 617.594 296.066 617.581C296.002 617.561 295.943 617.528 295.892 617.483C295.841 617.444 295.799 617.391 295.769 617.332C295.74 617.267 295.723 617.208 295.719 617.137C295.716 617.071 295.726 617.006 295.749 616.94C295.772 616.882 295.808 616.823 295.855 616.777C295.901 616.731 295.957 616.692 296.019 616.666C297.271 616.052 298.646 615.732 300.04 615.732C301.433 615.732 302.809 616.052 304.061 616.666C304.172 616.731 304.257 616.829 304.298 616.947C304.338 617.071 304.334 617.202 304.283 617.319C304.23 617.398 304.158 617.47 304.072 617.515C303.986 617.561 303.891 617.581 303.793 617.581Z" fill="#F2EEE8"/>
<path opacity="0.3" d="M364.702 596.282L344.508 443.02C344.189 440.423 342.931 438.032 340.973 436.298C339.013 434.565 336.487 433.607 333.872 433.605H331.337C331.895 433.609 332.433 433.821 332.843 434.201C333.253 434.58 333.506 435.1 333.551 435.657L352.393 597.909L364.702 596.282Z" fill="#C0B49C"/>
<path d="M351.959 598.791H373.714L373.388 594.323H351.527L351.959 598.791Z" fill="#C0B49C"/>
<path opacity="0.3" d="M351.959 598.791H364.894L364.411 594.31H351.527L351.959 598.791Z" fill="#C0B49C"/>
<path opacity="0.3" d="M307.577 406.937L290.728 406.741V594.205L299.529 594.257L307.519 442.262L307.577 406.937Z" fill="#C0B49C"/>
<path d="M315.359 262.318L315.927 259.704C317.273 241.81 340.316 257.032 340.316 257.032C340.316 257.032 339.551 263.415 339.159 270.439C339.159 271.961 337.794 273.052 337.513 274.215V279.213L338.003 288.843C338.003 288.843 334.272 293.899 325.779 293.952C325.779 293.952 316.718 293.997 311.583 287.229L315.359 262.318Z" fill="#F2EEE8"/>
<path d="M339.847 256.209C340.854 256.163 341.842 255.918 342.754 255.49C343.666 255.063 344.486 254.459 345.165 253.714C345.844 252.969 346.37 252.098 346.712 251.15C347.055 250.202 347.207 249.196 347.161 248.19C347.115 247.183 346.87 246.195 346.442 245.282C346.014 244.37 345.411 243.551 344.666 242.872C343.921 242.193 343.05 241.667 342.102 241.324C341.154 240.981 340.148 240.829 339.141 240.876C338.913 240.876 338.292 240.732 338.371 240.961C340.108 247.624 338.148 256.222 339.847 256.209Z" fill="#C0B49C"/>
<path d="M343.672 236.015C343.672 236.015 352.094 278.187 332.625 280.323C315.756 282.159 314.528 255.876 314.528 255.876L315.736 238.916L328.803 234.062L343.672 236.015Z" fill="#F2EEE8"/>
<path d="M338.153 246.102C336.194 243.365 332.927 241.352 329.438 241.444C325.518 241.542 322.356 244.671 322.748 249.232L322.827 250.244C322.859 250.705 322.712 251.16 322.416 251.513C322.12 251.866 321.698 252.091 321.239 252.139C320.376 252.165 319.558 252.531 318.964 253.158C318.371 253.785 318.049 254.621 318.07 255.484L318.162 258.456C318.162 258.63 318.093 258.796 317.97 258.918C317.848 259.041 317.682 259.11 317.509 259.11C317.509 259.11 316.64 259.26 316.489 258.535L316.039 255.353L318.979 237.38L333.874 233.382L340.133 238.609L338.153 246.102Z" fill="#C0B49C"/>
<path opacity="0.15" d="M315.359 262.39C315.359 262.39 316.515 262.311 317.449 260.782L315.156 264.781L315.359 262.39Z" fill="#C0B49C"/>
<path d="M336.466 269.008L328.711 267.237C328.668 268.128 328.936 269.005 329.469 269.721C330.001 270.435 330.766 270.943 331.631 271.157C335.329 272.052 336.466 269.008 336.466 269.008Z" fill="#F2EEE8"/>
<path opacity="0.2" d="M288.544 333.778C288.544 333.778 289.198 326.696 289.727 323.325C290.197 320.583 290.941 317.896 291.948 315.302C291.948 315.302 296.182 304.849 304.505 406.721L288.544 407.1V333.778Z" fill="#C0B49C"/>
<path d="M310.671 244.142C311.227 239.569 313.598 236.165 317.577 235.27C319.257 234.928 320.996 234.993 322.647 235.46C322.794 235.505 322.949 235.52 323.103 235.504C323.256 235.488 323.405 235.441 323.54 235.366C323.675 235.291 323.793 235.189 323.888 235.067C323.982 234.945 324.051 234.805 324.09 234.656C324.457 233.149 325.315 231.809 326.529 230.845C327.743 229.881 329.243 229.348 330.794 229.331C331.882 229.313 332.959 229.558 333.932 230.044C334.906 230.531 335.748 231.246 336.386 232.128C336.47 232.272 336.586 232.396 336.724 232.49C336.864 232.583 337.022 232.644 337.187 232.669C337.352 232.693 337.521 232.68 337.682 232.631C337.841 232.581 337.988 232.496 338.111 232.382C338.111 232.382 342.73 228.665 348.832 232.382C350.893 233.706 352.39 235.748 353.032 238.113C353.674 240.477 353.416 242.996 352.307 245.181C349.871 250.048 343.507 251.531 339.574 247.86C337.913 246.237 336.942 244.038 336.863 241.718C336.663 240.113 336.801 238.485 337.268 236.936H335.243C332.851 236.805 329.082 236.394 325.534 236.936C325.613 237.008 325.685 237.008 325.756 237.08L319.465 239.216C319.465 239.216 317.603 255.882 316.59 255.745C312.135 254.805 310.142 248.297 310.671 244.142Z" fill="#C0B49C"/>
<path d="M316.04 253.942C315.952 253.519 315.772 253.12 315.513 252.774C315.255 252.427 314.923 252.142 314.542 251.937C314.161 251.732 313.739 251.613 313.308 251.588C312.876 251.563 312.444 251.633 312.042 251.793C308.286 252.903 308.978 260.501 314.002 262.213C317.125 262.867 316.674 260.965 316.446 258.43L316.04 253.942Z" fill="#F2EEE8"/>
<path opacity="0.15" d="M311.621 253.864C311.884 253.691 312.184 253.579 312.496 253.54C312.808 253.5 313.126 253.532 313.424 253.635C313.702 253.747 313.954 253.914 314.167 254.125C314.38 254.336 314.55 254.586 314.665 254.863C314.989 255.563 315.093 256.344 314.966 257.104V257.757C314.938 257.844 314.879 257.917 314.8 257.963C314.721 258.008 314.629 258.024 314.54 258.006C314.451 257.989 314.371 257.939 314.316 257.867C314.261 257.794 314.234 257.704 314.241 257.614V256.96C314.288 256.324 314.21 255.685 314.012 255.079C313.845 254.714 313.566 254.411 313.215 254.216C312.821 254.131 312.411 254.184 312.052 254.367C311.964 254.399 311.869 254.404 311.778 254.379C311.688 254.355 311.608 254.302 311.549 254.23C311.405 254.23 311.478 254.007 311.621 253.864Z" fill="#C0B49C"/>
<path opacity="0.15" d="M320.097 276.155C322.325 278.902 325.512 280.702 329.015 281.192C331.609 282.974 334.701 283.888 337.848 283.805L337.58 278.579L336.868 278.984C334.196 280.36 331.131 280.772 328.19 280.152C325.25 279.532 322.613 277.917 320.724 275.58C320.646 275.417 320.326 275.423 320.169 275.502C320.1 275.595 320.057 275.704 320.045 275.819C320.032 275.934 320.05 276.049 320.097 276.155Z" fill="#C0B49C"/>
<path opacity="0.2" d="M364.07 331.589L360.908 309.977C360.908 309.977 364.077 308.612 367.35 330.884L364.07 331.589Z" fill="#C0B49C"/>
<path d="M361.447 340.135H344.735C344.609 340.135 344.484 340.111 344.368 340.064C344.251 340.017 344.146 339.946 344.056 339.858C343.967 339.769 343.896 339.664 343.848 339.547C343.799 339.431 343.774 339.306 343.774 339.181L349.824 308.338C349.824 308.212 349.849 308.087 349.897 307.971C349.946 307.855 350.016 307.75 350.106 307.661C350.195 307.572 350.301 307.502 350.417 307.454C350.534 307.407 350.658 307.383 350.785 307.384H367.51C367.762 307.384 368.005 307.484 368.184 307.663C368.363 307.842 368.463 308.085 368.463 308.338L362.414 339.181C362.414 339.307 362.388 339.432 362.34 339.549C362.291 339.666 362.22 339.772 362.129 339.86C362.04 339.949 361.933 340.018 361.816 340.066C361.698 340.113 361.573 340.136 361.447 340.135Z" fill="#C0B49C"/>
<path opacity="0.3" d="M361.447 340.135H344.735C344.609 340.135 344.484 340.111 344.368 340.064C344.251 340.017 344.146 339.946 344.056 339.858C343.967 339.769 343.896 339.664 343.848 339.547C343.799 339.431 343.774 339.306 343.774 339.181L349.824 308.338C349.824 308.212 349.849 308.087 349.897 307.971C349.946 307.855 350.016 307.75 350.106 307.661C350.195 307.572 350.301 307.502 350.417 307.454C350.534 307.407 350.658 307.383 350.785 307.384H367.51C367.762 307.384 368.005 307.484 368.184 307.663C368.363 307.842 368.463 308.085 368.463 308.338L362.414 339.181C362.414 339.307 362.388 339.432 362.34 339.549C362.291 339.666 362.22 339.772 362.129 339.86C362.04 339.949 361.933 340.018 361.816 340.066C361.698 340.113 361.573 340.136 361.447 340.135Z" fill="#C0B49C"/>
<path d="M361.268 340.18H345.692C345.567 340.18 345.442 340.156 345.326 340.107C345.21 340.059 345.104 339.988 345.016 339.898C344.927 339.809 344.857 339.704 344.81 339.587C344.762 339.47 344.738 339.346 344.739 339.22L350.788 309.331C350.788 309.076 350.889 308.833 351.067 308.654C351.246 308.473 351.489 308.372 351.742 308.37H367.317C367.443 308.37 367.568 308.395 367.684 308.443C367.8 308.492 367.906 308.562 367.994 308.652C368.083 308.741 368.153 308.847 368.201 308.963C368.248 309.08 368.272 309.205 368.271 309.331L362.221 339.22C362.223 339.346 362.199 339.47 362.151 339.587C362.103 339.704 362.033 339.809 361.944 339.898C361.856 339.988 361.75 340.059 361.634 340.107C361.518 340.156 361.394 340.18 361.268 340.18Z" fill="#C0B49C"/>
<path d="M359.823 313.558C359.964 313.816 360.022 314.112 359.99 314.405C359.96 314.698 359.84 314.975 359.649 315.199C359.457 315.423 359.202 315.583 358.917 315.659C358.632 315.735 358.331 315.723 358.053 315.624C357.776 315.525 357.534 315.345 357.362 315.105C357.189 314.867 357.093 314.581 357.086 314.287C357.078 313.992 357.161 313.702 357.322 313.455C357.482 313.209 357.715 313.016 357.987 312.904C358.317 312.748 358.696 312.729 359.04 312.851C359.385 312.974 359.666 313.228 359.823 313.558Z" fill="#F1EEEE"/>
<path d="M371.618 335.058L367.227 321.992L366.319 318.19L365.666 322.11L363.961 323.723C362.915 323.795 355.997 321.58 354.161 324.03C352.325 326.48 349.215 337.567 349.215 337.567C349.215 337.567 360.283 343.258 362.282 343.447C362.282 343.447 362.935 351.94 363.307 354.991C363.68 358.042 365.875 366.666 370.109 366.529C378.399 366.261 379.608 359.911 379.255 354.874C379.027 351.941 378.261 349.075 376.995 346.42L371.618 335.058Z" fill="#F2EEE8"/>
<path opacity="0.15" d="M361.628 321.744C361.504 321.888 361.406 322.005 361.348 322.083C359.486 324.533 349.215 337.567 349.215 337.567C349.215 337.567 353.906 339.978 357.709 341.716L357.826 341.775L357.944 341.827C359.329 342.517 360.783 343.06 362.282 343.447C362.282 343.447 362.935 351.94 363.307 354.991C363.68 358.042 365.875 366.666 370.109 366.529C376.603 366.32 378.752 362.374 379.209 358.251C364.235 372.076 364.307 342.826 364.307 342.826L359.936 339.429L366.587 329.858C366.921 329.467 367.16 329.004 367.286 328.506C367.412 328.007 367.421 327.486 367.312 326.983C367.28 326.85 367.239 326.719 367.188 326.591C366.826 325.632 366.701 324.599 366.822 323.58C366.94 322.567 367.227 321.038 366.345 320.163C366.176 320.163 366.75 318.307 366.345 318.203L365.692 322.123L365.039 322.776C365.039 322.776 363.445 320.712 361.628 321.744Z" fill="#C0B49C"/>
<path d="M364.985 328.506C366.795 326.82 364.574 325.709 364.574 325.709C366.24 323.488 363.463 322.377 363.463 322.377C363.63 322.159 363.734 321.898 363.765 321.625C363.796 321.351 363.753 321.074 363.64 320.822C363.562 320.589 363.429 320.378 363.25 320.208C363.071 320.039 362.854 319.916 362.616 319.852C362.379 319.787 362.128 319.782 361.889 319.837C361.649 319.893 361.427 320.007 361.242 320.169L356.244 322.946L346.242 325.154L347.372 318.856L331.692 330.616L288.756 344.564V333.111L269.627 329.962L267.667 358.558C267.618 360.412 268.038 362.248 268.889 363.897C269.739 365.544 270.993 366.951 272.532 367.985C274.071 369.019 275.847 369.648 277.694 369.812C279.541 369.977 281.4 369.673 283.098 368.926L337.657 343.63L354.023 338.514L362.934 332.994C363.414 332.713 363.776 332.267 363.953 331.739C364.417 330.224 362.379 330.433 362.379 330.433L364.005 329.355C364.293 329.074 364.659 328.8 364.985 328.506Z" fill="#F2EEE8"/>
<path opacity="0.15" d="M363.19 322.632L357.63 325.99L350.966 328.212" stroke="#73C1BA" stroke-width="0.85" stroke-miterlimit="10" stroke-linecap="round"/>
<path opacity="0.15" d="M364.295 325.435L359.297 328.767L352.077 331.544" stroke="#73C1BA" stroke-width="0.85" stroke-miterlimit="10" stroke-linecap="round"/>
<path opacity="0.15" d="M362.352 330.433L358.739 332.654L353.186 335.431" stroke="#73C1BA" stroke-width="0.85" stroke-miterlimit="10" stroke-linecap="round"/>
<path opacity="0.15" d="M354.025 338.482L350.524 339.259C346.199 340.222 341.783 340.708 337.353 340.71L284.715 361.812C270.531 366.673 268.257 359.924 267.728 355.932L267.669 358.336C267.575 361.083 268.484 363.769 270.224 365.895C271.751 367.729 273.834 369.016 276.156 369.563C278.479 370.11 280.916 369.886 283.101 368.927L337.66 343.63L354.025 338.515" fill="#C0B49C"/>
<path opacity="0.15" d="M288.749 344.401C288.749 344.401 287.213 344.995 284.13 345.91C284.088 345.924 284.043 345.921 284.004 345.904C283.963 345.886 283.931 345.855 283.913 345.815C283.896 345.775 283.893 345.73 283.906 345.688C283.92 345.647 283.948 345.612 283.986 345.59L288.755 342.585L288.749 344.401Z" fill="#C0B49C"/>
</svg>
