<svg width="80" height="80" viewBox="0 0 80 80" fill="none" xmlns="http://www.w3.org/2000/svg">
<path fill-rule="evenodd" clip-rule="evenodd" d="M35.4455 23.4719H19.9987C19.083 23.4719 18.3613 24.1936 18.3613 25.1092V54.608C18.3613 55.5182 19.083 56.24 19.9987 56.24C20.9143 56.24 21.636 55.5182 21.636 54.608V41.4232H32.2193C33.038 41.4232 33.7112 40.75 33.7112 39.9313C33.7112 39.1127 33.038 38.4394 32.2193 38.4394H21.636V26.4557H35.4455C36.2642 26.4557 36.9374 25.7825 36.9374 24.9638C36.9374 24.1452 36.2642 23.4719 35.4455 23.4719Z" fill="#73C1BA"/>
<path fill-rule="evenodd" clip-rule="evenodd" d="M50.2192 23.4719H43.4383C42.5227 23.4719 41.8009 24.1936 41.8009 25.1092V43.5335L39.973 41.706C39.3293 41.0624 38.3087 41.0624 37.6613 41.7098C37.0139 42.3572 37.0139 43.3778 37.6575 44.0214L42.2011 48.565C42.8485 49.2124 43.8691 49.2124 44.5165 48.565L49.2362 43.8453C49.8491 43.2324 49.8491 42.2801 49.2362 41.6672C48.6228 41.0538 47.6705 41.0538 47.0576 41.6672L45.0756 43.6487V26.4557H50.2192C57.3932 26.4557 61.772 29.7789 61.772 39.689C61.772 49.696 57.3932 52.8737 50.2192 52.8737H43.3009C42.4359 52.8737 41.7649 53.5271 41.7649 54.3683C41.7649 55.2096 42.4359 55.8629 43.3009 55.8629H44.4233V55.8576H50.2192C59.4129 55.8576 65.0897 51.5757 65.0897 39.689C65.0897 27.8022 59.4129 23.4719 50.2192 23.4719Z" fill="#73C1BA"/>
<path fill-rule="evenodd" clip-rule="evenodd" d="M40 3.32075C19.7426 3.32075 3.32075 19.7426 3.32075 40C3.32075 60.2574 19.7426 76.6792 40 76.6792C60.2574 76.6792 76.6792 60.2574 76.6792 40C76.6792 19.7426 60.2574 3.32075 40 3.32075ZM0 40C0 17.9086 17.9086 0 40 0C62.0914 0 80 17.9086 80 40C80 62.0914 62.0914 80 40 80C17.9086 80 0 62.0914 0 40Z" fill="#73C1BA"/>
</svg>
