<svg width="60" height="60" viewBox="0 0 60 60" fill="none" xmlns="http://www.w3.org/2000/svg">
<path d="M56 18H41V15C41 14.337 40.7366 13.7011 40.2678 13.2322C39.7989 12.7634 39.163 12.5 38.5 12.5C38.3674 12.5 38.2402 12.4473 38.1464 12.3536C38.0527 12.2598 38 12.1326 38 12V10H39C39.2652 10 39.5196 9.89464 39.7071 9.70711C39.8946 9.51957 40 9.26522 40 9V2C40 1.46957 39.7893 0.960859 39.4142 0.585786C39.0391 0.210714 38.5304 0 38 0H12C11.4696 0 10.9609 0.210714 10.5858 0.585786C10.2107 0.960859 10 1.46957 10 2V9C10 9.26522 10.1054 9.51957 10.2929 9.70711C10.4804 9.89464 10.7348 10 11 10H12V12C12 12.1326 11.9473 12.2598 11.8536 12.3536C11.7598 12.4473 11.6326 12.5 11.5 12.5C10.837 12.5 10.2011 12.7634 9.73223 13.2322C9.26339 13.7011 9 14.337 9 15V26H2C1.46957 26 0.960859 26.2107 0.585786 26.5858C0.210714 26.9609 0 27.4696 0 28V33C0 33.2652 0.105357 33.5196 0.292893 33.7071C0.48043 33.8946 0.734784 34 1 34H2V59C2 59.2652 2.10536 59.5196 2.29289 59.7071C2.48043 59.8946 2.73478 60 3 60H56C57.0609 60 58.0783 59.5786 58.8284 58.8284C59.5786 58.0783 60 57.0609 60 56V22C60 20.9391 59.5786 19.9217 58.8284 19.1716C58.0783 18.4214 57.0609 18 56 18ZM16 8V2H18V8H16ZM20 2H22V8H20V2ZM24 2H26V8H24V2ZM28 2H30V8H28V2ZM32 2H34V8H32V2ZM38 8H36V2H38V8ZM12 2H14V8H12V2ZM24 26H14V20H36V28H26C26 27.4696 25.7893 26.9609 25.4142 26.5858C25.0391 26.2107 24.5304 26 24 26ZM4 38H22V54H4V38ZM14 32V28H16V32H14ZM18 28H20V32H18V28ZM23 32H22V28H24V32H23ZM12 32H10V28H12V32ZM6 32V28H8V32H6ZM2 28H4V32H2V28ZM22 34V36H4V34H22ZM4 58V56H22V58H4ZM39 58H24V34H25C25.2652 34 25.5196 33.8946 25.7071 33.7071C25.8946 33.5196 26 33.2652 26 33V30H37C37.2652 30 37.5196 29.8946 37.7071 29.7071C37.8946 29.5196 38 29.2652 38 29V19C38 18.7348 37.8946 18.4804 37.7071 18.2929C37.5196 18.1054 37.2652 18 37 18H13C12.7348 18 12.4804 18.1054 12.2929 18.2929C12.1054 18.4804 12 18.7348 12 19V26H11V15C11 14.8674 11.0527 14.7402 11.1464 14.6464C11.2402 14.5527 11.3674 14.5 11.5 14.5C12.163 14.5 12.7989 14.2366 13.2678 13.7678C13.7366 13.2989 14 12.663 14 12V10H36V12C36 12.663 36.2634 13.2989 36.7322 13.7678C37.2011 14.2366 37.837 14.5 38.5 14.5C38.6326 14.5 38.7598 14.5527 38.8536 14.6464C38.9473 14.7402 39 14.8674 39 15V58ZM58 56C58 56.5304 57.7893 57.0391 57.4142 57.4142C57.0391 57.7893 56.5304 58 56 58H41V20H56C56.5304 20 57.0391 20.2107 57.4142 20.5858C57.7893 20.9609 58 21.4696 58 22V56Z" fill="#C3B399"/>
<path d="M37 40H35V52H37V40Z" fill="#C3B399"/>
<path d="M37 54H35V56H37V54Z" fill="#C3B399"/>
<path d="M49 23C47.9391 23 46.9217 23.4214 46.1716 24.1716C45.4214 24.9217 45 25.9391 45 27V33C45 34.0609 45.4214 35.0783 46.1716 35.8284C46.9217 36.5786 47.9391 37 49 37C50.0609 37 51.0783 36.5786 51.8284 35.8284C52.5786 35.0783 53 34.0609 53 33V27C53 25.9391 52.5786 24.9217 51.8284 24.1716C51.0783 23.4214 50.0609 23 49 23ZM49 25C49.5304 25 50.0391 25.2107 50.4142 25.5858C50.7893 25.9609 51 26.4696 51 27V29H47V27C47 26.4696 47.2107 25.9609 47.5858 25.5858C47.9609 25.2107 48.4696 25 49 25ZM49 35C48.4696 35 47.9609 34.7893 47.5858 34.4142C47.2107 34.0391 47 33.5304 47 33V31H51V33C51 33.5304 50.7893 34.0391 50.4142 34.4142C50.0391 34.7893 49.5304 35 49 35Z" fill="#C3B399"/>
<path d="M49 41C47.9391 41 46.9217 41.4214 46.1716 42.1716C45.4214 42.9217 45 43.9391 45 45V51C45 52.0609 45.4214 53.0783 46.1716 53.8284C46.9217 54.5786 47.9391 55 49 55C50.0609 55 51.0783 54.5786 51.8284 53.8284C52.5786 53.0783 53 52.0609 53 51V45C53 43.9391 52.5786 42.9217 51.8284 42.1716C51.0783 41.4214 50.0609 41 49 41ZM49 43C49.5304 43 50.0391 43.2107 50.4142 43.5858C50.7893 43.9609 51 44.4696 51 45V47H47V45C47 44.4696 47.2107 43.9609 47.5858 43.5858C47.9609 43.2107 48.4696 43 49 43ZM49 53C48.4696 53 47.9609 52.7893 47.5858 52.4142C47.2107 52.0391 47 51.5304 47 51V49H51V51C51 51.5304 50.7893 52.0391 50.4142 52.4142C50.0391 52.7893 49.5304 53 49 53Z" fill="#C3B399"/>
<path d="M18 43H16V41C16 40.7348 15.8946 40.4804 15.7071 40.2929C15.5196 40.1054 15.2652 40 15 40H11C10.7348 40 10.4804 40.1054 10.2929 40.2929C10.1054 40.4804 10 40.7348 10 41V43H8C7.73478 43 7.48043 43.1054 7.29289 43.2929C7.10536 43.4804 7 43.7348 7 44V48C7 48.2652 7.10536 48.5196 7.29289 48.7071C7.48043 48.8946 7.73478 49 8 49H10V51C10 51.2652 10.1054 51.5196 10.2929 51.7071C10.4804 51.8946 10.7348 52 11 52H15C15.2652 52 15.5196 51.8946 15.7071 51.7071C15.8946 51.5196 16 51.2652 16 51V49H18C18.2652 49 18.5196 48.8946 18.7071 48.7071C18.8946 48.5196 19 48.2652 19 48V44C19 43.7348 18.8946 43.4804 18.7071 43.2929C18.5196 43.1054 18.2652 43 18 43ZM17 47H15C14.7348 47 14.4804 47.1054 14.2929 47.2929C14.1054 47.4804 14 47.7348 14 48V50H12V48C12 47.7348 11.8946 47.4804 11.7071 47.2929C11.5196 47.1054 11.2652 47 11 47H9V45H11C11.2652 45 11.5196 44.8946 11.7071 44.7071C11.8946 44.5196 12 44.2652 12 44V42H14V44C14 44.2652 14.1054 44.5196 14.2929 44.7071C14.4804 44.8946 14.7348 45 15 45H17V47Z" fill="#C3B399"/>
</svg>
