<svg width="60" height="60" viewBox="0 0 60 60" fill="none" xmlns="http://www.w3.org/2000/svg">
<path fill-rule="evenodd" clip-rule="evenodd" d="M27.9543 0.23096C27.6001 0.230138 27.2763 0.429864 27.1176 0.746302C26.4223 2.13123 25.5552 3.79397 24.7341 5.58822C23.248 3.90082 21.762 2.64164 19.0415 1.74822C18.9223 1.70877 18.7973 1.6948 18.6724 1.70466C18.3141 1.73425 18.0042 1.96849 17.8776 2.30466C16.9834 4.67589 16.7056 7.75644 17.0861 10.8485C15.3371 9.92219 14.0615 9.4126 12.259 8.91863C12.1678 8.89479 12.0741 8.88411 11.9795 8.88822C11.4864 8.9063 11.0935 9.30575 11.082 9.79808C11.0261 12.2901 11.8119 15.2844 13.4639 17.9178C12.005 18.1874 10.7894 18.5219 9.8442 18.863C8.69516 19.2781 8.01543 19.9652 7.75242 20.9326C5.87762 27.8227 7.46721 35.7049 12.9617 41.0811C14.4141 42.5022 14.8595 43.7794 14.9458 45.2868C15.0321 46.7942 14.6795 48.5474 14.3516 50.6129C14.2028 51.5532 14.3845 52.5074 14.8908 53.326C15.3971 54.1447 16.182 54.8351 17.2086 55.4852C21.3124 58.0841 28.2724 59.7715 33.5056 59.1066C34.4705 58.9841 35.3615 58.657 36.0354 58.0036C36.7094 57.3501 37.1105 56.4279 37.2847 55.3151C37.4631 54.1742 37.6472 53.3679 37.916 52.9923C38.1839 52.6167 38.5242 52.3882 39.7604 52.4096C41.0245 52.4318 42.3609 52.5723 43.6258 52.1063C44.8908 51.6403 45.8779 50.3737 46.0883 48.3929C46.1828 47.5044 46.0152 47.6112 46.6053 46.8452C47.2086 46.0619 47.6409 45.4866 47.7576 44.7099C47.8242 44.271 47.5604 43.8773 47.4108 43.472C48.7069 43.2477 48.9157 41.9104 48.5828 40.8567L47.8604 38.5742L50.6697 37.5263C51.5056 37.214 52.0637 36.4742 52.1976 35.7058C52.3316 34.9373 52.1105 34.1433 51.5976 33.5145C49.9678 31.5181 48.5138 30.4734 47.7034 28.6184C47.2702 27.6271 47.4034 26.7962 47.6491 25.5123C47.8505 24.4578 48.0798 23.1559 48.0437 21.5293C48.01 19.9932 47.133 19.3323 46.053 18.863C45.1324 18.4627 43.8946 18.1866 42.4382 17.9178C44.0886 15.2844 44.8719 12.291 44.816 9.79808C44.8045 9.2737 44.3623 8.86192 43.8387 8.88822C43.7713 8.89151 43.7047 8.90137 43.6398 8.91863C41.8349 9.41342 40.5617 9.92466 38.811 10.8534C39.1924 7.76055 38.9163 4.67753 38.0212 2.30548C37.8741 1.91425 37.4845 1.66849 37.0678 1.70548C36.9954 1.71206 36.9247 1.72603 36.8557 1.74904C34.1352 2.64247 32.6524 3.90329 31.168 5.59068C30.3445 3.79562 29.4749 2.13288 28.7795 0.747124C28.6226 0.433973 28.3036 0.234247 27.9543 0.23096ZM27.9494 3.62301C29.391 6.49397 31.1228 9.72493 31.7343 12.9C32.1075 14.8364 32.091 16.6266 31.4984 18.111C30.9609 19.4573 29.751 20.5348 27.9494 21.4241C26.1478 20.5348 24.9428 19.4564 24.4053 18.111C23.8127 16.6266 23.7897 14.8364 24.1628 12.9C24.7743 9.72493 26.5078 6.49479 27.9494 3.62301ZM36.4497 4.04055C37.2124 6.83671 37.311 10.6455 36.2376 14.04C35.5357 16.2608 34.436 18.2055 32.8826 19.5411C33.0108 19.2995 33.1275 19.0545 33.2278 18.803C34.0045 16.8592 33.9831 14.7016 33.568 12.5474C33.2417 10.8526 32.6664 9.14466 31.9998 7.50493C33.3962 5.87753 34.542 4.86411 36.4497 4.04055ZM19.4491 4.04712C21.3552 4.86986 22.505 5.87836 23.9023 7.50329C23.2365 9.14301 22.6636 10.8518 22.3373 12.5474C21.9223 14.7016 21.8993 16.8592 22.676 18.803C22.7779 19.0578 22.8971 19.3068 23.0278 19.551C21.4678 18.2145 20.3656 16.2666 19.6612 14.04C18.5886 10.6479 18.688 6.84247 19.4491 4.04712ZM13.2346 11.3704C14.5645 11.8241 15.6987 12.2334 17.5078 13.223C17.6187 13.6874 17.7379 14.151 17.8817 14.6055C18.891 17.797 20.7971 20.7247 23.6976 22.2255C20.631 22.1236 18.296 20.7838 16.5412 18.9058C14.5036 16.7244 13.5395 13.846 13.2346 11.3704ZM42.6617 11.3704C42.3568 13.846 41.3927 16.7244 39.3552 18.9058C37.6012 20.783 35.2694 22.1219 32.2053 22.2255C35.1042 20.7238 37.0061 17.7962 38.0146 14.6055C38.1576 14.1526 38.2776 13.6899 38.3886 13.2263C40.1993 12.2351 41.3327 11.8249 42.6617 11.3704ZM9.2442 22.8321C10.8395 23.5595 12.7349 23.9392 14.1642 24.1792C17.728 24.7767 22.5839 25.1375 27.9486 25.1375C33.3132 25.1375 38.1691 24.7742 41.733 24.1792C43.2469 23.8726 44.825 23.5833 46.1508 23.0605C46.0801 23.8085 45.9445 24.4882 45.8154 25.1622C45.5639 26.4764 45.3363 27.8655 45.9921 29.3663C47.0171 31.7121 48.6469 32.9318 50.1543 34.694C50.5365 35.1403 50.4478 35.6194 50.0212 35.7789L47.151 36.8531C46.9653 36.923 46.6135 37.0348 46.2954 37.4121C45.9773 37.7885 45.8639 38.446 46.0341 38.9836L46.805 41.4156C46.9283 41.8036 46.9045 42.0518 46.3382 42.0526C45.6239 42.0542 45.1776 42.8277 45.5327 43.4474C45.8984 44.0811 45.9371 44.2825 45.9149 44.4312C45.8927 44.58 45.6946 44.9671 45.1267 45.7044C44.3689 46.689 44.3204 47.4493 44.2406 48.1989C44.0746 49.7564 43.6653 50.1049 42.979 50.3581C42.2927 50.6112 41.1206 50.5693 39.7924 50.5463C38.2332 50.5192 37.0521 50.9959 36.402 51.9058C35.7519 52.8156 35.622 53.8825 35.442 55.0315C35.3089 55.8822 35.0623 56.3614 34.745 56.6688C34.4278 56.9762 33.9847 57.1677 33.2762 57.2581C28.6743 57.8425 21.7809 56.1781 18.2056 53.9145C17.3269 53.3581 16.7713 52.8255 16.4763 52.3496C16.182 51.8737 16.1031 51.4594 16.1902 50.9047C16.5083 48.8959 16.9152 47.0425 16.8083 45.1784C16.7015 43.3142 15.9987 41.4542 14.2604 39.7537C9.66666 35.2586 8.14776 28.7918 9.2442 22.8321Z" fill="#C3B399"/>
<path d="M42.4671 29.3178C42.0594 29.3458 41.7175 29.6359 41.6238 30.0337C41.1076 32.0614 38.0624 32.8258 36.4909 31.2715C36.1244 30.9099 35.5334 30.914 35.1709 31.2805C34.8093 31.6471 34.8134 32.2381 35.18 32.6005C37.783 35.1748 42.5312 34.006 43.4254 30.489C43.5586 29.9918 43.2627 29.4805 42.7655 29.3482C42.6685 29.3219 42.5674 29.3112 42.4671 29.3178Z" fill="#C3B399"/>
</svg>
