<svg width="60" height="60" viewBox="0 0 60 60" fill="none" xmlns="http://www.w3.org/2000/svg">
<path d="M58.9999 29H52.7399C47.2418 29.0079 41.9711 31.1956 38.0833 35.0834C34.1955 38.9712 32.0079 44.2418 31.9999 49.74V55.59L30.2899 57.29C30.1962 57.383 30.1218 57.4936 30.071 57.6154C30.0203 57.7373 29.9941 57.868 29.9941 58C29.9941 58.132 30.0203 58.2627 30.071 58.3846C30.1218 58.5064 30.1962 58.617 30.2899 58.71C30.3829 58.8037 30.4935 58.8781 30.6154 58.9289C30.7372 58.9797 30.8679 59.0058 30.9999 59.0058C31.132 59.0058 31.2627 58.9797 31.3845 58.9289C31.5064 58.8781 31.617 58.8037 31.7099 58.71L33.4099 57H39.2599C44.7581 56.9921 50.0288 54.8044 53.9166 50.9166C57.8044 47.0288 59.992 41.7582 59.9999 36.26V30C59.9999 29.7348 59.8946 29.4804 59.707 29.2929C59.5195 29.1054 59.2652 29 58.9999 29ZM57.9999 36.26C57.992 41.2277 56.0151 45.9897 52.5024 49.5024C48.9896 53.0151 44.2277 54.9921 39.2599 55H35.4099L37.4099 53H43.9999C44.2652 53 44.5195 52.8946 44.707 52.7071C44.8946 52.5196 44.9999 52.2652 44.9999 52C44.9999 51.7348 44.8946 51.4804 44.707 51.2929C44.5195 51.1054 44.2652 51 43.9999 51H39.4099L43.4099 47H50.9999C51.2652 47 51.5195 46.8946 51.707 46.7071C51.8946 46.5196 51.9999 46.2652 51.9999 46C51.9999 45.7348 51.8946 45.4804 51.707 45.2929C51.5195 45.1054 51.2652 45 50.9999 45H45.4099L49.4099 41H54.9999C55.2652 41 55.5195 40.8946 55.707 40.7071C55.8946 40.5196 55.9999 40.2652 55.9999 40C55.9999 39.7348 55.8946 39.4804 55.707 39.2929C55.5195 39.1054 55.2652 39 54.9999 39H51.4099L54.7099 35.71C54.8982 35.5217 55.004 35.2663 55.004 35C55.004 34.7337 54.8982 34.4783 54.7099 34.29C54.5216 34.1017 54.2662 33.9959 53.9999 33.9959C53.7336 33.9959 53.4782 34.1017 53.2899 34.29L49.9999 37.59V34C49.9999 33.7348 49.8946 33.4804 49.707 33.2929C49.5195 33.1054 49.2652 33 48.9999 33C48.7347 33 48.4804 33.1054 48.2928 33.2929C48.1053 33.4804 47.9999 33.7348 47.9999 34V39.59L43.9999 43.59V38C43.9999 37.7348 43.8946 37.4804 43.707 37.2929C43.5195 37.1054 43.2652 37 42.9999 37C42.7347 37 42.4804 37.1054 42.2928 37.2929C42.1053 37.4804 41.9999 37.7348 41.9999 38V45.59L37.9999 49.59V45C37.9999 44.7348 37.8946 44.4804 37.707 44.2929C37.5195 44.1054 37.2652 44 36.9999 44C36.7347 44 36.4804 44.1054 36.2928 44.2929C36.1053 44.4804 35.9999 44.7348 35.9999 45V51.59L33.9999 53.59V49.74C34.0079 44.7723 35.9848 40.0103 39.4975 36.4976C43.0102 32.9849 47.7722 31.0079 52.7399 31H57.9999V36.26Z" fill="#C3B399"/>
<path d="M1.00006 0H7.26006C12.7582 0.00793576 18.0289 2.19559 21.9167 6.08337C25.8045 9.97116 27.9921 15.2418 28.0001 20.74V26.59L29.7101 28.29C29.8038 28.383 29.8782 28.4936 29.929 28.6154C29.9797 28.7373 30.0059 28.868 30.0059 29C30.0059 29.132 29.9797 29.2627 29.929 29.3846C29.8782 29.5064 29.8038 29.617 29.7101 29.71C29.6171 29.8037 29.5065 29.8781 29.3846 29.9289C29.2628 29.9797 29.1321 30.0058 29.0001 30.0058C28.868 30.0058 28.7373 29.9797 28.6155 29.9289C28.4936 29.8781 28.383 29.8037 28.2901 29.71L26.5901 28H20.7401C15.2419 27.9921 9.97122 25.8044 6.08343 21.9166C2.19565 18.0288 0.0079968 12.7582 6.10352e-05 7.26V1C6.10352e-05 0.734784 0.105417 0.48043 0.292953 0.292893C0.48049 0.105357 0.734845 0 1.00006 0ZM2.00006 7.26C2.00799 12.2277 3.98493 16.9897 7.49764 20.5024C11.0104 24.0151 15.7723 25.9921 20.7401 26H24.5901L22.5901 24H16.0001C15.7348 24 15.4805 23.8946 15.293 23.7071C15.1054 23.5196 15.0001 23.2652 15.0001 23C15.0001 22.7348 15.1054 22.4804 15.293 22.2929C15.4805 22.1054 15.7348 22 16.0001 22H20.5901L16.5901 18H9.00006C8.73484 18 8.48049 17.8946 8.29295 17.7071C8.10542 17.5196 8.00006 17.2652 8.00006 17C8.00006 16.7348 8.10542 16.4804 8.29295 16.2929C8.48049 16.1054 8.73484 16 9.00006 16H14.5901L10.5901 12H5.00006C4.73484 12 4.48049 11.8946 4.29295 11.7071C4.10542 11.5196 4.00006 11.2652 4.00006 11C4.00006 10.7348 4.10542 10.4804 4.29295 10.2929C4.48049 10.1054 4.73484 10 5.00006 10H8.59006L5.29006 6.71C5.10176 6.5217 4.99597 6.2663 4.99597 6C4.99597 5.7337 5.10176 5.4783 5.29006 5.29C5.47837 5.1017 5.73376 4.99591 6.00006 4.99591C6.26636 4.99591 6.52176 5.1017 6.71006 5.29L10.0001 8.59V5C10.0001 4.73478 10.1054 4.48043 10.293 4.29289C10.4805 4.10536 10.7348 4 11.0001 4C11.2653 4 11.5196 4.10536 11.7072 4.29289C11.8947 4.48043 12.0001 4.73478 12.0001 5V10.59L16.0001 14.59V9C16.0001 8.73478 16.1054 8.48043 16.293 8.29289C16.4805 8.10536 16.7348 8 17.0001 8C17.2653 8 17.5196 8.10536 17.7072 8.29289C17.8947 8.48043 18.0001 8.73478 18.0001 9V16.59L22.0001 20.59V16C22.0001 15.7348 22.1054 15.4804 22.293 15.2929C22.4805 15.1054 22.7348 15 23.0001 15C23.2653 15 23.5196 15.1054 23.7072 15.2929C23.8947 15.4804 24.0001 15.7348 24.0001 16V22.59L26.0001 24.59V20.74C25.9921 15.7723 24.0152 11.0103 20.5025 7.49758C16.9898 3.98487 12.2278 2.00793 7.26006 2H2.00006V7.26Z" fill="#C3B399"/>
</svg>
