<svg width="199" height="32" viewBox="0 0 199 32" fill="none" xmlns="http://www.w3.org/2000/svg">
<path d="M9.8121 1.06057C9.8121 0.013692 8.40388 -0.395957 7.76791 0.468857C2.18047 8.70735 10.1755 9.07148 10.1755 13.0769C10.1755 14.7155 8.81272 16.0355 7.2228 15.99C5.58745 15.99 4.36093 14.67 4.36093 13.0769V9.16251C4.36093 8.16115 3.13442 7.70599 2.45303 8.43425C1.22651 9.70871 0 11.8935 0 14.5335C0 19.3582 3.90667 23.2726 8.72187 23.2726C13.4916 23.2726 17.4437 19.3582 17.4437 14.5335C17.4437 6.79565 9.8121 5.74877 9.8121 1.06057Z" fill="#FF0000"/>
<path d="M9.8121 5.42422C9.8121 4.37734 8.40388 3.96769 7.76791 4.8325C2.18047 13.071 10.1755 13.4351 10.1755 17.4406C10.1755 19.0792 8.81272 20.3992 7.2228 20.3536C5.58745 20.3536 4.36093 19.0337 4.36093 17.4406V13.5262C4.36093 12.5248 3.13442 12.0696 2.45303 12.7979C1.22651 14.0724 0 16.2572 0 18.8971C0 23.7219 3.90667 27.6363 8.72187 27.6363C13.4916 27.6363 17.4437 23.7219 17.4437 18.8971C17.4437 11.1593 9.8121 10.1124 9.8121 5.42422Z" fill="#F6B307"/>
<path d="M9.8121 9.78799C9.8121 8.74111 8.40388 8.33146 7.76791 9.19627C2.18047 17.4348 10.1755 17.7989 10.1755 21.8044C10.1755 23.4429 8.81272 24.7629 7.2228 24.7174C5.58745 24.7174 4.36093 23.3974 4.36093 21.8044V17.8899C4.36093 16.8886 3.13442 16.4334 2.45303 17.1617C1.22651 18.4361 0 20.6209 0 23.2609C0 28.0856 3.90667 32.0001 8.72187 32.0001C13.4916 32.0001 17.4437 28.0856 17.4437 23.2609C17.4437 15.5231 9.8121 14.4762 9.8121 9.78799Z" fill="#73C1BA"/>
<g clip-path="url(#clip0)">
<path fill-rule="evenodd" clip-rule="evenodd" d="M35.9692 4.74573H25.2075C24.5696 4.74573 24.0668 5.24823 24.0668 5.88573V26.4245C24.0668 27.0582 24.5696 27.5607 25.2075 27.5607C25.8454 27.5607 26.3482 27.0582 26.3482 26.4245V17.2445H33.7216C34.2919 17.2445 34.761 16.7757 34.761 16.2057C34.761 15.6357 34.2919 15.167 33.7216 15.167H26.3482V6.82323H35.9692C36.5396 6.82323 37.0086 6.35448 37.0086 5.78448C37.0086 5.21448 36.5396 4.74573 35.9692 4.74573Z" fill="#333333"/>
<path fill-rule="evenodd" clip-rule="evenodd" d="M51.7967 25.1495H42.6109V5.61949C42.6109 4.98199 42.1081 4.47949 41.4702 4.47949C40.8361 4.47949 40.3333 4.98199 40.3333 5.61949V26.1545C40.3333 26.792 40.8361 27.2945 41.4702 27.2945H51.7967C52.4008 27.2945 52.8699 26.8257 52.8699 26.222C52.8699 25.6182 52.4008 25.1495 51.7967 25.1495Z" fill="#333333"/>
<path fill-rule="evenodd" clip-rule="evenodd" d="M65.5077 5.24824C65.3388 4.84699 64.9711 4.47949 64.4008 4.47949C63.7966 4.47949 63.4964 4.84699 63.3276 5.24824L55.1475 25.922C55.0799 26.0532 55.0461 26.2895 55.0461 26.4245C55.0461 27.0245 55.549 27.5607 56.1869 27.5607C56.7572 27.5607 57.1249 27.1932 57.2938 26.7582L59.7403 20.627H69.0949L71.5077 26.792C71.6766 27.227 72.0443 27.5607 72.6147 27.5607C73.3163 27.5607 73.7854 27.0245 73.7854 26.4245C73.7854 26.3232 73.7516 26.087 73.6878 25.922L65.5077 5.24824ZM60.4458 18.5495L64.4008 8.29699L68.3895 18.5495H60.4458Z" fill="#333333"/>
<path fill-rule="evenodd" clip-rule="evenodd" d="M84.9637 17.5445C88.5847 17.3757 90.9675 14.597 90.9675 11.147C90.9675 7.56198 88.2845 4.74573 84.5622 4.74573H77.8905C77.2564 4.74573 76.7535 5.24823 76.7535 5.88573V26.4245C76.7535 27.0582 77.2564 27.5607 77.8905 27.5607C78.5284 27.5607 79.0312 27.0582 79.0312 26.4245V17.5445H82.4196L89.2226 27.0245C89.4928 27.4295 89.8605 27.5607 90.1945 27.5607C90.8324 27.5607 91.3352 27.0582 91.3352 26.4245C91.3352 26.1882 91.2676 25.922 91.0988 25.7195L84.9637 17.5445ZM79.0312 15.467V6.82323H84.5284C86.9449 6.82323 88.6523 8.66823 88.6523 11.147C88.6523 13.5582 86.9749 15.467 84.6297 15.467H79.0312Z" fill="#333333"/>
<path fill-rule="evenodd" clip-rule="evenodd" d="M95.733 27.2945H106.862C107.433 27.2945 107.902 26.8257 107.902 26.2557C107.902 25.6857 107.433 25.217 106.862 25.217H96.8737V16.9745H104.247C104.817 16.9745 105.286 16.5057 105.286 15.9357C105.286 15.3657 104.817 14.897 104.247 14.897H96.8737V6.82323H106.495C107.061 6.82323 107.534 6.35448 107.534 5.78448C107.534 5.21448 107.061 4.74573 106.495 4.74573H95.733C95.0951 4.74573 94.5923 5.24823 94.5923 5.88573V26.1545C94.5923 26.792 95.0951 27.2945 95.733 27.2945Z" fill="#333333"/>
<path fill-rule="evenodd" clip-rule="evenodd" d="M117.932 4.74573H113.208C112.57 4.74573 112.067 5.24823 112.067 5.88573V18.7137L110.793 17.4414C110.345 16.9932 109.634 16.9932 109.183 17.444C108.732 17.8947 108.732 18.6054 109.18 19.0535L112.346 22.217C112.797 22.6677 113.508 22.6677 113.959 22.217L117.247 18.9309C117.674 18.5041 117.674 17.8411 117.247 17.414C116.82 16.9872 116.156 16.9872 115.729 17.414L114.348 18.794V6.82323H117.932C122.93 6.82323 125.981 9.13698 125.981 16.037C125.981 23.0045 122.93 25.217 117.932 25.217H113.112C112.509 25.217 112.042 25.6719 112.042 26.2576C112.042 26.8434 112.509 27.2982 113.112 27.2982H113.894V27.2945H117.932C124.337 27.2945 128.292 24.3132 128.292 16.037C128.292 7.76073 124.337 4.74573 117.932 4.74573Z" fill="#333333"/>
<path fill-rule="evenodd" clip-rule="evenodd" d="M178.063 4.47949C177.425 4.47949 177.058 4.94824 176.956 5.31574L172.059 22.637L167.268 5.31574C167.133 4.77949 166.664 4.47949 166.161 4.47949C165.658 4.47949 165.189 4.77949 165.054 5.31574L160.262 22.637L155.365 5.31574C155.264 4.94824 154.896 4.47949 154.258 4.47949C153.624 4.47949 153.121 4.98199 153.121 5.61949C153.121 5.75074 153.155 5.88574 153.189 6.02074L159.121 26.7245C159.256 27.227 159.725 27.5607 160.228 27.5607C160.765 27.5607 161.2 27.227 161.331 26.6907L166.161 9.63949L170.99 26.6907C171.121 27.227 171.557 27.5607 172.093 27.5607C172.596 27.5607 173.065 27.227 173.2 26.7245L179.136 6.02074C179.166 5.88574 179.2 5.75074 179.2 5.61949C179.2 4.98199 178.697 4.47949 178.063 4.47949Z" fill="#333333"/>
<path fill-rule="evenodd" clip-rule="evenodd" d="M196.915 4.47949C196.311 4.47949 195.808 4.98199 195.808 5.58574V22.772L183.939 4.94824C183.771 4.71199 183.437 4.47949 183.035 4.47949C182.431 4.47949 181.928 4.98199 181.928 5.58574V26.4582C181.928 27.0582 182.431 27.5607 183.035 27.5607C183.639 27.5607 184.142 27.0582 184.142 26.4582V9.30199L195.94 27.092C196.176 27.3957 196.476 27.5607 196.881 27.5607C197.515 27.5607 198.018 27.0582 198.018 26.4245V5.58574C198.018 4.98199 197.515 4.47949 196.915 4.47949Z" fill="#333333"/>
<path fill-rule="evenodd" clip-rule="evenodd" d="M141.541 4.26196C135.329 4.26196 130.276 9.54421 130.276 16.037C130.276 22.5297 135.329 27.812 141.541 27.812C147.753 27.812 152.806 22.5297 152.806 16.037C152.806 9.54421 147.753 4.26196 141.541 4.26196ZM141.541 25.7495C136.467 25.7495 132.34 21.3923 132.34 16.037C132.34 10.6812 136.467 6.32446 141.541 6.32446C146.615 6.32446 150.742 10.6812 150.742 16.037C150.742 21.3923 146.615 25.7495 141.541 25.7495Z" fill="#333333"/>
</g>
<defs>
<clipPath id="clip0">
<rect width="174.109" height="24" fill="white" transform="translate(24 4)"/>
</clipPath>
</defs>
</svg>
