<svg width="138" height="40" viewBox="0 0 138 40" fill="none" xmlns="http://www.w3.org/2000/svg">
<path d="M132.447 40H5.09412C2.29235 40 0 37.75 0 35V5C0 2.25 2.29235 2.38419e-06 5.09412 2.38419e-06H132.447C135.249 2.38419e-06 137.541 2.25 137.541 5V35C137.541 37.75 135.249 40 132.447 40Z" fill="black"/>
<path d="M132.447 2.38419e-06H5.09412C2.29235 2.38419e-06 0 2.25 0 5V35C0 37.75 2.29235 40 5.09412 40H132.447C135.249 40 137.541 37.75 137.541 35V5C137.541 2.25 135.249 2.38419e-06 132.447 2.38419e-06ZM132.447 0.800002C134.807 0.800002 136.726 2.6844 136.726 5V35C136.726 37.316 134.807 39.2004 132.447 39.2004H5.09412C2.73493 39.2004 0.815059 37.316 0.815059 35V5C0.815059 2.6844 2.73493 0.800002 5.09412 0.800002H132.447Z" fill="black"/>
<path d="M48.3111 10.2434C48.3111 11.0812 48.0583 11.7484 47.552 12.2461C46.977 12.8379 46.2276 13.134 45.3063 13.134C44.424 13.134 43.6738 12.834 43.0569 12.2332C42.4389 11.6328 42.1305 10.8883 42.1305 10C42.1305 9.11133 42.4389 8.36724 43.0569 7.76644C43.6738 7.16604 44.424 6.86564 45.3063 6.86564C45.744 6.86564 46.1632 6.94964 46.5611 7.11724C46.9591 7.28524 47.2783 7.50824 47.5171 7.78754L46.9798 8.31524C46.5751 7.84064 46.0179 7.60354 45.3063 7.60354C44.6628 7.60354 44.1064 7.82544 43.6368 8.26954C43.1671 8.71414 42.9324 9.29064 42.9324 10C42.9324 10.7094 43.1671 11.2859 43.6368 11.7305C44.1064 12.1746 44.6628 12.3965 45.3063 12.3965C45.9889 12.3965 46.558 12.1734 47.0136 11.7266C47.3094 11.4355 47.4804 11.0309 47.5262 10.5113H45.3063V9.79064H48.2685C48.2971 9.94734 48.3111 10.0977 48.3111 10.2434Z" fill="white"/>
<path d="M48.311 10.2434H48.2092C48.2083 11.0621 47.9647 11.698 47.48 12.1754L47.4789 12.1762L47.4785 12.177C46.9217 12.7484 46.206 13.0328 45.3062 13.034C44.4475 13.0328 43.7287 12.7453 43.1285 12.1625C42.5296 11.5785 42.2335 10.8656 42.2323 10C42.2335 9.134 42.5296 8.4215 43.1285 7.8379C43.7287 7.2547 44.4475 6.9668 45.3062 6.9656C45.7309 6.9656 46.1352 7.0469 46.5209 7.209C46.9069 7.3723 47.2118 7.5863 47.439 7.852L47.5171 7.7875L47.445 7.7168L46.9077 8.2449L46.9797 8.31521L47.0582 8.2512C46.6347 7.7531 46.0402 7.502 45.3062 7.5035C44.6389 7.5027 44.0518 7.7367 43.5663 8.1977C43.076 8.6602 42.8297 9.26911 42.8305 10C42.8297 10.7309 43.076 11.3398 43.5663 11.8023C44.0518 12.2633 44.6389 12.4973 45.3062 12.4965C46.0114 12.4977 46.6125 12.2629 47.0856 11.7973C47.4016 11.4863 47.5807 11.0555 47.6277 10.5199L47.6372 10.4113H45.4081V9.89061H48.2684V9.79061L48.1681 9.80821C48.196 9.95981 48.2092 10.1039 48.2092 10.2434H48.311H48.4129C48.4129 10.0914 48.3985 9.9352 48.3687 9.7727L48.3536 9.69061H45.2043V10.5113V10.6113H47.5261V10.5113L47.4247 10.5027C47.3797 11.0059 47.2165 11.3848 46.9415 11.6559C46.5037 12.084 45.9665 12.2953 45.3062 12.2965C44.6866 12.2957 44.1609 12.0863 43.7076 11.6586C43.2587 11.2324 43.0354 10.6883 43.0342 10C43.0354 9.3117 43.2587 8.7676 43.7076 8.3414C44.1609 7.9137 44.6866 7.7043 45.3062 7.7035C45.9951 7.7051 46.5154 7.9285 46.9018 8.3797L46.9734 8.4633L47.5891 7.8582L47.6551 7.7934L47.595 7.7234C47.3447 7.4305 47.0112 7.198 46.6012 7.0254C46.1906 6.8523 45.7571 6.7656 45.3062 6.7656C44.4005 6.7648 43.6188 7.0773 42.9848 7.6957C42.3485 8.3129 42.0278 9.0887 42.0286 10C42.0278 10.9109 42.3485 11.6871 42.9852 12.3047C43.6188 12.9227 44.4005 13.2348 45.3062 13.234C46.2494 13.2348 47.0319 12.9273 47.6257 12.3152L47.552 12.2461L47.624 12.3168C48.1518 11.7992 48.4136 11.1 48.4129 10.2434H48.311Z" fill="white"/>
<path d="M53.0071 7.7371H50.2233V9.6395H52.7337V10.3605H50.2233V12.2629H53.0071V13H49.4385V7H53.0071V7.7371Z" fill="white"/>
<path d="M53.0071 7.73708V7.63708H50.1214V9.73947H52.6319V10.2602L50.1214 10.2605V12.3629H52.9052V12.9H49.5403V7.09998H52.9052V7.73708H53.0071V7.63708V7.73708H53.109V6.99998V6.89998H49.3365V13.1H53.109V12.2629V12.1629H50.3251V10.4605H52.8356V9.63947V9.53947H50.3251V7.83708H53.109V7.73708H53.0071Z" fill="white"/>
<path d="M56.3194 13H55.5334V7.7371H53.826V7H58.0268V7.7371H56.3194V13Z" fill="white"/>
<path d="M56.3193 13V12.9H55.6351V7.63708H53.9278V7.09998H57.9247V7.63708H56.2174V13H56.3193V12.9V13H56.4211V7.83708H58.1285V6.99998V6.89998H53.724V7.73708V7.83708H55.4313V13.1H56.3193H56.4211V13H56.3193Z" fill="white"/>
<path d="M61.066 13V7H61.8512V13H61.066Z" fill="white"/>
<path d="M61.0661 13H61.168V7.09998H61.7494V12.9H61.0661V13H61.168H61.0661V13.1H61.8513H61.9532V6.89998H61.0661H60.9642V13.1H61.0661V13Z" fill="white"/>
<path d="M65.3357 13H64.5496V7.7371H62.8424V7H67.043V7.7371H65.3357V13Z" fill="white"/>
<path d="M65.3356 13V12.9H64.6515V7.63708H62.9442V7.09998H66.9411V7.63708H65.2337V13H65.3356V12.9V13H65.4375V7.83708H67.1449V6.99998V6.89998H62.7405V7.73708V7.83708H64.4477V13.1H65.3356H65.4375V13H65.3356Z" fill="white"/>
<path d="M71.093 11.7223C71.5455 12.1719 72.0991 12.3965 72.7538 12.3965C73.4085 12.3965 73.9624 12.1719 74.4142 11.7223C74.867 11.2727 75.0939 10.698 75.0939 10C75.0939 9.30203 74.867 8.72734 74.4142 8.27774C73.9624 7.82814 73.4085 7.60354 72.7538 7.60354C72.0991 7.60354 71.5455 7.82814 71.093 8.27774C70.6413 8.72734 70.4145 9.30203 70.4145 10C70.4145 10.698 70.6413 11.2727 71.093 11.7223ZM74.9952 12.2246C74.3942 12.8312 73.6468 13.134 72.7538 13.134C71.8599 13.134 71.1129 12.8312 70.5132 12.2246C69.9118 11.6187 69.6125 10.877 69.6125 10C69.6125 9.12304 69.9118 8.38124 70.5132 7.77544C71.1129 7.16874 71.8599 6.86564 72.7538 6.86564C73.6421 6.86564 74.3875 7.17034 74.9912 7.77934C75.5942 8.38834 75.8958 9.12854 75.8958 10C75.8958 10.877 75.5949 11.6187 74.9952 12.2246Z" fill="white"/>
<path d="M71.093 11.7223L71.0205 11.7926C71.4898 12.2602 72.0752 12.4977 72.7537 12.4965C73.4319 12.4977 74.0181 12.2602 74.4865 11.7926C74.9589 11.3246 75.1965 10.7191 75.1957 10C75.1965 9.28091 74.9589 8.67541 74.4865 8.20741C74.0181 7.73981 73.4319 7.50231 72.7537 7.50351C72.0752 7.50231 71.4898 7.73981 71.0205 8.20741C70.5493 8.67541 70.3113 9.28091 70.3125 10C70.3113 10.7191 70.5493 11.3246 71.0205 11.7926L71.093 11.7223L71.1654 11.652C70.7332 11.2203 70.5171 10.6773 70.5163 10C70.5171 9.32271 70.7332 8.77971 71.1654 8.34801C71.6016 7.91641 72.1225 7.70471 72.7537 7.70351C73.3845 7.70471 73.9066 7.91641 74.3417 8.34801C74.7747 8.77971 74.9908 9.32271 74.9916 10C74.9908 10.6773 74.7747 11.2203 74.3417 11.652C73.9066 12.0836 73.3845 12.2953 72.7537 12.2965C72.1225 12.2953 71.6016 12.0836 71.1654 11.652L71.093 11.7223ZM74.9951 12.2246L74.9223 12.1551C74.3381 12.7426 73.6237 13.0328 72.7537 13.034C71.8834 13.0328 71.169 12.7426 70.5859 12.1551L70.5831 12.152L70.5859 12.1551C70.0029 11.5656 69.7152 10.8547 69.7144 10C69.7152 9.14531 70.0029 8.43441 70.5859 7.84491C71.169 7.25741 71.8834 6.96681 72.7537 6.96561C73.6181 6.96681 74.3309 7.25861 74.9183 7.84921C75.5033 8.44141 75.7927 9.15121 75.7939 10C75.7927 10.8547 75.5041 11.5656 74.9223 12.1551L74.9951 12.2246L75.0684 12.2941C75.686 11.6715 75.9984 10.8992 75.9977 10C75.9984 9.10591 75.6848 8.33521 75.0643 7.70981C74.4436 7.08201 73.6659 6.76451 72.7537 6.76561C71.8368 6.76451 71.0568 7.08051 70.4399 7.70591V7.70551C69.8211 8.32851 69.5098 9.10081 69.5106 10C69.5098 10.8992 69.8211 11.6715 70.4399 12.2945L70.4426 12.2973L70.4399 12.2941C71.0568 12.9195 71.8368 13.2348 72.7537 13.234C73.6703 13.2348 74.4503 12.9195 75.0684 12.2941L74.9951 12.2246Z" fill="white"/>
<path d="M76.9978 13V7H77.9538L80.9247 11.6676H80.9585L80.9247 10.5113V7H81.7107V13H80.8908L77.7826 8.1062H77.7488L77.7826 9.2629V13H76.9978Z" fill="white"/>
<path d="M76.9978 13H77.0996V7.09998H77.8972L80.868 11.7676H80.9584H81.063L81.0265 10.5098V7.09998H81.6087V12.9H80.9473L77.8391 8.00618H77.7487H77.6441L77.6807 9.26447V12.9H76.9978V13H77.0996H76.9978V13.1H77.7825H77.8844V9.26128L77.8506 8.10348L77.7487 8.10618V8.20618H77.7825V8.10618L77.6962 8.15938L80.8342 13.1H81.7106H81.8125V6.89998H80.9246H80.8227V10.5125L80.8565 11.6703L80.9584 11.6676V11.5676H80.9246V11.6676L81.011 11.6145L78.0102 6.89998H76.9978H76.8959V13.1H76.9978V13Z" fill="white"/>
<path d="M108.949 30H110.85V17.4988H108.949V30ZM126.072 22.002L123.893 27.4219H123.828L121.566 22.002H119.518L122.91 29.5773L120.976 33.791H122.96L128.186 22.002H126.072ZM115.291 28.5801C114.668 28.5801 113.8 28.2746 113.8 27.5184C113.8 26.5535 114.882 26.1836 115.815 26.1836C116.651 26.1836 117.044 26.3605 117.552 26.602C117.404 27.7598 116.388 28.5801 115.291 28.5801ZM115.52 21.7285C114.144 21.7285 112.719 22.3238 112.129 23.6426L113.816 24.334C114.177 23.6426 114.848 23.4172 115.553 23.4172C116.536 23.4172 117.536 23.9965 117.552 25.0258V25.1543C117.208 24.9613 116.471 24.6719 115.569 24.6719C113.751 24.6719 111.899 25.6527 111.899 27.4863C111.899 29.159 113.39 30.2367 115.061 30.2367C116.34 30.2367 117.044 29.6738 117.487 29.0145H117.552V29.9793H119.387V25.1863C119.387 22.9672 117.7 21.7285 115.52 21.7285ZM103.771 23.5238H101.067V19.2387H103.771C105.193 19.2387 106 20.3937 106 21.3812C106 22.35 105.193 23.5238 103.771 23.5238ZM103.722 17.4988H99.1673V30H101.067V25.2637H103.722C105.829 25.2637 107.901 23.7664 107.901 21.3812C107.901 18.9961 105.829 17.4988 103.722 17.4988ZM78.8825 28.5824C77.5692 28.5824 76.4695 27.5031 76.4695 26.0207C76.4695 24.5227 77.5692 23.427 78.8825 23.427C80.1792 23.427 81.1968 24.5227 81.1968 26.0207C81.1968 27.5031 80.1792 28.5824 78.8825 28.5824ZM81.0655 22.702H80.9997C80.5732 22.2027 79.7521 21.7516 78.7182 21.7516C76.5516 21.7516 74.5657 23.6203 74.5657 26.0207C74.5657 28.4051 76.5516 30.2578 78.7182 30.2578C79.7521 30.2578 80.5732 29.8066 80.9997 29.2914H81.0655V29.9035C81.0655 31.5309 80.1792 32.4008 78.7512 32.4008C77.5859 32.4008 76.8636 31.5789 76.5679 30.8863L74.9103 31.5629C75.3863 32.6906 76.6503 34.0762 78.7512 34.0762C80.9834 34.0762 82.871 32.7871 82.871 29.6457V22.0094H81.0655V22.702ZM84.184 30H86.088V17.4984H84.184V30ZM88.8948 25.8758C88.8455 24.2324 90.1915 23.3949 91.1598 23.3949C91.9153 23.3949 92.5551 23.7652 92.7681 24.2973L88.8948 25.8758ZM94.8037 24.4582C94.443 23.5074 93.3427 21.7516 91.094 21.7516C88.8618 21.7516 87.0072 23.4754 87.0072 26.0047C87.0072 28.3891 88.8455 30.2578 91.3074 30.2578C93.2938 30.2578 94.443 29.0656 94.9188 28.373L93.4415 27.4062C92.9494 28.1152 92.276 28.5824 91.3074 28.5824C90.3391 28.5824 89.6499 28.1473 89.2065 27.2937L95.0003 24.9414L94.8037 24.4582ZM48.6426 23.0566V24.8609H53.0414C52.9101 25.8758 52.5654 26.6168 52.0401 27.1324C51.4002 27.7609 50.3989 28.4535 48.6426 28.4535C45.9343 28.4535 43.8171 26.3109 43.8171 23.6527C43.8171 20.9945 45.9343 18.8516 48.6426 18.8516C50.1035 18.8516 51.1701 19.4156 51.9581 20.1406L53.2547 18.868C52.1551 17.8367 50.6941 17.0473 48.6426 17.0473C44.933 17.0473 41.8145 20.0117 41.8145 23.6527C41.8145 27.2937 44.933 30.2578 48.6426 30.2578C50.6452 30.2578 52.1551 29.6137 53.3367 28.4051C54.5514 27.2129 54.9291 25.5375 54.9291 24.1844C54.9291 23.7652 54.8964 23.3789 54.8303 23.0566H48.6426ZM59.9301 28.5824C58.6167 28.5824 57.4841 27.5191 57.4841 26.0047C57.4841 24.4742 58.6167 23.427 59.9301 23.427C61.2429 23.427 62.3755 24.4742 62.3755 26.0047C62.3755 27.5191 61.2429 28.5824 59.9301 28.5824ZM59.9301 21.7516C57.5334 21.7516 55.5801 23.5398 55.5801 26.0047C55.5801 28.4535 57.5334 30.2578 59.9301 30.2578C62.3262 30.2578 64.2795 28.4535 64.2795 26.0047C64.2795 23.5398 62.3262 21.7516 59.9301 21.7516ZM69.4186 28.5824C68.1057 28.5824 66.973 27.5191 66.973 26.0047C66.973 24.4742 68.1057 23.427 69.4186 23.427C70.7315 23.427 71.8642 24.4742 71.8642 26.0047C71.8642 27.5191 70.7315 28.5824 69.4186 28.5824ZM69.4186 21.7516C67.022 21.7516 65.0691 23.5398 65.0691 26.0047C65.0691 28.4535 67.022 30.2578 69.4186 30.2578C71.8148 30.2578 73.7681 28.4535 73.7681 26.0047C73.7681 23.5398 71.8148 21.7516 69.4186 21.7516Z" fill="white"/>
<path d="M10.7077 32.3895L10.632 32.3184C10.3356 32.0105 10.1605 31.5324 10.1605 30.9133V31.059V8.94302C10.1605 8.94102 10.1605 8.93952 10.1605 8.93792C10.1605 8.93982 10.1605 8.94142 10.1605 8.94342V9.08952C10.1605 8.41912 10.3646 7.91412 10.7065 7.61132L23.3295 20.0008L10.7077 32.3895ZM10.1605 8.93672C10.1605 8.88162 10.1621 8.82812 10.1649 8.77542C10.1621 8.82772 10.1605 8.88162 10.1605 8.93672ZM10.1649 8.77302C10.1649 8.77232 10.1649 8.77152 10.1652 8.77072C10.1649 8.77152 10.1649 8.77232 10.1649 8.77302ZM10.1652 8.76602C10.1652 8.76562 10.1652 8.76522 10.1652 8.76482C10.1652 8.76522 10.1652 8.76562 10.1652 8.76602Z" fill="url(#paint0_linear)"/>
<path d="M27.5366 24.2784L27.6326 24.2249L32.6176 21.4448C33.0929 21.1796 33.4096 20.8581 33.5676 20.5179C33.41 20.8581 33.0932 21.18 32.6176 21.4452L27.6326 24.2253L27.5366 24.2784ZM27.5378 24.1319L23.3296 20.0007L27.5374 15.8702L32.6176 18.703C33.2627 19.0628 33.6249 19.5265 33.6854 20.0003C33.6854 20.0007 33.6854 20.0015 33.6854 20.0022C33.6249 20.4749 33.2627 20.939 32.6176 21.2987L27.5378 24.1319Z" fill="url(#paint1_linear)"/>
<path d="M11.6073 32.8613C11.2547 32.8613 10.947 32.7488 10.7071 32.5363L10.7075 32.5359C10.9474 32.7484 11.2555 32.8613 11.6081 32.8613C11.6387 32.8613 11.6697 32.8605 11.7012 32.859C11.6693 32.8605 11.6379 32.8613 11.6073 32.8613ZM11.6077 32.7148C11.2551 32.7152 10.9474 32.6023 10.7075 32.3898V32.3895L23.3293 20.0008L27.5375 24.132L12.7491 32.3793C12.3399 32.607 11.9523 32.7148 11.6077 32.7148ZM10.7039 32.5336C10.6816 32.5137 10.6597 32.4926 10.6382 32.4707L10.7039 32.5336Z" fill="url(#paint2_linear)"/>
<path d="M23.3297 20.0009L10.7067 7.61135C10.9466 7.39925 11.2539 7.28675 11.6061 7.28675C11.9516 7.28675 12.3395 7.39495 12.7495 7.62305L27.5375 15.8704L23.3297 20.0009ZM27.6327 15.7771L12.7495 7.47705C12.3395 7.24885 11.9516 7.14065 11.6061 7.14065C11.6045 7.14065 11.6033 7.14065 11.6017 7.14065C11.6037 7.14065 11.6053 7.14065 11.6077 7.14065C11.9524 7.14065 12.3399 7.24845 12.7495 7.47665L27.6327 15.7771Z" fill="url(#paint3_linear)"/>
<path d="M11.7012 32.859C12.0215 32.841 12.3761 32.7328 12.749 32.5254L27.5362 24.2785L12.749 32.5254C12.3764 32.7332 12.0215 32.841 11.7012 32.859ZM10.707 32.5363L10.7038 32.5336C10.705 32.5344 10.7062 32.5355 10.707 32.5363ZM10.6381 32.4707L10.6317 32.4645V32.4641C10.6342 32.4664 10.6361 32.4687 10.6381 32.4707Z" fill="black"/>
<path d="M27.5364 24.2784L27.6323 24.2249L27.5364 24.2784Z" fill="url(#paint4_linear)"/>
<path d="M11.6081 32.8613C11.2554 32.8613 10.9473 32.7484 10.7074 32.5359L10.707 32.5363C10.7062 32.5355 10.705 32.5344 10.7038 32.5336L10.6381 32.4707C10.6361 32.4687 10.6342 32.4664 10.6317 32.4641L10.7074 32.3898C10.9473 32.6023 11.255 32.7152 11.6076 32.7148C11.9522 32.7148 12.3399 32.607 12.749 32.3793L27.5375 24.132L27.6322 24.225L27.5362 24.2785L12.749 32.5254C12.3761 32.7328 12.0215 32.841 11.7012 32.859C11.6697 32.8605 11.6386 32.8613 11.6081 32.8613Z" fill="url(#paint5_linear)"/>
<path d="M10.632 32.4645C10.3356 32.1566 10.1605 31.6785 10.1605 31.0594V31.059C10.1605 31.6785 10.3356 32.1562 10.632 32.4641V32.4645Z" fill="black"/>
<path d="M10.632 32.4641C10.3356 32.1562 10.1605 31.6785 10.1605 31.059V30.9133C10.1605 31.5324 10.3356 32.0105 10.632 32.3184L10.7077 32.3895L10.632 32.4641Z" fill="url(#paint6_linear)"/>
<path d="M10.6317 32.4641L10.7073 32.3895V32.3898L10.6317 32.4641Z" fill="url(#paint7_linear)"/>
<path d="M33.5675 20.5179C33.6459 20.3491 33.6853 20.1757 33.6853 20.0022C33.6853 20.0019 33.6853 20.0015 33.6853 20.0015C33.6853 20.1753 33.6459 20.3487 33.5675 20.5179Z" fill="black"/>
<path d="M27.6323 24.225L27.5376 24.132L32.6174 21.2988C33.2625 20.9391 33.6247 20.475 33.6852 20.0023C33.6852 20.1758 33.6458 20.3492 33.5674 20.518C33.4094 20.8582 33.0926 21.1797 32.6174 21.4449L27.6323 24.225Z" fill="url(#paint8_linear)"/>
<path d="M33.6852 20.0009V20.0005C33.6848 19.4774 33.3286 18.9544 32.6174 18.5575L27.6324 15.7774H27.632L27.6324 15.7771L32.6174 18.5571C33.3294 18.954 33.686 19.4778 33.6852 20.0009Z" fill="black"/>
<path d="M33.6853 20.0004C33.6248 19.5266 33.2626 19.0629 32.6175 18.7031L27.5374 15.8703L27.6321 15.7773H27.6325L32.6175 18.5574C33.3288 18.9543 33.6849 19.4773 33.6853 20.0004Z" fill="url(#paint9_linear)"/>
<path d="M10.1605 8.93787C10.1605 8.93747 10.1605 8.93707 10.1605 8.93667C10.1605 8.93707 10.1605 8.93747 10.1605 8.93787ZM10.1649 8.77537C10.1649 8.77457 10.1649 8.77377 10.1649 8.77297C10.1649 8.77377 10.1649 8.77457 10.1649 8.77537ZM10.1652 8.77067C10.1652 8.76907 10.1652 8.76757 10.1652 8.76597C10.1652 8.76757 10.1652 8.76907 10.1652 8.77067ZM10.1652 8.76477C10.2242 7.73747 10.7933 7.14406 11.5984 7.14056C11.2493 7.14256 10.9453 7.25506 10.7073 7.46556V7.46516L10.7045 7.46796C10.6794 7.49016 10.6556 7.51366 10.632 7.53786C10.3646 7.81556 10.1959 8.23157 10.1652 8.76477Z" fill="black"/>
<path d="M10.1605 9.08948V8.94338C10.1605 8.94138 10.1605 8.93978 10.1605 8.93788C10.1605 8.93748 10.1605 8.93708 10.1605 8.93668C10.1605 8.88158 10.1621 8.82768 10.1649 8.77538C10.1649 8.77458 10.1649 8.77378 10.1649 8.77298C10.1649 8.77228 10.1649 8.77148 10.1652 8.77068C10.1652 8.76908 10.1652 8.76758 10.1652 8.76598C10.1652 8.76558 10.1652 8.76518 10.1652 8.76478C10.1959 8.23158 10.3646 7.81557 10.632 7.53787L10.7065 7.61127C10.3646 7.91408 10.1605 8.41908 10.1605 9.08948ZM10.7045 7.46797L10.7073 7.46517C10.7065 7.46637 10.7053 7.46717 10.7045 7.46797Z" fill="url(#paint10_linear)"/>
<path d="M27.5371 15.8702L12.749 7.62294C12.3391 7.39484 11.9511 7.28664 11.6056 7.28664C11.2534 7.28664 10.9461 7.39914 10.7062 7.61124L10.6317 7.53784C10.6552 7.51364 10.6791 7.49014 10.7042 7.46794C10.705 7.46714 10.7062 7.46634 10.707 7.46554C10.945 7.25504 11.249 7.14254 11.5981 7.14054C11.5989 7.14054 11.6 7.14054 11.6012 7.14054C11.6029 7.14054 11.604 7.14054 11.6056 7.14054C11.9511 7.14054 12.3391 7.24874 12.749 7.47694L27.6322 15.7769L27.6318 15.7772L27.5371 15.8702Z" fill="url(#paint11_linear)"/>
<defs>
<linearGradient id="paint0_linear" x1="22.2103" y1="8.70972" x2="5.43066" y2="25.8052" gradientUnits="userSpaceOnUse">
<stop stop-color="#00A0FF"/>
<stop offset="0.00657445" stop-color="#00A1FF"/>
<stop offset="0.2601" stop-color="#00BEFF"/>
<stop offset="0.5122" stop-color="#00D2FF"/>
<stop offset="0.7604" stop-color="#00DFFF"/>
<stop offset="1" stop-color="#00E3FF"/>
</linearGradient>
<linearGradient id="paint1_linear" x1="34.4714" y1="20.0013" x2="9.81897" y2="20.0013" gradientUnits="userSpaceOnUse">
<stop stop-color="#FFE000"/>
<stop offset="0.4087" stop-color="#FFBD00"/>
<stop offset="0.7754" stop-color="#FFA500"/>
<stop offset="1" stop-color="#FF9C00"/>
</linearGradient>
<linearGradient id="paint2_linear" x1="25.2942" y1="22.2961" x2="2.53981" y2="45.4788" gradientUnits="userSpaceOnUse">
<stop stop-color="#FF3A44"/>
<stop offset="1" stop-color="#C31162"/>
</linearGradient>
<linearGradient id="paint3_linear" x1="7.43491" y1="0.17625" x2="17.5956" y2="10.5282" gradientUnits="userSpaceOnUse">
<stop stop-color="#32A071"/>
<stop offset="0.0685" stop-color="#2DA771"/>
<stop offset="0.4762" stop-color="#15CF74"/>
<stop offset="0.8009" stop-color="#06E775"/>
<stop offset="1" stop-color="#00F076"/>
</linearGradient>
<linearGradient id="paint4_linear" x1="34.4662" y1="20.001" x2="9.8315" y2="20.001" gradientUnits="userSpaceOnUse">
<stop stop-color="#CCB300"/>
<stop offset="0.4087" stop-color="#CC9700"/>
<stop offset="0.7754" stop-color="#CC8400"/>
<stop offset="1" stop-color="#CC7D00"/>
</linearGradient>
<linearGradient id="paint5_linear" x1="25.2941" y1="22.2961" x2="2.53975" y2="45.4788" gradientUnits="userSpaceOnUse">
<stop stop-color="#CC2E36"/>
<stop offset="1" stop-color="#9C0E4E"/>
</linearGradient>
<linearGradient id="paint6_linear" x1="22.2102" y1="8.70971" x2="5.43064" y2="25.8051" gradientUnits="userSpaceOnUse">
<stop stop-color="#008DE0"/>
<stop offset="0.00657445" stop-color="#008DE0"/>
<stop offset="0.2601" stop-color="#00A7E0"/>
<stop offset="0.5122" stop-color="#00B8E0"/>
<stop offset="0.7604" stop-color="#00C4E0"/>
<stop offset="1" stop-color="#00C7E0"/>
</linearGradient>
<linearGradient id="paint7_linear" x1="25.2737" y1="22.296" x2="2.51855" y2="45.447" gradientUnits="userSpaceOnUse">
<stop stop-color="#E0333C"/>
<stop offset="1" stop-color="#AB0F56"/>
</linearGradient>
<linearGradient id="paint8_linear" x1="34.4712" y1="20.0014" x2="9.81872" y2="20.0014" gradientUnits="userSpaceOnUse">
<stop stop-color="#E0C500"/>
<stop offset="0.4087" stop-color="#E0A600"/>
<stop offset="0.7754" stop-color="#E09100"/>
<stop offset="1" stop-color="#E08900"/>
</linearGradient>
<linearGradient id="paint9_linear" x1="34.4714" y1="20.0014" x2="9.8189" y2="20.0014" gradientUnits="userSpaceOnUse">
<stop stop-color="#FFE840"/>
<stop offset="0.4087" stop-color="#FFCE40"/>
<stop offset="0.7754" stop-color="#FFBC40"/>
<stop offset="1" stop-color="#FFB540"/>
</linearGradient>
<linearGradient id="paint10_linear" x1="22.2102" y1="8.70968" x2="5.43062" y2="25.8051" gradientUnits="userSpaceOnUse">
<stop stop-color="#40B8FF"/>
<stop offset="0.00657445" stop-color="#40B9FF"/>
<stop offset="0.2601" stop-color="#40CEFF"/>
<stop offset="0.5122" stop-color="#40DDFF"/>
<stop offset="0.7604" stop-color="#40E7FF"/>
<stop offset="1" stop-color="#40EAFF"/>
</linearGradient>
<linearGradient id="paint11_linear" x1="7.43444" y1="0.176135" x2="17.5952" y2="10.5281" gradientUnits="userSpaceOnUse">
<stop stop-color="#65B895"/>
<stop offset="0.0685" stop-color="#62BD95"/>
<stop offset="0.4762" stop-color="#50DB97"/>
<stop offset="0.8009" stop-color="#44ED98"/>
<stop offset="1" stop-color="#40F498"/>
</linearGradient>
</defs>
</svg>
