<svg width="67" height="55" viewBox="0 0 67 55" fill="#489AE9" xmlns="http://www.w3.org/2000/svg">
<path d="M60.182 13.6506C62.8043 11.6627 65.1644 9.27711 67 6.49398C64.6399 7.55422 61.8865 8.3494 59.1331 8.61446C62.0176 6.89157 64.1155 4.24096 65.1644 0.927711C62.5421 2.51807 59.5264 3.71084 56.5108 4.37349C53.8885 1.59036 50.3483 0 46.4149 0C38.8102 0 32.6478 6.22892 32.6478 13.9157C32.6478 14.9759 32.7789 16.0361 33.0411 17.0964C21.6341 16.4337 11.407 10.8675 4.58904 2.51807C3.409 4.50602 2.75342 6.89157 2.75342 9.54217C2.75342 14.3133 5.1135 18.5542 8.91585 21.0723C6.68689 20.9398 4.45793 20.4096 2.62231 19.3494V19.4819C2.62231 26.241 7.34247 31.8072 13.636 33.1325C12.5871 33.3976 11.2759 33.6627 10.0959 33.6627C9.17808 33.6627 8.39139 33.5301 7.47358 33.3976C9.17808 38.9639 14.2916 42.9398 20.3229 43.0723C15.6027 46.7831 9.70254 49.0361 3.27789 49.0361C2.09785 49.0361 1.04892 48.9036 0 48.7711C6.03131 52.747 13.2427 55 21.1096 55C46.4149 55 60.182 33.9277 60.182 15.506C60.182 14.8434 60.182 14.3133 60.182 13.6506Z" fill="#489AE9"/>
</svg>
