<svg width="60" height="60" viewBox="0 0 60 60" fill="none" xmlns="http://www.w3.org/2000/svg">
<path d="M23.2421 43.9874L23.2422 43.9874C23.8698 44.2722 24.1349 44.9929 23.8473 45.5963L17.6538 58.5892C17.3645 59.1955 16.6214 59.4651 15.99 59.1789C15.3638 58.8948 15.0973 58.1733 15.3849 57.57L15.1592 57.4624L15.3849 57.57L21.5783 44.5772C21.8677 43.9708 22.6122 43.7013 23.2421 43.9874Z" fill="#C3B399" stroke="white" stroke-width="0.5"/>
<path d="M32.4706 39.5971L32.4707 39.5972C33.0981 39.8818 33.3629 40.6025 33.0758 41.2063L26.8824 54.1989C26.5931 54.8053 25.85 55.0748 25.2186 54.7887C24.5923 54.5046 24.3259 53.783 24.6134 53.1798L24.3879 53.0723L24.6134 53.1798L30.8069 40.1869C31.0963 39.5805 31.8408 39.3111 32.4706 39.5971Z" fill="#C3B399" stroke="white" stroke-width="0.5"/>
<path d="M18.5132 39.5971L18.5133 39.5972C19.1409 39.8819 19.4061 40.6027 19.1184 41.2061L12.925 54.1989C12.6356 54.8053 11.8926 55.0748 11.2611 54.7887C10.6349 54.5046 10.3685 53.783 10.656 53.1798L10.4304 53.0722L10.656 53.1798L16.8495 40.1869C17.1389 39.5805 17.8834 39.3111 18.5132 39.5971Z" fill="#C3B399" stroke="white" stroke-width="0.5"/>
<path d="M40.4857 6.18807C40.4857 6.85202 39.9314 7.40148 39.2356 7.40148C38.5391 7.40148 37.9856 6.85275 37.9856 6.18807V1.92002C37.9856 1.25599 38.5392 0.706604 39.2356 0.706604C39.9314 0.706604 40.4857 1.25607 40.4857 1.92002V6.18807Z" fill="#C3B399" stroke="white" stroke-width="0.5"/>
<path d="M53.6117 18.9993H57.9872C58.683 18.9993 59.2372 19.5481 59.2372 20.2127C59.2372 20.8766 58.6829 21.4261 57.9872 21.4261H53.6117C52.9159 21.4261 52.3617 20.8766 52.3617 20.2127C52.3617 19.5481 52.9158 18.9993 53.6117 18.9993Z" fill="#C3B399" stroke="white" stroke-width="0.5"/>
<path d="M51.6081 6.42193L51.6081 6.4219C52.0969 5.94504 52.8914 5.94462 53.3798 6.42179C53.8639 6.89467 53.8649 7.66015 53.3799 8.13328L50.2862 11.1516C49.7976 11.6283 49.0031 11.6283 48.5145 11.1517C48.0291 10.6775 48.0292 9.91276 48.5144 9.43947L51.6081 6.42193Z" fill="#C3B399" stroke="white" stroke-width="0.5"/>
<path d="M51.6082 34.0035L51.6082 34.0035L48.5146 30.9861C48.0308 30.5135 48.0308 29.7473 48.5144 29.2747C49.0048 28.7977 49.7993 28.798 50.2878 29.2746C50.2878 29.2746 50.2878 29.2746 50.2878 29.2746L53.3801 32.2921L53.3801 32.2922C53.8656 32.7658 53.8664 33.5303 53.3803 34.0033L53.3799 34.0038C52.8929 34.4801 52.097 34.4804 51.6082 34.0035Z" fill="#C3B399" stroke="white" stroke-width="0.5"/>
<path d="M25.092 6.42117L25.0919 6.42128C24.6068 6.89389 24.6068 7.65984 25.0919 8.13244L25.092 8.13257L28.1857 11.1516C28.1857 11.1516 28.1857 11.1516 28.1857 11.1516C28.6742 11.6281 29.4686 11.6277 29.9574 11.1517L25.092 6.42117ZM25.092 6.42117C25.5804 5.94462 26.375 5.945 26.8638 6.42117C26.8638 6.42121 26.8639 6.42125 26.8639 6.42128L29.9574 9.43935M25.092 6.42117L29.9574 9.43935M29.9574 9.43935L29.9576 9.43947C30.4427 9.91351 30.4428 10.6774 29.9577 11.1515L29.9574 9.43935Z" fill="#C3B399" stroke="white" stroke-width="0.5"/>
<path d="M28.9062 17.5061L29.1634 17.6166L29.2442 17.3485C30.5153 13.1322 34.5006 10.0359 39.2356 10.0359C44.9961 10.0359 49.6731 14.6075 49.6731 20.2127C49.6731 24.3471 47.1243 27.9059 43.4746 29.495L43.1413 29.6401L43.396 29.8994C44.9265 31.4573 45.8691 33.5635 45.8691 35.883C45.8691 40.267 42.5075 43.8953 38.1562 44.4646L38.0542 44.4779L38.0117 44.5327H36.6736C35.9778 44.5327 35.4236 43.9833 35.4236 43.3193C35.4236 42.6554 35.9778 42.1059 36.6736 42.1059H37.7319H37.9819V42.0487C41.0257 41.5737 43.3691 38.998 43.3691 35.883C43.3691 32.6147 40.7871 29.9369 37.5226 29.6624L37.2516 29.6396V29.9115C37.2516 29.9269 37.2526 29.9408 37.2529 29.9452C37.253 29.9467 37.2531 29.9477 37.2531 29.9484V30.6161V31.0764V32.0795C37.2531 32.7436 36.6996 33.293 36.0031 33.293C35.3073 33.293 34.7531 32.7435 34.7531 32.0795V30.6278C34.7539 30.6232 34.7552 30.6152 34.7562 30.6066C34.7576 30.5954 34.7591 30.58 34.7591 30.562V30.312H34.7531V29.9459C34.7531 23.783 29.6163 18.781 23.3154 18.781C17.0144 18.781 11.8784 23.783 11.8784 29.9459V30.6161V31.822V32.0795C11.8784 32.7435 11.3241 33.293 10.6284 33.293C9.93191 33.293 9.37836 32.7436 9.37836 32.0795V31.7722V30.6161V29.9484C9.3784 29.9477 9.37847 29.9467 9.37856 29.9452C9.37886 29.9407 9.37986 29.9269 9.37986 29.9115V29.6396L9.10891 29.6624C5.84434 29.9369 3.26236 32.6147 3.26236 35.883C3.26236 39.1875 5.90021 41.8795 9.21412 42.1053L9.2226 42.1059H9.23111H10.6756C11.3714 42.1059 11.9256 42.6554 11.9256 43.3193C11.9256 43.9833 11.3714 44.5327 10.6756 44.5327H9.33161H9.11982C4.45966 44.2572 0.76236 40.4826 0.76236 35.883C0.76236 31.1683 4.64767 27.3175 9.47182 27.2171L9.66736 27.213L9.71046 27.0222C11.0862 20.9331 16.6579 16.3534 23.3154 16.3534C25.3043 16.3534 27.1931 16.7704 28.9062 17.5061ZM40.2928 27.8523L40.3549 27.8769L40.421 27.8671C44.2319 27.3065 47.1731 24.0982 47.1739 20.2128C47.1739 15.934 43.6076 12.4627 39.2364 12.4627C35.3752 12.4627 32.1497 15.1696 31.4453 18.7486L31.4143 18.9062L31.5448 18.9999C34.2256 20.925 36.1822 23.7514 36.921 27.0222L36.9641 27.2129L37.1596 27.2171C38.2654 27.2405 39.3199 27.4682 40.2928 27.8523Z" fill="#C3B399" stroke="white" stroke-width="0.5"/>
</svg>
